solid OpenSCAD_Model
  facet normal 0 0 -1
    outer loop
      vertex 0.5 5.5 13
      vertex 2 33.5 13
      vertex 2 5.5 13
    endloop
  endfacet
  facet normal -0 0 -1
    outer loop
      vertex 2 33.5 13
      vertex 0.5 5.5 13
      vertex 0.5 33.5 13
    endloop
  endfacet
  facet normal 0 0 -1
    outer loop
      vertex 25.8978 20.2765 13
      vertex 26 26.5 13
      vertex 26 19.5 13
    endloop
  endfacet
  facet normal 0 0 -1
    outer loop
      vertex 25.8978 20.2765 13
      vertex 25.8978 25.7235 13
      vertex 26 26.5 13
    endloop
  endfacet
  facet normal 0 0 -1
    outer loop
      vertex 25.5981 21 13
      vertex 25.8978 25.7235 13
      vertex 25.8978 20.2765 13
    endloop
  endfacet
  facet normal 0 0 -1
    outer loop
      vertex 25.5981 21 13
      vertex 25.5981 25 13
      vertex 25.8978 25.7235 13
    endloop
  endfacet
  facet normal 0 0 -1
    outer loop
      vertex 25.1213 21.6213 13
      vertex 25.5981 25 13
      vertex 25.5981 21 13
    endloop
  endfacet
  facet normal 0 0 -1
    outer loop
      vertex 25.1213 21.6213 13
      vertex 25.1213 24.3787 13
      vertex 25.5981 25 13
    endloop
  endfacet
  facet normal 0 0 -1
    outer loop
      vertex 24.5 22.0981 13
      vertex 25.1213 24.3787 13
      vertex 25.1213 21.6213 13
    endloop
  endfacet
  facet normal 0 0 -1
    outer loop
      vertex 24.5 22.0981 13
      vertex 24.5 23.9019 13
      vertex 25.1213 24.3787 13
    endloop
  endfacet
  facet normal 0 0 -1
    outer loop
      vertex 23.7765 22.3978 13
      vertex 24.5 23.9019 13
      vertex 24.5 22.0981 13
    endloop
  endfacet
  facet normal 0 0 -1
    outer loop
      vertex 23.7765 22.3978 13
      vertex 23.7765 23.6022 13
      vertex 24.5 23.9019 13
    endloop
  endfacet
  facet normal 0 0 -1
    outer loop
      vertex 23 22.5 13
      vertex 23.7765 23.6022 13
      vertex 23.7765 22.3978 13
    endloop
  endfacet
  facet normal 0 0 -1
    outer loop
      vertex 23 22.5 13
      vertex 23 23.5 13
      vertex 23.7765 23.6022 13
    endloop
  endfacet
  facet normal 0 0 -1
    outer loop
      vertex 22.2235 22.3978 13
      vertex 23 23.5 13
      vertex 23 22.5 13
    endloop
  endfacet
  facet normal 0 0 -1
    outer loop
      vertex 22.2235 22.3978 13
      vertex 22.2235 23.6022 13
      vertex 23 23.5 13
    endloop
  endfacet
  facet normal 0 0 -1
    outer loop
      vertex 21.5 22.0981 13
      vertex 22.2235 23.6022 13
      vertex 22.2235 22.3978 13
    endloop
  endfacet
  facet normal 0 0 -1
    outer loop
      vertex 21.5 22.0981 13
      vertex 21.5 23.9019 13
      vertex 22.2235 23.6022 13
    endloop
  endfacet
  facet normal 0 0 -1
    outer loop
      vertex 20.8787 21.6213 13
      vertex 21.5 23.9019 13
      vertex 21.5 22.0981 13
    endloop
  endfacet
  facet normal 0 0 -1
    outer loop
      vertex 20.8787 21.6213 13
      vertex 20.8787 24.3787 13
      vertex 21.5 23.9019 13
    endloop
  endfacet
  facet normal 0 0 -1
    outer loop
      vertex 20.4019 21 13
      vertex 20.8787 24.3787 13
      vertex 20.8787 21.6213 13
    endloop
  endfacet
  facet normal 0 0 -1
    outer loop
      vertex 20.4019 21 13
      vertex 20.4019 25 13
      vertex 20.8787 24.3787 13
    endloop
  endfacet
  facet normal 0 0 -1
    outer loop
      vertex 20.1022 20.2765 13
      vertex 20.4019 25 13
      vertex 20.4019 21 13
    endloop
  endfacet
  facet normal 0 0 -1
    outer loop
      vertex 20.1022 20.2765 13
      vertex 20.1022 25.7235 13
      vertex 20.4019 25 13
    endloop
  endfacet
  facet normal 0 0 -1
    outer loop
      vertex 2 33.5 13
      vertex 20.1022 20.2765 13
      vertex 20 19.5 13
    endloop
  endfacet
  facet normal 0 0 -1
    outer loop
      vertex 20.1022 20.2765 13
      vertex 2 33.5 13
      vertex 20.1022 25.7235 13
    endloop
  endfacet
  facet normal 0 0 -1
    outer loop
      vertex 25.8978 13.2765 13
      vertex 26 19.5 13
      vertex 26 12.5 13
    endloop
  endfacet
  facet normal 0 0 -1
    outer loop
      vertex 25.8978 13.2765 13
      vertex 25.8978 18.7235 13
      vertex 26 19.5 13
    endloop
  endfacet
  facet normal 0 0 -1
    outer loop
      vertex 25.5981 14 13
      vertex 25.8978 18.7235 13
      vertex 25.8978 13.2765 13
    endloop
  endfacet
  facet normal 0 0 -1
    outer loop
      vertex 25.5981 14 13
      vertex 25.5981 18 13
      vertex 25.8978 18.7235 13
    endloop
  endfacet
  facet normal 0 0 -1
    outer loop
      vertex 25.1213 14.6213 13
      vertex 25.5981 18 13
      vertex 25.5981 14 13
    endloop
  endfacet
  facet normal 0 0 -1
    outer loop
      vertex 25.1213 14.6213 13
      vertex 25.1213 17.3787 13
      vertex 25.5981 18 13
    endloop
  endfacet
  facet normal 0 0 -1
    outer loop
      vertex 24.5 15.0981 13
      vertex 25.1213 17.3787 13
      vertex 25.1213 14.6213 13
    endloop
  endfacet
  facet normal 0 0 -1
    outer loop
      vertex 24.5 15.0981 13
      vertex 24.5 16.9019 13
      vertex 25.1213 17.3787 13
    endloop
  endfacet
  facet normal 0 0 -1
    outer loop
      vertex 23.7765 15.3978 13
      vertex 24.5 16.9019 13
      vertex 24.5 15.0981 13
    endloop
  endfacet
  facet normal 0 0 -1
    outer loop
      vertex 23.7765 15.3978 13
      vertex 23.7765 16.6022 13
      vertex 24.5 16.9019 13
    endloop
  endfacet
  facet normal 0 0 -1
    outer loop
      vertex 23 15.5 13
      vertex 23.7765 16.6022 13
      vertex 23.7765 15.3978 13
    endloop
  endfacet
  facet normal 0 0 -1
    outer loop
      vertex 23 15.5 13
      vertex 23 16.5 13
      vertex 23.7765 16.6022 13
    endloop
  endfacet
  facet normal 0 0 -1
    outer loop
      vertex 22.2235 15.3978 13
      vertex 23 16.5 13
      vertex 23 15.5 13
    endloop
  endfacet
  facet normal 0 0 -1
    outer loop
      vertex 22.2235 15.3978 13
      vertex 22.2235 16.6022 13
      vertex 23 16.5 13
    endloop
  endfacet
  facet normal 0 0 -1
    outer loop
      vertex 21.5 15.0981 13
      vertex 22.2235 16.6022 13
      vertex 22.2235 15.3978 13
    endloop
  endfacet
  facet normal 0 0 -1
    outer loop
      vertex 21.5 15.0981 13
      vertex 21.5 16.9019 13
      vertex 22.2235 16.6022 13
    endloop
  endfacet
  facet normal 0 0 -1
    outer loop
      vertex 20.8787 14.6213 13
      vertex 21.5 16.9019 13
      vertex 21.5 15.0981 13
    endloop
  endfacet
  facet normal 0 0 -1
    outer loop
      vertex 20.8787 14.6213 13
      vertex 20.8787 17.3787 13
      vertex 21.5 16.9019 13
    endloop
  endfacet
  facet normal 0 0 -1
    outer loop
      vertex 20.4019 14 13
      vertex 20.8787 17.3787 13
      vertex 20.8787 14.6213 13
    endloop
  endfacet
  facet normal 0 0 -1
    outer loop
      vertex 20.4019 14 13
      vertex 20.4019 18 13
      vertex 20.8787 17.3787 13
    endloop
  endfacet
  facet normal 0 0 -1
    outer loop
      vertex 20.1022 13.2765 13
      vertex 20.4019 18 13
      vertex 20.4019 14 13
    endloop
  endfacet
  facet normal 0 0 -1
    outer loop
      vertex 20.1022 13.2765 13
      vertex 20.1022 18.7235 13
      vertex 20.4019 18 13
    endloop
  endfacet
  facet normal 0 0 -1
    outer loop
      vertex 2 5.5 13
      vertex 20.1022 13.2765 13
      vertex 20 12.5 13
    endloop
  endfacet
  facet normal -0 0 -1
    outer loop
      vertex 20.1022 13.2765 13
      vertex 2 5.5 13
      vertex 20.1022 18.7235 13
    endloop
  endfacet
  facet normal 0 0 -1
    outer loop
      vertex 26 19.5 13
      vertex 26.7678 36.7678 13
      vertex 26.7678 2 13
    endloop
  endfacet
  facet normal 0 0 -1
    outer loop
      vertex 26 19.5 13
      vertex 26.7678 2 13
      vertex 26 12.5 13
    endloop
  endfacet
  facet normal 0 0 -1
    outer loop
      vertex 26.7678 2 13
      vertex 25.8978 11.7235 13
      vertex 26 12.5 13
    endloop
  endfacet
  facet normal 0 0 -1
    outer loop
      vertex 26.7678 2 13
      vertex 25.5981 11 13
      vertex 25.8978 11.7235 13
    endloop
  endfacet
  facet normal 0 0 -1
    outer loop
      vertex 26.7678 2 13
      vertex 25.1213 10.3787 13
      vertex 25.5981 11 13
    endloop
  endfacet
  facet normal 0 0 -1
    outer loop
      vertex 26.7678 2 13
      vertex 24.5 9.90192 13
      vertex 25.1213 10.3787 13
    endloop
  endfacet
  facet normal 0 0 -1
    outer loop
      vertex 26.7678 2 13
      vertex 23.7765 9.60222 13
      vertex 24.5 9.90192 13
    endloop
  endfacet
  facet normal 0 0 -1
    outer loop
      vertex 26.7678 2 13
      vertex 23 9.5 13
      vertex 23.7765 9.60222 13
    endloop
  endfacet
  facet normal 0 0 -1
    outer loop
      vertex 26.7678 2 13
      vertex 22.2235 9.60222 13
      vertex 23 9.5 13
    endloop
  endfacet
  facet normal 0 0 -1
    outer loop
      vertex 26.7678 2 13
      vertex 21.5 9.90192 13
      vertex 22.2235 9.60222 13
    endloop
  endfacet
  facet normal 0 0 -1
    outer loop
      vertex 2 2 13
      vertex 21.5 9.90192 13
      vertex 26.7678 2 13
    endloop
  endfacet
  facet normal -0 0 -1
    outer loop
      vertex 21.5 9.90192 13
      vertex 2 2 13
      vertex 20.8787 10.3787 13
    endloop
  endfacet
  facet normal -0 0 -1
    outer loop
      vertex 20.1022 18.7235 13
      vertex 2 5.5 13
      vertex 20 19.5 13
    endloop
  endfacet
  facet normal -0 0 -1
    outer loop
      vertex 20.1022 11.7235 13
      vertex 2 5.5 13
      vertex 20 12.5 13
    endloop
  endfacet
  facet normal -0 0 -1
    outer loop
      vertex 20.4019 11 13
      vertex 2 5.5 13
      vertex 20.1022 11.7235 13
    endloop
  endfacet
  facet normal -0 0 -1
    outer loop
      vertex 20.8787 10.3787 13
      vertex 2 5.5 13
      vertex 20.4019 11 13
    endloop
  endfacet
  facet normal 0 0 -1
    outer loop
      vertex 2 5.5 13
      vertex 20.8787 10.3787 13
      vertex 2 2 13
    endloop
  endfacet
  facet normal 0 0 -1
    outer loop
      vertex 26 26.5 13
      vertex 26.7678 36.7678 13
      vertex 26 19.5 13
    endloop
  endfacet
  facet normal 0 0 -1
    outer loop
      vertex 25.8978 27.2765 13
      vertex 26.7678 36.7678 13
      vertex 26 26.5 13
    endloop
  endfacet
  facet normal 0 0 -1
    outer loop
      vertex 25.5981 28 13
      vertex 26.7678 36.7678 13
      vertex 25.8978 27.2765 13
    endloop
  endfacet
  facet normal 0 0 -1
    outer loop
      vertex 25.1213 28.6213 13
      vertex 26.7678 36.7678 13
      vertex 25.5981 28 13
    endloop
  endfacet
  facet normal 0 0 -1
    outer loop
      vertex 24.5 29.0981 13
      vertex 26.7678 36.7678 13
      vertex 25.1213 28.6213 13
    endloop
  endfacet
  facet normal 0 0 -1
    outer loop
      vertex 23.7765 29.3978 13
      vertex 26.7678 36.7678 13
      vertex 24.5 29.0981 13
    endloop
  endfacet
  facet normal 0 0 -1
    outer loop
      vertex 23 29.5 13
      vertex 26.7678 36.7678 13
      vertex 23.7765 29.3978 13
    endloop
  endfacet
  facet normal -0 0 -1
    outer loop
      vertex 26.7678 36.7678 13
      vertex 23 29.5 13
      vertex 26.5355 37 13
    endloop
  endfacet
  facet normal 0 0 -1
    outer loop
      vertex 22.2235 29.3978 13
      vertex 26.5355 37 13
      vertex 23 29.5 13
    endloop
  endfacet
  facet normal 0 0 -1
    outer loop
      vertex 21.5 29.0981 13
      vertex 26.5355 37 13
      vertex 22.2235 29.3978 13
    endloop
  endfacet
  facet normal 0 0 -1
    outer loop
      vertex 2 37 13
      vertex 21.5 29.0981 13
      vertex 20.8787 28.6213 13
    endloop
  endfacet
  facet normal 0 0 -1
    outer loop
      vertex 2 33.5 13
      vertex 20.8787 28.6213 13
      vertex 20.4019 28 13
    endloop
  endfacet
  facet normal 0 0 -1
    outer loop
      vertex 2 33.5 13
      vertex 20 19.5 13
      vertex 2 5.5 13
    endloop
  endfacet
  facet normal 0 0 -1
    outer loop
      vertex 20.1022 25.7235 13
      vertex 2 33.5 13
      vertex 20 26.5 13
    endloop
  endfacet
  facet normal 0 0 -1
    outer loop
      vertex 20 26.5 13
      vertex 2 33.5 13
      vertex 20.1022 27.2765 13
    endloop
  endfacet
  facet normal 0 0 -1
    outer loop
      vertex 20.1022 27.2765 13
      vertex 2 33.5 13
      vertex 20.4019 28 13
    endloop
  endfacet
  facet normal 0 0 -1
    outer loop
      vertex 20.8787 28.6213 13
      vertex 2 33.5 13
      vertex 2 37 13
    endloop
  endfacet
  facet normal 0 0 -1
    outer loop
      vertex 21.5 29.0981 13
      vertex 2 37 13
      vertex 26.5355 37 13
    endloop
  endfacet
  facet normal -0 0 1
    outer loop
      vertex 2 37 6
      vertex 26.7678 36.7678 6
      vertex 26.5355 37 6
    endloop
  endfacet
  facet normal 0 0 1
    outer loop
      vertex 26.7678 36.7678 6
      vertex 2 37 6
      vertex 26.7678 2 6
    endloop
  endfacet
  facet normal 0 0 1
    outer loop
      vertex 26.7678 2 6
      vertex 2 37 6
      vertex 2 2 6
    endloop
  endfacet
  facet normal 1 0 0
    outer loop
      vertex 2 5.5 13
      vertex 2 2 13
      vertex 2 5.5 9
    endloop
  endfacet
  facet normal 1 0 0
    outer loop
      vertex 2 9.5 9
      vertex 2 5.5 9
      vertex 2 9.5 8
    endloop
  endfacet
  facet normal 1 0 0
    outer loop
      vertex 2 11.5 8
      vertex 2 14.5 9
      vertex 2 11.5 9
    endloop
  endfacet
  facet normal 1 0 0
    outer loop
      vertex 2 33.5 9
      vertex 2 37 13
      vertex 2 33.5 13
    endloop
  endfacet
  facet normal 1 0 0
    outer loop
      vertex 2 37 13
      vertex 2 33.5 9
      vertex 2 37 6
    endloop
  endfacet
  facet normal 1 0 0
    outer loop
      vertex 2 26.5 8
      vertex 2 33.5 9
      vertex 2 26.5 9
    endloop
  endfacet
  facet normal 1 0 0
    outer loop
      vertex 2 33.5 9
      vertex 2 26.5 8
      vertex 2 37 6
    endloop
  endfacet
  facet normal 1 0 0
    outer loop
      vertex 2 24.5 7
      vertex 2 26.5 8
      vertex 2 24.5 8
    endloop
  endfacet
  facet normal 1 0 0
    outer loop
      vertex 2 26.5 8
      vertex 2 24.5 7
      vertex 2 37 6
    endloop
  endfacet
  facet normal 1 -0 0
    outer loop
      vertex 2 14.5 7
      vertex 2 37 6
      vertex 2 24.5 7
    endloop
  endfacet
  facet normal 1 0 0
    outer loop
      vertex 2 14.5 9
      vertex 2 11.5 8
      vertex 2 14.5 7
    endloop
  endfacet
  facet normal 1 -0 0
    outer loop
      vertex 2 9.5 8
      vertex 2 14.5 7
      vertex 2 11.5 8
    endloop
  endfacet
  facet normal 1 0 0
    outer loop
      vertex 2 14.5 7
      vertex 2 2 6
      vertex 2 37 6
    endloop
  endfacet
  facet normal 1 0 0
    outer loop
      vertex 2 9.5 8
      vertex 2 2 6
      vertex 2 14.5 7
    endloop
  endfacet
  facet normal 1 0 0
    outer loop
      vertex 2 5.5 9
      vertex 2 2 6
      vertex 2 9.5 8
    endloop
  endfacet
  facet normal 1 0 0
    outer loop
      vertex 2 2 6
      vertex 2 5.5 9
      vertex 2 2 13
    endloop
  endfacet
  facet normal 0 -1 0
    outer loop
      vertex 2 37 6
      vertex 26.5355 37 13
      vertex 2 37 13
    endloop
  endfacet
  facet normal 0 -1 -0
    outer loop
      vertex 26.5355 37 13
      vertex 2 37 6
      vertex 26.5355 37 6
    endloop
  endfacet
  facet normal 0 1 -0
    outer loop
      vertex 26.7678 2 6
      vertex 2 2 13
      vertex 26.7678 2 13
    endloop
  endfacet
  facet normal 0 1 0
    outer loop
      vertex 2 2 13
      vertex 26.7678 2 6
      vertex 2 2 6
    endloop
  endfacet
  facet normal 0 0 1
    outer loop
      vertex 2 14.5 9
      vertex 1 11.5 9
      vertex 2 11.5 9
    endloop
  endfacet
  facet normal 0 0 1
    outer loop
      vertex 1 11.5 9
      vertex 0.5 14.5 9
      vertex 1 9.5 9
    endloop
  endfacet
  facet normal -0 0 1
    outer loop
      vertex 0.5 14.5 9
      vertex 1 11.5 9
      vertex 2 14.5 9
    endloop
  endfacet
  facet normal -0 0 1
    outer loop
      vertex 1 9.5 9
      vertex 2 5.5 9
      vertex 2 9.5 9
    endloop
  endfacet
  facet normal 0 0 1
    outer loop
      vertex 1 9.5 9
      vertex 0.5 5.5 9
      vertex 2 5.5 9
    endloop
  endfacet
  facet normal 0 0 1
    outer loop
      vertex 0.5 5.5 9
      vertex 1 9.5 9
      vertex 0.5 14.5 9
    endloop
  endfacet
  facet normal 0 0 1
    outer loop
      vertex 2 33.5 9
      vertex 1 26.5 9
      vertex 2 26.5 9
    endloop
  endfacet
  facet normal -0 0 1
    outer loop
      vertex 0.5 33.5 9
      vertex 1 26.5 9
      vertex 2 33.5 9
    endloop
  endfacet
  facet normal 0 0 1
    outer loop
      vertex 0.5 24.5 9
      vertex 1 26.5 9
      vertex 0.5 33.5 9
    endloop
  endfacet
  facet normal 0 0 1
    outer loop
      vertex 1 26.5 9
      vertex 0.5 24.5 9
      vertex 1 24.5 9
    endloop
  endfacet
  facet normal 1 0 0
    outer loop
      vertex 0.5 33.5 13
      vertex 0.5 24.5 12
      vertex 0.5 33.5 9
    endloop
  endfacet
  facet normal 1 0 0
    outer loop
      vertex 0.5 33.5 13
      vertex 0.5 14.5 12
      vertex 0.5 24.5 12
    endloop
  endfacet
  facet normal 1 -0 0
    outer loop
      vertex 0.5 5.5 13
      vertex 0.5 14.5 12
      vertex 0.5 33.5 13
    endloop
  endfacet
  facet normal 1 0 0
    outer loop
      vertex 0.5 5.5 9
      vertex 0.5 14.5 12
      vertex 0.5 5.5 13
    endloop
  endfacet
  facet normal 1 0 0
    outer loop
      vertex 0.5 14.5 12
      vertex 0.5 5.5 9
      vertex 0.5 14.5 9
    endloop
  endfacet
  facet normal 1 0 0
    outer loop
      vertex 0.5 33.5 9
      vertex 0.5 24.5 12
      vertex 0.5 24.5 9
    endloop
  endfacet
  facet normal 0 -1 0
    outer loop
      vertex 0.5 33.5 9
      vertex 2 33.5 13
      vertex 0.5 33.5 13
    endloop
  endfacet
  facet normal 0 -1 -0
    outer loop
      vertex 2 33.5 13
      vertex 0.5 33.5 9
      vertex 2 33.5 9
    endloop
  endfacet
  facet normal 0 1 -0
    outer loop
      vertex 2 5.5 9
      vertex 0.5 5.5 13
      vertex 2 5.5 13
    endloop
  endfacet
  facet normal 0 1 0
    outer loop
      vertex 0.5 5.5 13
      vertex 2 5.5 9
      vertex 0.5 5.5 9
    endloop
  endfacet
  facet normal 0 0 -1
    outer loop
      vertex -1 14.5 12
      vertex 0.5 24.5 12
      vertex 0.5 14.5 12
    endloop
  endfacet
  facet normal -0 0 -1
    outer loop
      vertex 0.5 24.5 12
      vertex -1 14.5 12
      vertex -1 24.5 12
    endloop
  endfacet
  facet normal -0 0 1
    outer loop
      vertex -1 24.5 7
      vertex 2 14.5 7
      vertex 2 24.5 7
    endloop
  endfacet
  facet normal 0 0 1
    outer loop
      vertex 2 14.5 7
      vertex -1 24.5 7
      vertex -1 14.5 7
    endloop
  endfacet
  facet normal 1 -0 0
    outer loop
      vertex -1 14.5 12
      vertex -1 24.5 7
      vertex -1 24.5 12
    endloop
  endfacet
  facet normal 1 0 0
    outer loop
      vertex -1 24.5 7
      vertex -1 14.5 12
      vertex -1 14.5 7
    endloop
  endfacet
  facet normal 0 -1 0
    outer loop
      vertex -1 24.5 12
      vertex 0.5 24.5 9
      vertex 0.5 24.5 12
    endloop
  endfacet
  facet normal 0 -1 0
    outer loop
      vertex 0.5 24.5 9
      vertex 1 24.5 8
      vertex 1 24.5 9
    endloop
  endfacet
  facet normal 0 -1 0
    outer loop
      vertex -1 24.5 7
      vertex 0.5 24.5 9
      vertex -1 24.5 12
    endloop
  endfacet
  facet normal 0 -1 -0
    outer loop
      vertex 0.5 24.5 9
      vertex -1 24.5 7
      vertex 1 24.5 8
    endloop
  endfacet
  facet normal 0 -1 0
    outer loop
      vertex 2 24.5 7
      vertex 1 24.5 8
      vertex -1 24.5 7
    endloop
  endfacet
  facet normal 0 -1 0
    outer loop
      vertex 1 24.5 8
      vertex 2 24.5 7
      vertex 2 24.5 8
    endloop
  endfacet
  facet normal 0 1 0
    outer loop
      vertex 2 14.5 9
      vertex 2 14.5 7
      vertex 0.5 14.5 9
    endloop
  endfacet
  facet normal 0 1 -0
    outer loop
      vertex 0.5 14.5 9
      vertex -1 14.5 12
      vertex 0.5 14.5 12
    endloop
  endfacet
  facet normal 0 1 0
    outer loop
      vertex 0.5 14.5 9
      vertex -1 14.5 7
      vertex -1 14.5 12
    endloop
  endfacet
  facet normal 0 1 0
    outer loop
      vertex -1 14.5 7
      vertex 0.5 14.5 9
      vertex 2 14.5 7
    endloop
  endfacet
  facet normal -0.130516 0.991446 0
    outer loop
      vertex 23.7765 9.60222 13
      vertex 23 9.5 14
      vertex 23.7765 9.60222 14
    endloop
  endfacet
  facet normal -0.130516 0.991446 0
    outer loop
      vertex 23 9.5 14
      vertex 23.7765 9.60222 13
      vertex 23 9.5 13
    endloop
  endfacet
  facet normal -0.923872 -0.382701 0
    outer loop
      vertex 25.8978 13.2765 13
      vertex 25.5981 14 14
      vertex 25.5981 14 13
    endloop
  endfacet
  facet normal -0.923872 -0.382701 0
    outer loop
      vertex 25.5981 14 14
      vertex 25.8978 13.2765 13
      vertex 25.8978 13.2765 14
    endloop
  endfacet
  facet normal -0.99145 -0.130491 0
    outer loop
      vertex 26 12.5 13
      vertex 25.8978 13.2765 14
      vertex 25.8978 13.2765 13
    endloop
  endfacet
  facet normal -0.99145 -0.130491 0
    outer loop
      vertex 25.8978 13.2765 14
      vertex 26 12.5 13
      vertex 26 12.5 14
    endloop
  endfacet
  facet normal 0.923872 0.382701 0
    outer loop
      vertex 20.4019 11 14
      vertex 20.1022 11.7235 13
      vertex 20.1022 11.7235 14
    endloop
  endfacet
  facet normal 0.923872 0.382701 0
    outer loop
      vertex 20.1022 11.7235 13
      vertex 20.4019 11 14
      vertex 20.4019 11 13
    endloop
  endfacet
  facet normal 0.130491 -0.99145 0
    outer loop
      vertex 22.2235 15.3978 13
      vertex 23 15.5 14
      vertex 22.2235 15.3978 14
    endloop
  endfacet
  facet normal 0.130491 -0.99145 0
    outer loop
      vertex 23 15.5 14
      vertex 22.2235 15.3978 13
      vertex 23 15.5 13
    endloop
  endfacet
  facet normal 0.793316 -0.608809 0
    outer loop
      vertex 20.4019 14 14
      vertex 20.8787 14.6213 13
      vertex 20.8787 14.6213 14
    endloop
  endfacet
  facet normal 0.793316 -0.608809 0
    outer loop
      vertex 20.8787 14.6213 13
      vertex 20.4019 14 14
      vertex 20.4019 14 13
    endloop
  endfacet
  facet normal 0.608809 -0.793316 0
    outer loop
      vertex 20.8787 14.6213 13
      vertex 21.5 15.0981 14
      vertex 20.8787 14.6213 14
    endloop
  endfacet
  facet normal 0.608809 -0.793316 0
    outer loop
      vertex 21.5 15.0981 14
      vertex 20.8787 14.6213 13
      vertex 21.5 15.0981 13
    endloop
  endfacet
  facet normal -0.793316 -0.608809 0
    outer loop
      vertex 25.5981 14 13
      vertex 25.1213 14.6213 14
      vertex 25.1213 14.6213 13
    endloop
  endfacet
  facet normal -0.793316 -0.608809 0
    outer loop
      vertex 25.1213 14.6213 14
      vertex 25.5981 14 13
      vertex 25.5981 14 14
    endloop
  endfacet
  facet normal -0.923872 0.382701 0
    outer loop
      vertex 25.5981 11 13
      vertex 25.8978 11.7235 14
      vertex 25.8978 11.7235 13
    endloop
  endfacet
  facet normal -0.923872 0.382701 0
    outer loop
      vertex 25.8978 11.7235 14
      vertex 25.5981 11 13
      vertex 25.5981 11 14
    endloop
  endfacet
  facet normal -0.608793 0.793329 0
    outer loop
      vertex 25.1213 10.3787 13
      vertex 24.5 9.90192 14
      vertex 25.1213 10.3787 14
    endloop
  endfacet
  facet normal -0.608793 0.793329 0
    outer loop
      vertex 24.5 9.90192 14
      vertex 25.1213 10.3787 13
      vertex 24.5 9.90192 13
    endloop
  endfacet
  facet normal -0.382701 -0.923872 0
    outer loop
      vertex 23.7765 15.3978 13
      vertex 24.5 15.0981 14
      vertex 23.7765 15.3978 14
    endloop
  endfacet
  facet normal -0.382701 -0.923872 -0
    outer loop
      vertex 24.5 15.0981 14
      vertex 23.7765 15.3978 13
      vertex 24.5 15.0981 13
    endloop
  endfacet
  facet normal -0.382701 0.923872 0
    outer loop
      vertex 24.5 9.90192 13
      vertex 23.7765 9.60222 14
      vertex 24.5 9.90192 14
    endloop
  endfacet
  facet normal -0.382701 0.923872 0
    outer loop
      vertex 23.7765 9.60222 14
      vertex 24.5 9.90192 13
      vertex 23.7765 9.60222 13
    endloop
  endfacet
  facet normal -0.99145 0.130491 0
    outer loop
      vertex 25.8978 11.7235 13
      vertex 26 12.5 14
      vertex 26 12.5 13
    endloop
  endfacet
  facet normal -0.99145 0.130491 0
    outer loop
      vertex 26 12.5 14
      vertex 25.8978 11.7235 13
      vertex 25.8978 11.7235 14
    endloop
  endfacet
  facet normal 0 0 -1
    outer loop
      vertex 25.8978 11.7235 14
      vertex 25.8978 13.2765 14
      vertex 26 12.5 14
    endloop
  endfacet
  facet normal 0 0 -1
    outer loop
      vertex 25.5981 11 14
      vertex 25.8978 13.2765 14
      vertex 25.8978 11.7235 14
    endloop
  endfacet
  facet normal 0 0 -1
    outer loop
      vertex 25.5981 11 14
      vertex 25.5981 14 14
      vertex 25.8978 13.2765 14
    endloop
  endfacet
  facet normal 0 0 -1
    outer loop
      vertex 25.1213 10.3787 14
      vertex 25.5981 14 14
      vertex 25.5981 11 14
    endloop
  endfacet
  facet normal 0 0 -1
    outer loop
      vertex 25.1213 10.3787 14
      vertex 25.1213 14.6213 14
      vertex 25.5981 14 14
    endloop
  endfacet
  facet normal 0 0 -1
    outer loop
      vertex 24.5 9.90192 14
      vertex 25.1213 14.6213 14
      vertex 25.1213 10.3787 14
    endloop
  endfacet
  facet normal 0 0 -1
    outer loop
      vertex 24.5 9.90192 14
      vertex 24.5 15.0981 14
      vertex 25.1213 14.6213 14
    endloop
  endfacet
  facet normal 0 0 -1
    outer loop
      vertex 23.7765 9.60222 14
      vertex 24.5 15.0981 14
      vertex 24.5 9.90192 14
    endloop
  endfacet
  facet normal 0 0 -1
    outer loop
      vertex 23.7765 9.60222 14
      vertex 23.7765 15.3978 14
      vertex 24.5 15.0981 14
    endloop
  endfacet
  facet normal 0 0 -1
    outer loop
      vertex 23 9.5 14
      vertex 23.7765 15.3978 14
      vertex 23.7765 9.60222 14
    endloop
  endfacet
  facet normal 0 0 -1
    outer loop
      vertex 23 9.5 14
      vertex 23 15.5 14
      vertex 23.7765 15.3978 14
    endloop
  endfacet
  facet normal 0 0 -1
    outer loop
      vertex 22.2235 9.60222 14
      vertex 23 15.5 14
      vertex 23 9.5 14
    endloop
  endfacet
  facet normal 0 0 -1
    outer loop
      vertex 22.2235 9.60222 14
      vertex 22.2235 15.3978 14
      vertex 23 15.5 14
    endloop
  endfacet
  facet normal 0 0 -1
    outer loop
      vertex 21.5 9.90192 14
      vertex 22.2235 15.3978 14
      vertex 22.2235 9.60222 14
    endloop
  endfacet
  facet normal 0 0 -1
    outer loop
      vertex 21.5 9.90192 14
      vertex 21.5 15.0981 14
      vertex 22.2235 15.3978 14
    endloop
  endfacet
  facet normal 0 0 -1
    outer loop
      vertex 20.8787 10.3787 14
      vertex 21.5 15.0981 14
      vertex 21.5 9.90192 14
    endloop
  endfacet
  facet normal 0 0 -1
    outer loop
      vertex 20.8787 10.3787 14
      vertex 20.8787 14.6213 14
      vertex 21.5 15.0981 14
    endloop
  endfacet
  facet normal 0 0 -1
    outer loop
      vertex 20.4019 11 14
      vertex 20.8787 14.6213 14
      vertex 20.8787 10.3787 14
    endloop
  endfacet
  facet normal 0 0 -1
    outer loop
      vertex 20.4019 11 14
      vertex 20.4019 14 14
      vertex 20.8787 14.6213 14
    endloop
  endfacet
  facet normal 0 0 -1
    outer loop
      vertex 20.1022 11.7235 14
      vertex 20.4019 14 14
      vertex 20.4019 11 14
    endloop
  endfacet
  facet normal 0 0 -1
    outer loop
      vertex 20.1022 11.7235 14
      vertex 20.1022 13.2765 14
      vertex 20.4019 14 14
    endloop
  endfacet
  facet normal 0 -0 -1
    outer loop
      vertex 20.1022 13.2765 14
      vertex 20.1022 11.7235 14
      vertex 20 12.5 14
    endloop
  endfacet
  facet normal 0.382701 -0.923872 0
    outer loop
      vertex 21.5 15.0981 13
      vertex 22.2235 15.3978 14
      vertex 21.5 15.0981 14
    endloop
  endfacet
  facet normal 0.382701 -0.923872 0
    outer loop
      vertex 22.2235 15.3978 14
      vertex 21.5 15.0981 13
      vertex 22.2235 15.3978 13
    endloop
  endfacet
  facet normal 0.923872 -0.382701 0
    outer loop
      vertex 20.1022 13.2765 14
      vertex 20.4019 14 13
      vertex 20.4019 14 14
    endloop
  endfacet
  facet normal 0.923872 -0.382701 0
    outer loop
      vertex 20.4019 14 13
      vertex 20.1022 13.2765 14
      vertex 20.1022 13.2765 13
    endloop
  endfacet
  facet normal -0.793316 0.608809 0
    outer loop
      vertex 25.1213 10.3787 13
      vertex 25.5981 11 14
      vertex 25.5981 11 13
    endloop
  endfacet
  facet normal -0.793316 0.608809 0
    outer loop
      vertex 25.5981 11 14
      vertex 25.1213 10.3787 13
      vertex 25.1213 10.3787 14
    endloop
  endfacet
  facet normal 0.608793 0.793329 -0
    outer loop
      vertex 21.5 9.90192 13
      vertex 20.8787 10.3787 14
      vertex 21.5 9.90192 14
    endloop
  endfacet
  facet normal 0.608793 0.793329 0
    outer loop
      vertex 20.8787 10.3787 14
      vertex 21.5 9.90192 13
      vertex 20.8787 10.3787 13
    endloop
  endfacet
  facet normal 0.99145 0.130491 0
    outer loop
      vertex 20.1022 11.7235 14
      vertex 20 12.5 13
      vertex 20 12.5 14
    endloop
  endfacet
  facet normal 0.99145 0.130491 0
    outer loop
      vertex 20 12.5 13
      vertex 20.1022 11.7235 14
      vertex 20.1022 11.7235 13
    endloop
  endfacet
  facet normal 0.793316 0.608809 0
    outer loop
      vertex 20.8787 10.3787 14
      vertex 20.4019 11 13
      vertex 20.4019 11 14
    endloop
  endfacet
  facet normal 0.793316 0.608809 0
    outer loop
      vertex 20.4019 11 13
      vertex 20.8787 10.3787 14
      vertex 20.8787 10.3787 13
    endloop
  endfacet
  facet normal -0.608809 -0.793316 0
    outer loop
      vertex 24.5 15.0981 13
      vertex 25.1213 14.6213 14
      vertex 24.5 15.0981 14
    endloop
  endfacet
  facet normal -0.608809 -0.793316 -0
    outer loop
      vertex 25.1213 14.6213 14
      vertex 24.5 15.0981 13
      vertex 25.1213 14.6213 13
    endloop
  endfacet
  facet normal -0.130491 -0.99145 0
    outer loop
      vertex 23 15.5 13
      vertex 23.7765 15.3978 14
      vertex 23 15.5 14
    endloop
  endfacet
  facet normal -0.130491 -0.99145 -0
    outer loop
      vertex 23.7765 15.3978 14
      vertex 23 15.5 13
      vertex 23.7765 15.3978 13
    endloop
  endfacet
  facet normal 0.382701 0.923872 -0
    outer loop
      vertex 22.2235 9.60222 13
      vertex 21.5 9.90192 14
      vertex 22.2235 9.60222 14
    endloop
  endfacet
  facet normal 0.382701 0.923872 0
    outer loop
      vertex 21.5 9.90192 14
      vertex 22.2235 9.60222 13
      vertex 21.5 9.90192 13
    endloop
  endfacet
  facet normal 0.130516 0.991446 -0
    outer loop
      vertex 23 9.5 13
      vertex 22.2235 9.60222 14
      vertex 23 9.5 14
    endloop
  endfacet
  facet normal 0.130516 0.991446 0
    outer loop
      vertex 22.2235 9.60222 14
      vertex 23 9.5 13
      vertex 22.2235 9.60222 13
    endloop
  endfacet
  facet normal 0.99145 -0.130491 0
    outer loop
      vertex 20 12.5 14
      vertex 20.1022 13.2765 13
      vertex 20.1022 13.2765 14
    endloop
  endfacet
  facet normal 0.99145 -0.130491 0
    outer loop
      vertex 20.1022 13.2765 13
      vertex 20 12.5 14
      vertex 20 12.5 13
    endloop
  endfacet
  facet normal -0.130491 0.99145 0
    outer loop
      vertex 23.7765 23.6022 13
      vertex 23 23.5 14
      vertex 23.7765 23.6022 14
    endloop
  endfacet
  facet normal -0.130491 0.99145 0
    outer loop
      vertex 23 23.5 14
      vertex 23.7765 23.6022 13
      vertex 23 23.5 13
    endloop
  endfacet
  facet normal -0.923872 -0.382701 0
    outer loop
      vertex 25.8978 27.2765 13
      vertex 25.5981 28 14
      vertex 25.5981 28 13
    endloop
  endfacet
  facet normal -0.923872 -0.382701 0
    outer loop
      vertex 25.5981 28 14
      vertex 25.8978 27.2765 13
      vertex 25.8978 27.2765 14
    endloop
  endfacet
  facet normal -0.99145 -0.130491 0
    outer loop
      vertex 26 26.5 13
      vertex 25.8978 27.2765 14
      vertex 25.8978 27.2765 13
    endloop
  endfacet
  facet normal -0.99145 -0.130491 0
    outer loop
      vertex 25.8978 27.2765 14
      vertex 26 26.5 13
      vertex 26 26.5 14
    endloop
  endfacet
  facet normal 0.923872 0.382701 0
    outer loop
      vertex 20.4019 25 14
      vertex 20.1022 25.7235 13
      vertex 20.1022 25.7235 14
    endloop
  endfacet
  facet normal 0.923872 0.382701 0
    outer loop
      vertex 20.1022 25.7235 13
      vertex 20.4019 25 14
      vertex 20.4019 25 13
    endloop
  endfacet
  facet normal 0.130491 -0.99145 0
    outer loop
      vertex 22.2235 29.3978 13
      vertex 23 29.5 14
      vertex 22.2235 29.3978 14
    endloop
  endfacet
  facet normal 0.130491 -0.99145 0
    outer loop
      vertex 23 29.5 14
      vertex 22.2235 29.3978 13
      vertex 23 29.5 13
    endloop
  endfacet
  facet normal 0.793316 -0.608809 0
    outer loop
      vertex 20.4019 28 14
      vertex 20.8787 28.6213 13
      vertex 20.8787 28.6213 14
    endloop
  endfacet
  facet normal 0.793316 -0.608809 0
    outer loop
      vertex 20.8787 28.6213 13
      vertex 20.4019 28 14
      vertex 20.4019 28 13
    endloop
  endfacet
  facet normal 0.608809 -0.793316 0
    outer loop
      vertex 20.8787 28.6213 13
      vertex 21.5 29.0981 14
      vertex 20.8787 28.6213 14
    endloop
  endfacet
  facet normal 0.608809 -0.793316 0
    outer loop
      vertex 21.5 29.0981 14
      vertex 20.8787 28.6213 13
      vertex 21.5 29.0981 13
    endloop
  endfacet
  facet normal -0.793316 -0.608809 0
    outer loop
      vertex 25.5981 28 13
      vertex 25.1213 28.6213 14
      vertex 25.1213 28.6213 13
    endloop
  endfacet
  facet normal -0.793316 -0.608809 0
    outer loop
      vertex 25.1213 28.6213 14
      vertex 25.5981 28 13
      vertex 25.5981 28 14
    endloop
  endfacet
  facet normal -0.923872 0.382701 0
    outer loop
      vertex 25.5981 25 13
      vertex 25.8978 25.7235 14
      vertex 25.8978 25.7235 13
    endloop
  endfacet
  facet normal -0.923872 0.382701 0
    outer loop
      vertex 25.8978 25.7235 14
      vertex 25.5981 25 13
      vertex 25.5981 25 14
    endloop
  endfacet
  facet normal -0.608809 0.793316 0
    outer loop
      vertex 25.1213 24.3787 13
      vertex 24.5 23.9019 14
      vertex 25.1213 24.3787 14
    endloop
  endfacet
  facet normal -0.608809 0.793316 0
    outer loop
      vertex 24.5 23.9019 14
      vertex 25.1213 24.3787 13
      vertex 24.5 23.9019 13
    endloop
  endfacet
  facet normal -0.382701 -0.923872 0
    outer loop
      vertex 23.7765 29.3978 13
      vertex 24.5 29.0981 14
      vertex 23.7765 29.3978 14
    endloop
  endfacet
  facet normal -0.382701 -0.923872 -0
    outer loop
      vertex 24.5 29.0981 14
      vertex 23.7765 29.3978 13
      vertex 24.5 29.0981 13
    endloop
  endfacet
  facet normal -0.382701 0.923872 0
    outer loop
      vertex 24.5 23.9019 13
      vertex 23.7765 23.6022 14
      vertex 24.5 23.9019 14
    endloop
  endfacet
  facet normal -0.382701 0.923872 0
    outer loop
      vertex 23.7765 23.6022 14
      vertex 24.5 23.9019 13
      vertex 23.7765 23.6022 13
    endloop
  endfacet
  facet normal -0.99145 0.130491 0
    outer loop
      vertex 25.8978 25.7235 13
      vertex 26 26.5 14
      vertex 26 26.5 13
    endloop
  endfacet
  facet normal -0.99145 0.130491 0
    outer loop
      vertex 26 26.5 14
      vertex 25.8978 25.7235 13
      vertex 25.8978 25.7235 14
    endloop
  endfacet
  facet normal 0 0 -1
    outer loop
      vertex 25.8978 25.7235 14
      vertex 25.8978 27.2765 14
      vertex 26 26.5 14
    endloop
  endfacet
  facet normal 0 0 -1
    outer loop
      vertex 25.5981 25 14
      vertex 25.8978 27.2765 14
      vertex 25.8978 25.7235 14
    endloop
  endfacet
  facet normal 0 0 -1
    outer loop
      vertex 25.5981 25 14
      vertex 25.5981 28 14
      vertex 25.8978 27.2765 14
    endloop
  endfacet
  facet normal 0 0 -1
    outer loop
      vertex 25.1213 24.3787 14
      vertex 25.5981 28 14
      vertex 25.5981 25 14
    endloop
  endfacet
  facet normal 0 0 -1
    outer loop
      vertex 25.1213 24.3787 14
      vertex 25.1213 28.6213 14
      vertex 25.5981 28 14
    endloop
  endfacet
  facet normal 0 0 -1
    outer loop
      vertex 24.5 23.9019 14
      vertex 25.1213 28.6213 14
      vertex 25.1213 24.3787 14
    endloop
  endfacet
  facet normal 0 0 -1
    outer loop
      vertex 24.5 23.9019 14
      vertex 24.5 29.0981 14
      vertex 25.1213 28.6213 14
    endloop
  endfacet
  facet normal 0 0 -1
    outer loop
      vertex 23.7765 23.6022 14
      vertex 24.5 29.0981 14
      vertex 24.5 23.9019 14
    endloop
  endfacet
  facet normal 0 0 -1
    outer loop
      vertex 23.7765 23.6022 14
      vertex 23.7765 29.3978 14
      vertex 24.5 29.0981 14
    endloop
  endfacet
  facet normal 0 0 -1
    outer loop
      vertex 23 23.5 14
      vertex 23.7765 29.3978 14
      vertex 23.7765 23.6022 14
    endloop
  endfacet
  facet normal 0 0 -1
    outer loop
      vertex 23 23.5 14
      vertex 23 29.5 14
      vertex 23.7765 29.3978 14
    endloop
  endfacet
  facet normal 0 0 -1
    outer loop
      vertex 22.2235 23.6022 14
      vertex 23 29.5 14
      vertex 23 23.5 14
    endloop
  endfacet
  facet normal 0 0 -1
    outer loop
      vertex 22.2235 23.6022 14
      vertex 22.2235 29.3978 14
      vertex 23 29.5 14
    endloop
  endfacet
  facet normal 0 0 -1
    outer loop
      vertex 21.5 23.9019 14
      vertex 22.2235 29.3978 14
      vertex 22.2235 23.6022 14
    endloop
  endfacet
  facet normal 0 0 -1
    outer loop
      vertex 21.5 23.9019 14
      vertex 21.5 29.0981 14
      vertex 22.2235 29.3978 14
    endloop
  endfacet
  facet normal 0 0 -1
    outer loop
      vertex 20.8787 24.3787 14
      vertex 21.5 29.0981 14
      vertex 21.5 23.9019 14
    endloop
  endfacet
  facet normal 0 0 -1
    outer loop
      vertex 20.8787 24.3787 14
      vertex 20.8787 28.6213 14
      vertex 21.5 29.0981 14
    endloop
  endfacet
  facet normal 0 0 -1
    outer loop
      vertex 20.4019 25 14
      vertex 20.8787 28.6213 14
      vertex 20.8787 24.3787 14
    endloop
  endfacet
  facet normal 0 0 -1
    outer loop
      vertex 20.4019 25 14
      vertex 20.4019 28 14
      vertex 20.8787 28.6213 14
    endloop
  endfacet
  facet normal 0 0 -1
    outer loop
      vertex 20.1022 25.7235 14
      vertex 20.4019 28 14
      vertex 20.4019 25 14
    endloop
  endfacet
  facet normal 0 0 -1
    outer loop
      vertex 20.1022 25.7235 14
      vertex 20.1022 27.2765 14
      vertex 20.4019 28 14
    endloop
  endfacet
  facet normal 0 -0 -1
    outer loop
      vertex 20.1022 27.2765 14
      vertex 20.1022 25.7235 14
      vertex 20 26.5 14
    endloop
  endfacet
  facet normal 0.382701 -0.923872 0
    outer loop
      vertex 21.5 29.0981 13
      vertex 22.2235 29.3978 14
      vertex 21.5 29.0981 14
    endloop
  endfacet
  facet normal 0.382701 -0.923872 0
    outer loop
      vertex 22.2235 29.3978 14
      vertex 21.5 29.0981 13
      vertex 22.2235 29.3978 13
    endloop
  endfacet
  facet normal 0.923872 -0.382701 0
    outer loop
      vertex 20.1022 27.2765 14
      vertex 20.4019 28 13
      vertex 20.4019 28 14
    endloop
  endfacet
  facet normal 0.923872 -0.382701 0
    outer loop
      vertex 20.4019 28 13
      vertex 20.1022 27.2765 14
      vertex 20.1022 27.2765 13
    endloop
  endfacet
  facet normal -0.793316 0.608809 0
    outer loop
      vertex 25.1213 24.3787 13
      vertex 25.5981 25 14
      vertex 25.5981 25 13
    endloop
  endfacet
  facet normal -0.793316 0.608809 0
    outer loop
      vertex 25.5981 25 14
      vertex 25.1213 24.3787 13
      vertex 25.1213 24.3787 14
    endloop
  endfacet
  facet normal 0.608809 0.793316 -0
    outer loop
      vertex 21.5 23.9019 13
      vertex 20.8787 24.3787 14
      vertex 21.5 23.9019 14
    endloop
  endfacet
  facet normal 0.608809 0.793316 0
    outer loop
      vertex 20.8787 24.3787 14
      vertex 21.5 23.9019 13
      vertex 20.8787 24.3787 13
    endloop
  endfacet
  facet normal 0.99145 0.130491 0
    outer loop
      vertex 20.1022 25.7235 14
      vertex 20 26.5 13
      vertex 20 26.5 14
    endloop
  endfacet
  facet normal 0.99145 0.130491 0
    outer loop
      vertex 20 26.5 13
      vertex 20.1022 25.7235 14
      vertex 20.1022 25.7235 13
    endloop
  endfacet
  facet normal 0.793316 0.608809 0
    outer loop
      vertex 20.8787 24.3787 14
      vertex 20.4019 25 13
      vertex 20.4019 25 14
    endloop
  endfacet
  facet normal 0.793316 0.608809 0
    outer loop
      vertex 20.4019 25 13
      vertex 20.8787 24.3787 14
      vertex 20.8787 24.3787 13
    endloop
  endfacet
  facet normal -0.608809 -0.793316 0
    outer loop
      vertex 24.5 29.0981 13
      vertex 25.1213 28.6213 14
      vertex 24.5 29.0981 14
    endloop
  endfacet
  facet normal -0.608809 -0.793316 -0
    outer loop
      vertex 25.1213 28.6213 14
      vertex 24.5 29.0981 13
      vertex 25.1213 28.6213 13
    endloop
  endfacet
  facet normal -0.130491 -0.99145 0
    outer loop
      vertex 23 29.5 13
      vertex 23.7765 29.3978 14
      vertex 23 29.5 14
    endloop
  endfacet
  facet normal -0.130491 -0.99145 -0
    outer loop
      vertex 23.7765 29.3978 14
      vertex 23 29.5 13
      vertex 23.7765 29.3978 13
    endloop
  endfacet
  facet normal 0.382701 0.923872 -0
    outer loop
      vertex 22.2235 23.6022 13
      vertex 21.5 23.9019 14
      vertex 22.2235 23.6022 14
    endloop
  endfacet
  facet normal 0.382701 0.923872 0
    outer loop
      vertex 21.5 23.9019 14
      vertex 22.2235 23.6022 13
      vertex 21.5 23.9019 13
    endloop
  endfacet
  facet normal 0.130491 0.99145 -0
    outer loop
      vertex 23 23.5 13
      vertex 22.2235 23.6022 14
      vertex 23 23.5 14
    endloop
  endfacet
  facet normal 0.130491 0.99145 0
    outer loop
      vertex 22.2235 23.6022 14
      vertex 23 23.5 13
      vertex 22.2235 23.6022 13
    endloop
  endfacet
  facet normal 0.99145 -0.130491 0
    outer loop
      vertex 20 26.5 14
      vertex 20.1022 27.2765 13
      vertex 20.1022 27.2765 14
    endloop
  endfacet
  facet normal 0.99145 -0.130491 0
    outer loop
      vertex 20.1022 27.2765 13
      vertex 20 26.5 14
      vertex 20 26.5 13
    endloop
  endfacet
  facet normal -0.130491 0.99145 0
    outer loop
      vertex 23.7765 16.6022 13
      vertex 23 16.5 14
      vertex 23.7765 16.6022 14
    endloop
  endfacet
  facet normal -0.130491 0.99145 0
    outer loop
      vertex 23 16.5 14
      vertex 23.7765 16.6022 13
      vertex 23 16.5 13
    endloop
  endfacet
  facet normal -0.923872 -0.382701 0
    outer loop
      vertex 25.8978 20.2765 13
      vertex 25.5981 21 14
      vertex 25.5981 21 13
    endloop
  endfacet
  facet normal -0.923872 -0.382701 0
    outer loop
      vertex 25.5981 21 14
      vertex 25.8978 20.2765 13
      vertex 25.8978 20.2765 14
    endloop
  endfacet
  facet normal -0.99145 -0.130491 0
    outer loop
      vertex 26 19.5 13
      vertex 25.8978 20.2765 14
      vertex 25.8978 20.2765 13
    endloop
  endfacet
  facet normal -0.99145 -0.130491 0
    outer loop
      vertex 25.8978 20.2765 14
      vertex 26 19.5 13
      vertex 26 19.5 14
    endloop
  endfacet
  facet normal 0.923872 0.382701 0
    outer loop
      vertex 20.4019 18 14
      vertex 20.1022 18.7235 13
      vertex 20.1022 18.7235 14
    endloop
  endfacet
  facet normal 0.923872 0.382701 0
    outer loop
      vertex 20.1022 18.7235 13
      vertex 20.4019 18 14
      vertex 20.4019 18 13
    endloop
  endfacet
  facet normal 0.130491 -0.99145 0
    outer loop
      vertex 22.2235 22.3978 13
      vertex 23 22.5 14
      vertex 22.2235 22.3978 14
    endloop
  endfacet
  facet normal 0.130491 -0.99145 0
    outer loop
      vertex 23 22.5 14
      vertex 22.2235 22.3978 13
      vertex 23 22.5 13
    endloop
  endfacet
  facet normal 0.793316 -0.608809 0
    outer loop
      vertex 20.4019 21 14
      vertex 20.8787 21.6213 13
      vertex 20.8787 21.6213 14
    endloop
  endfacet
  facet normal 0.793316 -0.608809 0
    outer loop
      vertex 20.8787 21.6213 13
      vertex 20.4019 21 14
      vertex 20.4019 21 13
    endloop
  endfacet
  facet normal 0.608809 -0.793316 0
    outer loop
      vertex 20.8787 21.6213 13
      vertex 21.5 22.0981 14
      vertex 20.8787 21.6213 14
    endloop
  endfacet
  facet normal 0.608809 -0.793316 0
    outer loop
      vertex 21.5 22.0981 14
      vertex 20.8787 21.6213 13
      vertex 21.5 22.0981 13
    endloop
  endfacet
  facet normal -0.793316 -0.608809 0
    outer loop
      vertex 25.5981 21 13
      vertex 25.1213 21.6213 14
      vertex 25.1213 21.6213 13
    endloop
  endfacet
  facet normal -0.793316 -0.608809 0
    outer loop
      vertex 25.1213 21.6213 14
      vertex 25.5981 21 13
      vertex 25.5981 21 14
    endloop
  endfacet
  facet normal -0.923872 0.382701 0
    outer loop
      vertex 25.5981 18 13
      vertex 25.8978 18.7235 14
      vertex 25.8978 18.7235 13
    endloop
  endfacet
  facet normal -0.923872 0.382701 0
    outer loop
      vertex 25.8978 18.7235 14
      vertex 25.5981 18 13
      vertex 25.5981 18 14
    endloop
  endfacet
  facet normal -0.608809 0.793316 0
    outer loop
      vertex 25.1213 17.3787 13
      vertex 24.5 16.9019 14
      vertex 25.1213 17.3787 14
    endloop
  endfacet
  facet normal -0.608809 0.793316 0
    outer loop
      vertex 24.5 16.9019 14
      vertex 25.1213 17.3787 13
      vertex 24.5 16.9019 13
    endloop
  endfacet
  facet normal -0.382701 -0.923872 0
    outer loop
      vertex 23.7765 22.3978 13
      vertex 24.5 22.0981 14
      vertex 23.7765 22.3978 14
    endloop
  endfacet
  facet normal -0.382701 -0.923872 -0
    outer loop
      vertex 24.5 22.0981 14
      vertex 23.7765 22.3978 13
      vertex 24.5 22.0981 13
    endloop
  endfacet
  facet normal -0.382701 0.923872 0
    outer loop
      vertex 24.5 16.9019 13
      vertex 23.7765 16.6022 14
      vertex 24.5 16.9019 14
    endloop
  endfacet
  facet normal -0.382701 0.923872 0
    outer loop
      vertex 23.7765 16.6022 14
      vertex 24.5 16.9019 13
      vertex 23.7765 16.6022 13
    endloop
  endfacet
  facet normal -0.99145 0.130491 0
    outer loop
      vertex 25.8978 18.7235 13
      vertex 26 19.5 14
      vertex 26 19.5 13
    endloop
  endfacet
  facet normal -0.99145 0.130491 0
    outer loop
      vertex 26 19.5 14
      vertex 25.8978 18.7235 13
      vertex 25.8978 18.7235 14
    endloop
  endfacet
  facet normal 0 0 -1
    outer loop
      vertex 25.8978 18.7235 14
      vertex 25.8978 20.2765 14
      vertex 26 19.5 14
    endloop
  endfacet
  facet normal 0 0 -1
    outer loop
      vertex 25.5981 18 14
      vertex 25.8978 20.2765 14
      vertex 25.8978 18.7235 14
    endloop
  endfacet
  facet normal 0 0 -1
    outer loop
      vertex 25.5981 18 14
      vertex 25.5981 21 14
      vertex 25.8978 20.2765 14
    endloop
  endfacet
  facet normal 0 0 -1
    outer loop
      vertex 25.1213 17.3787 14
      vertex 25.5981 21 14
      vertex 25.5981 18 14
    endloop
  endfacet
  facet normal 0 0 -1
    outer loop
      vertex 25.1213 17.3787 14
      vertex 25.1213 21.6213 14
      vertex 25.5981 21 14
    endloop
  endfacet
  facet normal 0 0 -1
    outer loop
      vertex 24.5 16.9019 14
      vertex 25.1213 21.6213 14
      vertex 25.1213 17.3787 14
    endloop
  endfacet
  facet normal 0 0 -1
    outer loop
      vertex 24.5 16.9019 14
      vertex 24.5 22.0981 14
      vertex 25.1213 21.6213 14
    endloop
  endfacet
  facet normal 0 0 -1
    outer loop
      vertex 23.7765 16.6022 14
      vertex 24.5 22.0981 14
      vertex 24.5 16.9019 14
    endloop
  endfacet
  facet normal 0 0 -1
    outer loop
      vertex 23.7765 16.6022 14
      vertex 23.7765 22.3978 14
      vertex 24.5 22.0981 14
    endloop
  endfacet
  facet normal 0 0 -1
    outer loop
      vertex 23 16.5 14
      vertex 23.7765 22.3978 14
      vertex 23.7765 16.6022 14
    endloop
  endfacet
  facet normal 0 0 -1
    outer loop
      vertex 23 16.5 14
      vertex 23 22.5 14
      vertex 23.7765 22.3978 14
    endloop
  endfacet
  facet normal 0 0 -1
    outer loop
      vertex 22.2235 16.6022 14
      vertex 23 22.5 14
      vertex 23 16.5 14
    endloop
  endfacet
  facet normal 0 0 -1
    outer loop
      vertex 22.2235 16.6022 14
      vertex 22.2235 22.3978 14
      vertex 23 22.5 14
    endloop
  endfacet
  facet normal 0 0 -1
    outer loop
      vertex 21.5 16.9019 14
      vertex 22.2235 22.3978 14
      vertex 22.2235 16.6022 14
    endloop
  endfacet
  facet normal 0 0 -1
    outer loop
      vertex 21.5 16.9019 14
      vertex 21.5 22.0981 14
      vertex 22.2235 22.3978 14
    endloop
  endfacet
  facet normal 0 0 -1
    outer loop
      vertex 20.8787 17.3787 14
      vertex 21.5 22.0981 14
      vertex 21.5 16.9019 14
    endloop
  endfacet
  facet normal 0 0 -1
    outer loop
      vertex 20.8787 17.3787 14
      vertex 20.8787 21.6213 14
      vertex 21.5 22.0981 14
    endloop
  endfacet
  facet normal 0 0 -1
    outer loop
      vertex 20.4019 18 14
      vertex 20.8787 21.6213 14
      vertex 20.8787 17.3787 14
    endloop
  endfacet
  facet normal 0 0 -1
    outer loop
      vertex 20.4019 18 14
      vertex 20.4019 21 14
      vertex 20.8787 21.6213 14
    endloop
  endfacet
  facet normal 0 0 -1
    outer loop
      vertex 20.1022 18.7235 14
      vertex 20.4019 21 14
      vertex 20.4019 18 14
    endloop
  endfacet
  facet normal 0 0 -1
    outer loop
      vertex 20.1022 18.7235 14
      vertex 20.1022 20.2765 14
      vertex 20.4019 21 14
    endloop
  endfacet
  facet normal 0 -0 -1
    outer loop
      vertex 20.1022 20.2765 14
      vertex 20.1022 18.7235 14
      vertex 20 19.5 14
    endloop
  endfacet
  facet normal 0.382701 -0.923872 0
    outer loop
      vertex 21.5 22.0981 13
      vertex 22.2235 22.3978 14
      vertex 21.5 22.0981 14
    endloop
  endfacet
  facet normal 0.382701 -0.923872 0
    outer loop
      vertex 22.2235 22.3978 14
      vertex 21.5 22.0981 13
      vertex 22.2235 22.3978 13
    endloop
  endfacet
  facet normal 0.923872 -0.382701 0
    outer loop
      vertex 20.1022 20.2765 14
      vertex 20.4019 21 13
      vertex 20.4019 21 14
    endloop
  endfacet
  facet normal 0.923872 -0.382701 0
    outer loop
      vertex 20.4019 21 13
      vertex 20.1022 20.2765 14
      vertex 20.1022 20.2765 13
    endloop
  endfacet
  facet normal -0.793316 0.608809 0
    outer loop
      vertex 25.1213 17.3787 13
      vertex 25.5981 18 14
      vertex 25.5981 18 13
    endloop
  endfacet
  facet normal -0.793316 0.608809 0
    outer loop
      vertex 25.5981 18 14
      vertex 25.1213 17.3787 13
      vertex 25.1213 17.3787 14
    endloop
  endfacet
  facet normal 0.608809 0.793316 -0
    outer loop
      vertex 21.5 16.9019 13
      vertex 20.8787 17.3787 14
      vertex 21.5 16.9019 14
    endloop
  endfacet
  facet normal 0.608809 0.793316 0
    outer loop
      vertex 20.8787 17.3787 14
      vertex 21.5 16.9019 13
      vertex 20.8787 17.3787 13
    endloop
  endfacet
  facet normal 0.99145 0.130491 0
    outer loop
      vertex 20.1022 18.7235 14
      vertex 20 19.5 13
      vertex 20 19.5 14
    endloop
  endfacet
  facet normal 0.99145 0.130491 0
    outer loop
      vertex 20 19.5 13
      vertex 20.1022 18.7235 14
      vertex 20.1022 18.7235 13
    endloop
  endfacet
  facet normal 0.793316 0.608809 0
    outer loop
      vertex 20.8787 17.3787 14
      vertex 20.4019 18 13
      vertex 20.4019 18 14
    endloop
  endfacet
  facet normal 0.793316 0.608809 0
    outer loop
      vertex 20.4019 18 13
      vertex 20.8787 17.3787 14
      vertex 20.8787 17.3787 13
    endloop
  endfacet
  facet normal -0.608809 -0.793316 0
    outer loop
      vertex 24.5 22.0981 13
      vertex 25.1213 21.6213 14
      vertex 24.5 22.0981 14
    endloop
  endfacet
  facet normal -0.608809 -0.793316 -0
    outer loop
      vertex 25.1213 21.6213 14
      vertex 24.5 22.0981 13
      vertex 25.1213 21.6213 13
    endloop
  endfacet
  facet normal -0.130491 -0.99145 0
    outer loop
      vertex 23 22.5 13
      vertex 23.7765 22.3978 14
      vertex 23 22.5 14
    endloop
  endfacet
  facet normal -0.130491 -0.99145 -0
    outer loop
      vertex 23.7765 22.3978 14
      vertex 23 22.5 13
      vertex 23.7765 22.3978 13
    endloop
  endfacet
  facet normal 0.382701 0.923872 -0
    outer loop
      vertex 22.2235 16.6022 13
      vertex 21.5 16.9019 14
      vertex 22.2235 16.6022 14
    endloop
  endfacet
  facet normal 0.382701 0.923872 0
    outer loop
      vertex 21.5 16.9019 14
      vertex 22.2235 16.6022 13
      vertex 21.5 16.9019 13
    endloop
  endfacet
  facet normal 0.130491 0.99145 -0
    outer loop
      vertex 23 16.5 13
      vertex 22.2235 16.6022 14
      vertex 23 16.5 14
    endloop
  endfacet
  facet normal 0.130491 0.99145 0
    outer loop
      vertex 22.2235 16.6022 14
      vertex 23 16.5 13
      vertex 22.2235 16.6022 13
    endloop
  endfacet
  facet normal 0.99145 -0.130491 0
    outer loop
      vertex 20 19.5 14
      vertex 20.1022 20.2765 13
      vertex 20.1022 20.2765 14
    endloop
  endfacet
  facet normal 0.99145 -0.130491 0
    outer loop
      vertex 20.1022 20.2765 13
      vertex 20 19.5 14
      vertex 20 19.5 13
    endloop
  endfacet
  facet normal -1 0 0
    outer loop
      vertex 3 12.5 2
      vertex 3 20.5 5
      vertex 3 20.5 2
    endloop
  endfacet
  facet normal -1 -0 0
    outer loop
      vertex 3 20.5 5
      vertex 3 12.5 2
      vertex 3 12.5 5
    endloop
  endfacet
  facet normal 0 0 -1
    outer loop
      vertex -1 12.5 5
      vertex 3 20.5 5
      vertex 3 12.5 5
    endloop
  endfacet
  facet normal -0 0 -1
    outer loop
      vertex 3 20.5 5
      vertex -1 12.5 5
      vertex -1 20.5 5
    endloop
  endfacet
  facet normal -0 0 1
    outer loop
      vertex -1 20.5 2
      vertex 3 12.5 2
      vertex 3 20.5 2
    endloop
  endfacet
  facet normal 0 0 1
    outer loop
      vertex 3 12.5 2
      vertex -1 20.5 2
      vertex -1 12.5 2
    endloop
  endfacet
  facet normal 1 -0 0
    outer loop
      vertex -1 12.5 5
      vertex -1 20.5 2
      vertex -1 20.5 5
    endloop
  endfacet
  facet normal 1 0 0
    outer loop
      vertex -1 20.5 2
      vertex -1 12.5 5
      vertex -1 12.5 2
    endloop
  endfacet
  facet normal 0 -1 0
    outer loop
      vertex -1 20.5 2
      vertex 3 20.5 5
      vertex -1 20.5 5
    endloop
  endfacet
  facet normal 0 -1 -0
    outer loop
      vertex 3 20.5 5
      vertex -1 20.5 2
      vertex 3 20.5 2
    endloop
  endfacet
  facet normal 0 1 -0
    outer loop
      vertex 3 12.5 2
      vertex -1 12.5 5
      vertex 3 12.5 5
    endloop
  endfacet
  facet normal 0 1 0
    outer loop
      vertex -1 12.5 5
      vertex 3 12.5 2
      vertex -1 12.5 2
    endloop
  endfacet
  facet normal -1 0 0
    outer loop
      vertex 3 26.5 2
      vertex 3 34.5 5
      vertex 3 34.5 2
    endloop
  endfacet
  facet normal -1 -0 0
    outer loop
      vertex 3 34.5 5
      vertex 3 26.5 2
      vertex 3 26.5 5
    endloop
  endfacet
  facet normal 0 0 -1
    outer loop
      vertex -1 26.5 5
      vertex 3 34.5 5
      vertex 3 26.5 5
    endloop
  endfacet
  facet normal -0 0 -1
    outer loop
      vertex 3 34.5 5
      vertex -1 26.5 5
      vertex -1 34.5 5
    endloop
  endfacet
  facet normal -0 0 1
    outer loop
      vertex -1 34.5 2
      vertex 3 26.5 2
      vertex 3 34.5 2
    endloop
  endfacet
  facet normal 0 0 1
    outer loop
      vertex 3 26.5 2
      vertex -1 34.5 2
      vertex -1 26.5 2
    endloop
  endfacet
  facet normal 1 -0 0
    outer loop
      vertex -1 26.5 5
      vertex -1 34.5 2
      vertex -1 34.5 5
    endloop
  endfacet
  facet normal 1 0 0
    outer loop
      vertex -1 34.5 2
      vertex -1 26.5 5
      vertex -1 26.5 2
    endloop
  endfacet
  facet normal 0 -1 0
    outer loop
      vertex -1 34.5 2
      vertex 3 34.5 5
      vertex -1 34.5 5
    endloop
  endfacet
  facet normal 0 -1 -0
    outer loop
      vertex 3 34.5 5
      vertex -1 34.5 2
      vertex 3 34.5 2
    endloop
  endfacet
  facet normal 0 1 -0
    outer loop
      vertex 3 26.5 2
      vertex -1 26.5 5
      vertex 3 26.5 5
    endloop
  endfacet
  facet normal 0 1 0
    outer loop
      vertex -1 26.5 5
      vertex 3 26.5 2
      vertex -1 26.5 2
    endloop
  endfacet
  facet normal -0 0 1
    outer loop
      vertex 1 11.5 8
      vertex 2 9.5 8
      vertex 2 11.5 8
    endloop
  endfacet
  facet normal 0 0 1
    outer loop
      vertex 2 9.5 8
      vertex 1 11.5 8
      vertex 1 9.5 8
    endloop
  endfacet
  facet normal 1 -0 0
    outer loop
      vertex 1 9.5 9
      vertex 1 11.5 8
      vertex 1 11.5 9
    endloop
  endfacet
  facet normal 1 0 0
    outer loop
      vertex 1 11.5 8
      vertex 1 9.5 9
      vertex 1 9.5 8
    endloop
  endfacet
  facet normal 0 -1 0
    outer loop
      vertex 1 11.5 8
      vertex 2 11.5 9
      vertex 1 11.5 9
    endloop
  endfacet
  facet normal 0 -1 -0
    outer loop
      vertex 2 11.5 9
      vertex 1 11.5 8
      vertex 2 11.5 8
    endloop
  endfacet
  facet normal 0 1 -0
    outer loop
      vertex 2 9.5 8
      vertex 1 9.5 9
      vertex 2 9.5 9
    endloop
  endfacet
  facet normal 0 1 0
    outer loop
      vertex 1 9.5 9
      vertex 2 9.5 8
      vertex 1 9.5 8
    endloop
  endfacet
  facet normal -0 0 1
    outer loop
      vertex 1 26.5 8
      vertex 2 24.5 8
      vertex 2 26.5 8
    endloop
  endfacet
  facet normal 0 0 1
    outer loop
      vertex 2 24.5 8
      vertex 1 26.5 8
      vertex 1 24.5 8
    endloop
  endfacet
  facet normal 1 -0 0
    outer loop
      vertex 1 24.5 9
      vertex 1 26.5 8
      vertex 1 26.5 9
    endloop
  endfacet
  facet normal 1 0 0
    outer loop
      vertex 1 26.5 8
      vertex 1 24.5 9
      vertex 1 24.5 8
    endloop
  endfacet
  facet normal 0 -1 0
    outer loop
      vertex 1 26.5 8
      vertex 2 26.5 9
      vertex 1 26.5 9
    endloop
  endfacet
  facet normal 0 -1 -0
    outer loop
      vertex 2 26.5 9
      vertex 1 26.5 8
      vertex 2 26.5 8
    endloop
  endfacet
  facet normal 0.706955 0.707259 0
    outer loop
      vertex 26.7678 36.7678 6
      vertex 26.7678 36.7678 0
      vertex 26.5355 37 6
    endloop
  endfacet
  facet normal 0.706955 0.707259 0
    outer loop
      vertex 26.5355 37 13
      vertex 26.7678 36.7678 18
      vertex 26.7678 36.7678 13
    endloop
  endfacet
  facet normal 0.707087 0.707127 -1.22841e-05
    outer loop
      vertex 26.7678 36.7678 18
      vertex 26.5355 37 13
      vertex 25 38.5355 18
    endloop
  endfacet
  facet normal 0.707107 0.707107 -0
    outer loop
      vertex 26.5355 37 6
      vertex 25 38.5355 18
      vertex 26.5355 37 13
    endloop
  endfacet
  facet normal 0.707087 0.707127 1.02368e-05
    outer loop
      vertex 25 38.5355 0
      vertex 26.5355 37 6
      vertex 26.7678 36.7678 0
    endloop
  endfacet
  facet normal 0.707107 0.707107 0
    outer loop
      vertex 26.5355 37 6
      vertex 25 38.5355 0
      vertex 25 38.5355 18
    endloop
  endfacet
  facet normal 0 1 -0
    outer loop
      vertex 25 38.5355 0
      vertex 0 38.5355 18
      vertex 25 38.5355 18
    endloop
  endfacet
  facet normal 0 1 0
    outer loop
      vertex 0 38.5355 18
      vertex 25 38.5355 0
      vertex 0 38.5355 0
    endloop
  endfacet
  facet normal 1 0 0
    outer loop
      vertex 26.7678 36.7678 18
      vertex 26.7678 2 13
      vertex 26.7678 36.7678 13
    endloop
  endfacet
  facet normal 1 0 0
    outer loop
      vertex 26.7678 2 13
      vertex 26.7678 1.76777 18
      vertex 26.7678 2 6
    endloop
  endfacet
  facet normal 1 -0 0
    outer loop
      vertex 26.7678 1.76777 18
      vertex 26.7678 2 13
      vertex 26.7678 36.7678 18
    endloop
  endfacet
  facet normal 1 -0 0
    outer loop
      vertex 26.7678 2 6
      vertex 26.7678 36.7678 0
      vertex 26.7678 36.7678 6
    endloop
  endfacet
  facet normal 1 0 0
    outer loop
      vertex 26.7678 2 6
      vertex 26.7678 1.76777 0
      vertex 26.7678 36.7678 0
    endloop
  endfacet
  facet normal 1 0 0
    outer loop
      vertex 26.7678 1.76777 0
      vertex 26.7678 2 6
      vertex 26.7678 1.76777 18
    endloop
  endfacet
  facet normal -1 0 0
    outer loop
      vertex -1.76777 1.76777 0
      vertex -1.76777 36.7678 18
      vertex -1.76777 36.7678 0
    endloop
  endfacet
  facet normal -1 -0 0
    outer loop
      vertex -1.76777 36.7678 18
      vertex -1.76777 1.76777 0
      vertex -1.76777 1.76777 18
    endloop
  endfacet
  facet normal -0.707107 -0.707107 0
    outer loop
      vertex 0 0 0
      vertex -1.76777 1.76777 18
      vertex -1.76777 1.76777 0
    endloop
  endfacet
  facet normal -0.707107 -0.707107 0
    outer loop
      vertex -1.76777 1.76777 18
      vertex 0 0 0
      vertex 0 0 18
    endloop
  endfacet
  facet normal 0 0 1
    outer loop
      vertex -1.76777 36.7678 18
      vertex 26.7678 36.7678 18
      vertex 25 38.5355 18
    endloop
  endfacet
  facet normal 0 0 1
    outer loop
      vertex 26.7678 36.7678 18
      vertex -1.76777 36.7678 18
      vertex 26.7678 1.76777 18
    endloop
  endfacet
  facet normal 0 0 1
    outer loop
      vertex -1.76777 36.7678 18
      vertex 25 38.5355 18
      vertex 0 38.5355 18
    endloop
  endfacet
  facet normal 0 0 1
    outer loop
      vertex -1.76777 1.76777 18
      vertex 26.7678 1.76777 18
      vertex -1.76777 36.7678 18
    endloop
  endfacet
  facet normal 0 0 1
    outer loop
      vertex 26.7678 1.76777 18
      vertex -1.76777 1.76777 18
      vertex 25 0 18
    endloop
  endfacet
  facet normal 0 0 1
    outer loop
      vertex 25 0 18
      vertex -1.76777 1.76777 18
      vertex 0 0 18
    endloop
  endfacet
  facet normal 0 -1 0
    outer loop
      vertex 0 0 0
      vertex 25 0 18
      vertex 0 0 18
    endloop
  endfacet
  facet normal 0 -1 -0
    outer loop
      vertex 25 0 18
      vertex 0 0 0
      vertex 25 0 0
    endloop
  endfacet
  facet normal 0.707101 -0.707113 0
    outer loop
      vertex 25 0 18
      vertex 26.7678 1.76777 0
      vertex 26.7678 1.76777 18
    endloop
  endfacet
  facet normal 0.707101 -0.707113 0
    outer loop
      vertex 26.7678 1.76777 0
      vertex 25 0 18
      vertex 25 0 0
    endloop
  endfacet
  facet normal 0 0 -1
    outer loop
      vertex -1.76777 1.76777 0
      vertex 26.7678 1.76777 0
      vertex 25 0 0
    endloop
  endfacet
  facet normal 0 0 -1
    outer loop
      vertex 26.7678 1.76777 0
      vertex -1.76777 1.76777 0
      vertex 26.7678 36.7678 0
    endloop
  endfacet
  facet normal 0 0 -1
    outer loop
      vertex -1.76777 1.76777 0
      vertex 25 0 0
      vertex 0 0 0
    endloop
  endfacet
  facet normal 0 0 -1
    outer loop
      vertex -1.76777 36.7678 0
      vertex 26.7678 36.7678 0
      vertex -1.76777 1.76777 0
    endloop
  endfacet
  facet normal 0 0 -1
    outer loop
      vertex 26.7678 36.7678 0
      vertex -1.76777 36.7678 0
      vertex 25 38.5355 0
    endloop
  endfacet
  facet normal -0 0 -1
    outer loop
      vertex 25 38.5355 0
      vertex -1.76777 36.7678 0
      vertex 0 38.5355 0
    endloop
  endfacet
  facet normal -0.707093 0.707121 0
    outer loop
      vertex 0 38.5355 0
      vertex -1.76777 36.7678 18
      vertex 0 38.5355 18
    endloop
  endfacet
  facet normal -0.707093 0.707121 0
    outer loop
      vertex -1.76777 36.7678 18
      vertex 0 38.5355 0
      vertex -1.76777 36.7678 0
    endloop
  endfacet
  facet normal 0 1 -0
    outer loop
      vertex 61 38.1213 0
      vertex 35 38.1213 4
      vertex 61 38.1213 4
    endloop
  endfacet
  facet normal 0 1 0
    outer loop
      vertex 35 38.1213 4
      vertex 61 38.1213 0
      vertex 35 38.1213 0
    endloop
  endfacet
  facet normal 1 0 0
    outer loop
      vertex 62.0607 37.0607 4
      vertex 62.0607 33.5 3
      vertex 62.0607 37.0607 0
    endloop
  endfacet
  facet normal 1 0 0
    outer loop
      vertex 62.0607 37.0607 4
      vertex 62.0607 5.5 3
      vertex 62.0607 33.5 3
    endloop
  endfacet
  facet normal 1 -0 0
    outer loop
      vertex 62.0607 1.06066 4
      vertex 62.0607 5.5 3
      vertex 62.0607 37.0607 4
    endloop
  endfacet
  facet normal 1 0 0
    outer loop
      vertex 62.0607 1.06066 0
      vertex 62.0607 5.5 3
      vertex 62.0607 1.06066 4
    endloop
  endfacet
  facet normal 1 0 0
    outer loop
      vertex 62.0607 5.5 3
      vertex 62.0607 1.06066 0
      vertex 62.0607 5.5 0
    endloop
  endfacet
  facet normal 1 0 0
    outer loop
      vertex 62.0607 37.0607 0
      vertex 62.0607 33.5 3
      vertex 62.0607 33.5 0
    endloop
  endfacet
  facet normal -1 0 0
    outer loop
      vertex 33.9393 1.06066 0
      vertex 33.9393 37.0607 4
      vertex 33.9393 37.0607 0
    endloop
  endfacet
  facet normal -1 -0 0
    outer loop
      vertex 33.9393 37.0607 4
      vertex 33.9393 1.06066 0
      vertex 33.9393 1.06066 4
    endloop
  endfacet
  facet normal -0.707093 -0.70712 0
    outer loop
      vertex 33.9393 1.06066 0
      vertex 35 0 4
      vertex 33.9393 1.06066 4
    endloop
  endfacet
  facet normal -0.707093 -0.70712 -0
    outer loop
      vertex 35 0 4
      vertex 33.9393 1.06066 0
      vertex 35 0 0
    endloop
  endfacet
  facet normal 0 0 1
    outer loop
      vertex 33.9393 37.0607 4
      vertex 62.0607 37.0607 4
      vertex 61 38.1213 4
    endloop
  endfacet
  facet normal 0 0 1
    outer loop
      vertex 62.0607 37.0607 4
      vertex 33.9393 37.0607 4
      vertex 62.0607 1.06066 4
    endloop
  endfacet
  facet normal 0 0 1
    outer loop
      vertex 33.9393 37.0607 4
      vertex 61 38.1213 4
      vertex 35 38.1213 4
    endloop
  endfacet
  facet normal 0 0 1
    outer loop
      vertex 33.9393 1.06066 4
      vertex 62.0607 1.06066 4
      vertex 33.9393 37.0607 4
    endloop
  endfacet
  facet normal 0 0 1
    outer loop
      vertex 62.0607 1.06066 4
      vertex 33.9393 1.06066 4
      vertex 61 0 4
    endloop
  endfacet
  facet normal 0 0 1
    outer loop
      vertex 61 0 4
      vertex 33.9393 1.06066 4
      vertex 35 0 4
    endloop
  endfacet
  facet normal 0 -1 0
    outer loop
      vertex 35 0 0
      vertex 61 0 4
      vertex 35 0 4
    endloop
  endfacet
  facet normal 0 -1 -0
    outer loop
      vertex 61 0 4
      vertex 35 0 0
      vertex 61 0 0
    endloop
  endfacet
  facet normal 0.707093 -0.70712 0
    outer loop
      vertex 61 0 0
      vertex 62.0607 1.06066 4
      vertex 61 0 4
    endloop
  endfacet
  facet normal 0.707093 -0.70712 0
    outer loop
      vertex 62.0607 1.06066 4
      vertex 61 0 0
      vertex 62.0607 1.06066 0
    endloop
  endfacet
  facet normal 0.707073 0.70714 -0
    outer loop
      vertex 62.0607 37.0607 0
      vertex 61 38.1213 4
      vertex 62.0607 37.0607 4
    endloop
  endfacet
  facet normal 0.707073 0.70714 0
    outer loop
      vertex 61 38.1213 4
      vertex 62.0607 37.0607 0
      vertex 61 38.1213 0
    endloop
  endfacet
  facet normal 0 0 -1
    outer loop
      vertex 61 0 0
      vertex 62.0607 5.5 0
      vertex 62.0607 1.06066 0
    endloop
  endfacet
  facet normal 0 0 -1
    outer loop
      vertex 61 0 0
      vertex 35.5 5.5 0
      vertex 62.0607 5.5 0
    endloop
  endfacet
  facet normal 0 0 -1
    outer loop
      vertex 33.9393 1.06066 0
      vertex 35.5 5.5 0
      vertex 35 0 0
    endloop
  endfacet
  facet normal 0 0 -1
    outer loop
      vertex 35 0 0
      vertex 35.5 5.5 0
      vertex 61 0 0
    endloop
  endfacet
  facet normal 0 0 -1
    outer loop
      vertex 62.0607 33.5 0
      vertex 61 38.1213 0
      vertex 62.0607 37.0607 0
    endloop
  endfacet
  facet normal 0 0 -1
    outer loop
      vertex 35.5 33.5 0
      vertex 61 38.1213 0
      vertex 62.0607 33.5 0
    endloop
  endfacet
  facet normal 0 0 -1
    outer loop
      vertex 35.5 33.5 0
      vertex 35 38.1213 0
      vertex 61 38.1213 0
    endloop
  endfacet
  facet normal 0 0 -1
    outer loop
      vertex 33.9393 37.0607 0
      vertex 35.5 5.5 0
      vertex 33.9393 1.06066 0
    endloop
  endfacet
  facet normal 0 0 -1
    outer loop
      vertex 35.5 5.5 0
      vertex 33.9393 37.0607 0
      vertex 35.5 33.5 0
    endloop
  endfacet
  facet normal 0 0 -1
    outer loop
      vertex 35.5 33.5 0
      vertex 33.9393 37.0607 0
      vertex 35 38.1213 0
    endloop
  endfacet
  facet normal -0.707073 0.70714 0
    outer loop
      vertex 35 38.1213 0
      vertex 33.9393 37.0607 4
      vertex 35 38.1213 4
    endloop
  endfacet
  facet normal -0.707073 0.70714 0
    outer loop
      vertex 33.9393 37.0607 4
      vertex 35 38.1213 0
      vertex 33.9393 37.0607 0
    endloop
  endfacet
  facet normal 0 0 -1
    outer loop
      vertex 35.5 5.5 3
      vertex 62.0607 33.5 3
      vertex 62.0607 5.5 3
    endloop
  endfacet
  facet normal -0 0 -1
    outer loop
      vertex 62.0607 33.5 3
      vertex 35.5 5.5 3
      vertex 35.5 33.5 3
    endloop
  endfacet
  facet normal 1 -0 0
    outer loop
      vertex 35.5 5.5 3
      vertex 35.5 33.5 0
      vertex 35.5 33.5 3
    endloop
  endfacet
  facet normal 1 0 0
    outer loop
      vertex 35.5 33.5 0
      vertex 35.5 5.5 3
      vertex 35.5 5.5 0
    endloop
  endfacet
  facet normal 0 -1 0
    outer loop
      vertex 35.5 33.5 0
      vertex 62.0607 33.5 3
      vertex 35.5 33.5 3
    endloop
  endfacet
  facet normal 0 -1 -0
    outer loop
      vertex 62.0607 33.5 3
      vertex 35.5 33.5 0
      vertex 62.0607 33.5 0
    endloop
  endfacet
  facet normal 0 1 -0
    outer loop
      vertex 62.0607 5.5 0
      vertex 35.5 5.5 3
      vertex 62.0607 5.5 3
    endloop
  endfacet
  facet normal 0 1 0
    outer loop
      vertex 35.5 5.5 3
      vertex 62.0607 5.5 0
      vertex 35.5 5.5 0
    endloop
  endfacet
endsolid OpenSCAD_Model
