solid OpenSCAD_Model
  facet normal 1 -0 0
    outer loop
      vertex 52.01 3 4
      vertex 52.01 41.01 0
      vertex 52.01 41.01 4
    endloop
  endfacet
  facet normal 1 0 0
    outer loop
      vertex 52.01 41.01 0
      vertex 52.01 3 4
      vertex 52.01 3 0
    endloop
  endfacet
  facet normal 0 -1 0
    outer loop
      vertex 3 3 0
      vertex 7.19041 3 4
      vertex 3 3 4
    endloop
  endfacet
  facet normal 0 -1 -0
    outer loop
      vertex 7.19041 3 4
      vertex 3 3 0
      vertex 45.8096 3 4
    endloop
  endfacet
  facet normal 0 -1 0
    outer loop
      vertex 52.01 3 0
      vertex 45.8096 3 4
      vertex 3 3 0
    endloop
  endfacet
  facet normal 0 -1 0
    outer loop
      vertex 45.8096 3 4
      vertex 52.01 3 0
      vertex 50.1904 3 4
    endloop
  endfacet
  facet normal 0 -1 0
    outer loop
      vertex 50.1904 3 4
      vertex 52.01 3 0
      vertex 52.01 3 4
    endloop
  endfacet
  facet normal 0 0 -1
    outer loop
      vertex 3 3 0
      vertex 52.01 41.01 0
      vertex 52.01 3 0
    endloop
  endfacet
  facet normal -0 0 -1
    outer loop
      vertex 52.01 41.01 0
      vertex 3 3 0
      vertex 3 41.01 0
    endloop
  endfacet
  facet normal 0 1 -0
    outer loop
      vertex 52.01 41.01 0
      vertex 3 41.01 4
      vertex 52.01 41.01 4
    endloop
  endfacet
  facet normal 0 1 0
    outer loop
      vertex 3 41.01 4
      vertex 52.01 41.01 0
      vertex 3 41.01 0
    endloop
  endfacet
  facet normal -1 0 0
    outer loop
      vertex 3 41.01 0
      vertex 3 21.1904 4
      vertex 3 41.01 4
    endloop
  endfacet
  facet normal -1 0 0
    outer loop
      vertex 3 3 0
      vertex 3 21.1904 4
      vertex 3 41.01 0
    endloop
  endfacet
  facet normal -1 -0 0
    outer loop
      vertex 3 21.1904 4
      vertex 3 3 0
      vertex 3 16.8096 4
    endloop
  endfacet
  facet normal -1 -0 0
    outer loop
      vertex 3 16.8096 4
      vertex 3 3 0
      vertex 3 7.19041 4
    endloop
  endfacet
  facet normal -1 -0 0
    outer loop
      vertex 3 7.19041 4
      vertex 3 3 0
      vertex 3 3 4
    endloop
  endfacet
  facet normal 0 0 -1
    outer loop
      vertex 5.92705 2.14683 4
      vertex 7.19041 3 4
      vertex 6.76336 2.57295 4
    endloop
  endfacet
  facet normal 0 0 -1
    outer loop
      vertex 3 3 4
      vertex 5.92705 2.14683 4
      vertex 5 2 4
    endloop
  endfacet
  facet normal 0 0 -1
    outer loop
      vertex 3 3 4
      vertex 5 2 4
      vertex 4.07295 2.14683 4
    endloop
  endfacet
  facet normal 0 0 -1
    outer loop
      vertex 3 3 4
      vertex 4.07295 2.14683 4
      vertex 3.23664 2.57295 4
    endloop
  endfacet
  facet normal 0 0 -1
    outer loop
      vertex 5.92705 2.14683 4
      vertex 3 3 4
      vertex 7.19041 3 4
    endloop
  endfacet
  facet normal 0 0 -1
    outer loop
      vertex 2.57295 3.23664 4
      vertex 3 3 4
      vertex 3.23664 2.57295 4
    endloop
  endfacet
  facet normal 0 0 -1
    outer loop
      vertex 2.14683 4.07295 4
      vertex 3 3 4
      vertex 2.57295 3.23664 4
    endloop
  endfacet
  facet normal 0 0 -1
    outer loop
      vertex 2 5 4
      vertex 3 3 4
      vertex 2.14683 4.07295 4
    endloop
  endfacet
  facet normal 0 -0 -1
    outer loop
      vertex 2.14683 5.92705 4
      vertex 3 3 4
      vertex 2 5 4
    endloop
  endfacet
  facet normal 0 0 -1
    outer loop
      vertex 3 7.19041 4
      vertex 2.14683 5.92705 4
      vertex 2.57295 6.76336 4
    endloop
  endfacet
  facet normal 0 0 -1
    outer loop
      vertex 3 3 4
      vertex 2.14683 5.92705 4
      vertex 3 7.19041 4
    endloop
  endfacet
  facet normal 0 0 1
    outer loop
      vertex 7.85317 5.92705 4
      vertex 45.1468 5.92705 4
      vertex 7.85317 18.0729 4
    endloop
  endfacet
  facet normal 0 0 1
    outer loop
      vertex 45.1468 5.92705 4
      vertex 7.85317 5.92705 4
      vertex 8 5 4
    endloop
  endfacet
  facet normal -0 0 1
    outer loop
      vertex 7.42705 17.2366 4
      vertex 7.85317 5.92705 4
      vertex 7.85317 18.0729 4
    endloop
  endfacet
  facet normal 0 0 1
    outer loop
      vertex 7.42705 17.2366 4
      vertex 7.42705 6.76336 4
      vertex 7.85317 5.92705 4
    endloop
  endfacet
  facet normal -0 0 1
    outer loop
      vertex 6.76336 16.5729 4
      vertex 7.42705 6.76336 4
      vertex 7.42705 17.2366 4
    endloop
  endfacet
  facet normal 0 0 1
    outer loop
      vertex 6.76336 16.5729 4
      vertex 6.76336 7.42705 4
      vertex 7.42705 6.76336 4
    endloop
  endfacet
  facet normal -0 0 1
    outer loop
      vertex 5.92705 16.1468 4
      vertex 6.76336 7.42705 4
      vertex 6.76336 16.5729 4
    endloop
  endfacet
  facet normal 0 0 1
    outer loop
      vertex 5.92705 16.1468 4
      vertex 5.92705 7.85317 4
      vertex 6.76336 7.42705 4
    endloop
  endfacet
  facet normal -0 0 1
    outer loop
      vertex 5 16 4
      vertex 5.92705 7.85317 4
      vertex 5.92705 16.1468 4
    endloop
  endfacet
  facet normal 0 0 1
    outer loop
      vertex 5 16 4
      vertex 5 8 4
      vertex 5.92705 7.85317 4
    endloop
  endfacet
  facet normal 0 0 1
    outer loop
      vertex 4.07295 16.1468 4
      vertex 5 8 4
      vertex 5 16 4
    endloop
  endfacet
  facet normal 0 0 1
    outer loop
      vertex 4.07295 16.1468 4
      vertex 4.07295 7.85317 4
      vertex 5 8 4
    endloop
  endfacet
  facet normal 0 0 1
    outer loop
      vertex 3.23664 16.5729 4
      vertex 4.07295 7.85317 4
      vertex 4.07295 16.1468 4
    endloop
  endfacet
  facet normal 0 0 1
    outer loop
      vertex 3.23664 16.5729 4
      vertex 3.23664 7.42705 4
      vertex 4.07295 7.85317 4
    endloop
  endfacet
  facet normal 0 0 1
    outer loop
      vertex 3 16.8096 4
      vertex 3.23664 7.42705 4
      vertex 3.23664 16.5729 4
    endloop
  endfacet
  facet normal 0 0 1
    outer loop
      vertex 3.23664 7.42705 4
      vertex 3 16.8096 4
      vertex 3 7.19041 4
    endloop
  endfacet
  facet normal -0 0 1
    outer loop
      vertex 50.8532 5.92705 4
      vertex 52.01 3 4
      vertex 50.8532 18.0729 4
    endloop
  endfacet
  facet normal 0 0 1
    outer loop
      vertex 52.01 3 4
      vertex 50.8532 5.92705 4
      vertex 51 5 4
    endloop
  endfacet
  facet normal -0 0 1
    outer loop
      vertex 50.4271 17.2366 4
      vertex 50.8532 5.92705 4
      vertex 50.8532 18.0729 4
    endloop
  endfacet
  facet normal 0 0 1
    outer loop
      vertex 50.4271 17.2366 4
      vertex 50.4271 6.76336 4
      vertex 50.8532 5.92705 4
    endloop
  endfacet
  facet normal -0 0 1
    outer loop
      vertex 49.7634 16.5729 4
      vertex 50.4271 6.76336 4
      vertex 50.4271 17.2366 4
    endloop
  endfacet
  facet normal 0 0 1
    outer loop
      vertex 49.7634 16.5729 4
      vertex 49.7634 7.42705 4
      vertex 50.4271 6.76336 4
    endloop
  endfacet
  facet normal -0 0 1
    outer loop
      vertex 48.9271 16.1468 4
      vertex 49.7634 7.42705 4
      vertex 49.7634 16.5729 4
    endloop
  endfacet
  facet normal 0 0 1
    outer loop
      vertex 48.9271 16.1468 4
      vertex 48.9271 7.85317 4
      vertex 49.7634 7.42705 4
    endloop
  endfacet
  facet normal -0 0 1
    outer loop
      vertex 48 16 4
      vertex 48.9271 7.85317 4
      vertex 48.9271 16.1468 4
    endloop
  endfacet
  facet normal 0 0 1
    outer loop
      vertex 48 16 4
      vertex 48 8 4
      vertex 48.9271 7.85317 4
    endloop
  endfacet
  facet normal 0 0 1
    outer loop
      vertex 47.0729 16.1468 4
      vertex 48 8 4
      vertex 48 16 4
    endloop
  endfacet
  facet normal 0 0 1
    outer loop
      vertex 47.0729 16.1468 4
      vertex 47.0729 7.85317 4
      vertex 48 8 4
    endloop
  endfacet
  facet normal 0 0 1
    outer loop
      vertex 46.2366 16.5729 4
      vertex 47.0729 7.85317 4
      vertex 47.0729 16.1468 4
    endloop
  endfacet
  facet normal 0 0 1
    outer loop
      vertex 46.2366 16.5729 4
      vertex 46.2366 7.42705 4
      vertex 47.0729 7.85317 4
    endloop
  endfacet
  facet normal 0 0 1
    outer loop
      vertex 45.5729 17.2366 4
      vertex 46.2366 7.42705 4
      vertex 46.2366 16.5729 4
    endloop
  endfacet
  facet normal 0 0 1
    outer loop
      vertex 45.5729 17.2366 4
      vertex 45.5729 6.76336 4
      vertex 46.2366 7.42705 4
    endloop
  endfacet
  facet normal 0 0 1
    outer loop
      vertex 45.1468 18.0729 4
      vertex 45.5729 6.76336 4
      vertex 45.5729 17.2366 4
    endloop
  endfacet
  facet normal 0 0 1
    outer loop
      vertex 45.1468 18.0729 4
      vertex 45.1468 5.92705 4
      vertex 45.5729 6.76336 4
    endloop
  endfacet
  facet normal -0 0 1
    outer loop
      vertex 8 19 4
      vertex 45.1468 18.0729 4
      vertex 45 19 4
    endloop
  endfacet
  facet normal 0 0 1
    outer loop
      vertex 7.85317 18.0729 4
      vertex 45.1468 18.0729 4
      vertex 8 19 4
    endloop
  endfacet
  facet normal 0 0 1
    outer loop
      vertex 52.01 41.01 4
      vertex 51 19 4
      vertex 52.01 3 4
    endloop
  endfacet
  facet normal 0 0 1
    outer loop
      vertex 52.01 41.01 4
      vertex 50.8532 19.9271 4
      vertex 51 19 4
    endloop
  endfacet
  facet normal 0 0 1
    outer loop
      vertex 52.01 41.01 4
      vertex 50.4271 20.7634 4
      vertex 50.8532 19.9271 4
    endloop
  endfacet
  facet normal 0 0 1
    outer loop
      vertex 52.01 41.01 4
      vertex 49.7634 21.4271 4
      vertex 50.4271 20.7634 4
    endloop
  endfacet
  facet normal 0 0 1
    outer loop
      vertex 52.01 41.01 4
      vertex 48.9271 21.8532 4
      vertex 49.7634 21.4271 4
    endloop
  endfacet
  facet normal 0 0 1
    outer loop
      vertex 52.01 41.01 4
      vertex 48 22 4
      vertex 48.9271 21.8532 4
    endloop
  endfacet
  facet normal 0 0 1
    outer loop
      vertex 52.01 41.01 4
      vertex 47.0729 21.8532 4
      vertex 48 22 4
    endloop
  endfacet
  facet normal 0 0 1
    outer loop
      vertex 52.01 41.01 4
      vertex 46.2366 21.4271 4
      vertex 47.0729 21.8532 4
    endloop
  endfacet
  facet normal 0 0 1
    outer loop
      vertex 52.01 41.01 4
      vertex 45.5729 20.7634 4
      vertex 46.2366 21.4271 4
    endloop
  endfacet
  facet normal -0 0 1
    outer loop
      vertex 3 41.01 4
      vertex 45.5729 20.7634 4
      vertex 52.01 41.01 4
    endloop
  endfacet
  facet normal 0 0 1
    outer loop
      vertex 45.1468 18.0729 4
      vertex 7.85317 18.0729 4
      vertex 45.1468 5.92705 4
    endloop
  endfacet
  facet normal 0 0 1
    outer loop
      vertex 45.1468 19.9271 4
      vertex 8 19 4
      vertex 45 19 4
    endloop
  endfacet
  facet normal 0 -0 1
    outer loop
      vertex 7.42705 20.7634 4
      vertex 45.5729 20.7634 4
      vertex 3 41.01 4
    endloop
  endfacet
  facet normal 0 0 1
    outer loop
      vertex 45.1468 19.9271 4
      vertex 7.85317 19.9271 4
      vertex 8 19 4
    endloop
  endfacet
  facet normal 0 0 1
    outer loop
      vertex 45.1468 19.9271 4
      vertex 7.42705 20.7634 4
      vertex 7.85317 19.9271 4
    endloop
  endfacet
  facet normal 0 0 1
    outer loop
      vertex 45.5729 20.7634 4
      vertex 7.42705 20.7634 4
      vertex 45.1468 19.9271 4
    endloop
  endfacet
  facet normal 0 0 1
    outer loop
      vertex 7.42705 20.7634 4
      vertex 3 41.01 4
      vertex 6.76336 21.4271 4
    endloop
  endfacet
  facet normal 0 0 1
    outer loop
      vertex 6.76336 21.4271 4
      vertex 3 41.01 4
      vertex 5.92705 21.8532 4
    endloop
  endfacet
  facet normal 0 0 1
    outer loop
      vertex 5.92705 21.8532 4
      vertex 3 41.01 4
      vertex 5 22 4
    endloop
  endfacet
  facet normal 0 0 1
    outer loop
      vertex 5 22 4
      vertex 3 41.01 4
      vertex 4.07295 21.8532 4
    endloop
  endfacet
  facet normal 0 0 1
    outer loop
      vertex 3 41.01 4
      vertex 3.23664 21.4271 4
      vertex 4.07295 21.8532 4
    endloop
  endfacet
  facet normal 0 0 1
    outer loop
      vertex 3.23664 21.4271 4
      vertex 3 41.01 4
      vertex 3 21.1904 4
    endloop
  endfacet
  facet normal -0 0 1
    outer loop
      vertex 50.8532 18.0729 4
      vertex 52.01 3 4
      vertex 51 19 4
    endloop
  endfacet
  facet normal -0 0 1
    outer loop
      vertex 50.8532 4.07295 4
      vertex 52.01 3 4
      vertex 51 5 4
    endloop
  endfacet
  facet normal -0 0 1
    outer loop
      vertex 50.4271 3.23664 4
      vertex 52.01 3 4
      vertex 50.8532 4.07295 4
    endloop
  endfacet
  facet normal 0 0 1
    outer loop
      vertex 52.01 3 4
      vertex 50.4271 3.23664 4
      vertex 50.1904 3 4
    endloop
  endfacet
  facet normal 0 0 1
    outer loop
      vertex 45.1468 5.92705 4
      vertex 8 5 4
      vertex 45 5 4
    endloop
  endfacet
  facet normal 0 0 1
    outer loop
      vertex 45 5 4
      vertex 8 5 4
      vertex 45.1468 4.07295 4
    endloop
  endfacet
  facet normal 0 0 1
    outer loop
      vertex 7.85317 4.07295 4
      vertex 45.1468 4.07295 4
      vertex 8 5 4
    endloop
  endfacet
  facet normal 0 0 1
    outer loop
      vertex 45.1468 4.07295 4
      vertex 7.85317 4.07295 4
      vertex 45.5729 3.23664 4
    endloop
  endfacet
  facet normal 0 0 1
    outer loop
      vertex 7.42705 3.23664 4
      vertex 45.5729 3.23664 4
      vertex 7.85317 4.07295 4
    endloop
  endfacet
  facet normal 0 0 1
    outer loop
      vertex 45.5729 3.23664 4
      vertex 7.42705 3.23664 4
      vertex 45.8096 3 4
    endloop
  endfacet
  facet normal 0 0 1
    outer loop
      vertex 45.8096 3 4
      vertex 7.42705 3.23664 4
      vertex 7.19041 3 4
    endloop
  endfacet
  facet normal 0 0 1
    outer loop
      vertex 6.47821 5.61229 4
      vertex 6.47821 4.38771 4
      vertex 6.6 5 4
    endloop
  endfacet
  facet normal 0 0 1
    outer loop
      vertex 6.13137 6.13137 4
      vertex 6.47821 4.38771 4
      vertex 6.47821 5.61229 4
    endloop
  endfacet
  facet normal 0 0 1
    outer loop
      vertex 6.13137 6.13137 4
      vertex 6.13137 3.86863 4
      vertex 6.47821 4.38771 4
    endloop
  endfacet
  facet normal 0 0 1
    outer loop
      vertex 5.61229 6.47821 4
      vertex 6.13137 3.86863 4
      vertex 6.13137 6.13137 4
    endloop
  endfacet
  facet normal 0 0 1
    outer loop
      vertex 5.61229 6.47821 4
      vertex 5.61229 3.52179 4
      vertex 6.13137 3.86863 4
    endloop
  endfacet
  facet normal 0 0 1
    outer loop
      vertex 5 6.6 4
      vertex 5.61229 3.52179 4
      vertex 5.61229 6.47821 4
    endloop
  endfacet
  facet normal 0 0 1
    outer loop
      vertex 5 6.6 4
      vertex 5 3.4 4
      vertex 5.61229 3.52179 4
    endloop
  endfacet
  facet normal -0 0 1
    outer loop
      vertex 4.38771 6.47821 4
      vertex 5 3.4 4
      vertex 5 6.6 4
    endloop
  endfacet
  facet normal 0 0 1
    outer loop
      vertex 4.38771 6.47821 4
      vertex 4.38771 3.52179 4
      vertex 5 3.4 4
    endloop
  endfacet
  facet normal -0 0 1
    outer loop
      vertex 3.86863 6.13137 4
      vertex 4.38771 3.52179 4
      vertex 4.38771 6.47821 4
    endloop
  endfacet
  facet normal 0 0 1
    outer loop
      vertex 3.86863 6.13137 4
      vertex 3.86863 3.86863 4
      vertex 4.38771 3.52179 4
    endloop
  endfacet
  facet normal -0 0 1
    outer loop
      vertex 3.52179 5.61229 4
      vertex 3.86863 3.86863 4
      vertex 3.86863 6.13137 4
    endloop
  endfacet
  facet normal 0 0 1
    outer loop
      vertex 3.52179 5.61229 4
      vertex 3.52179 4.38771 4
      vertex 3.86863 3.86863 4
    endloop
  endfacet
  facet normal 0 -0 1
    outer loop
      vertex 3.52179 4.38771 4
      vertex 3.52179 5.61229 4
      vertex 3.4 5 4
    endloop
  endfacet
  facet normal 0 0 -1
    outer loop
      vertex 48.9271 2.14683 4
      vertex 50.1904 3 4
      vertex 49.7634 2.57295 4
    endloop
  endfacet
  facet normal 0 0 -1
    outer loop
      vertex 48 2 4
      vertex 50.1904 3 4
      vertex 48.9271 2.14683 4
    endloop
  endfacet
  facet normal 0 0 -1
    outer loop
      vertex 47.0729 2.14683 4
      vertex 50.1904 3 4
      vertex 48 2 4
    endloop
  endfacet
  facet normal 0 0 -1
    outer loop
      vertex 45.8096 3 4
      vertex 47.0729 2.14683 4
      vertex 46.2366 2.57295 4
    endloop
  endfacet
  facet normal 0 0 -1
    outer loop
      vertex 47.0729 2.14683 4
      vertex 45.8096 3 4
      vertex 50.1904 3 4
    endloop
  endfacet
  facet normal 0 0 1
    outer loop
      vertex 49.4782 5.61229 4
      vertex 49.4782 4.38771 4
      vertex 49.6 5 4
    endloop
  endfacet
  facet normal 0 0 1
    outer loop
      vertex 49.1314 6.13137 4
      vertex 49.4782 4.38771 4
      vertex 49.4782 5.61229 4
    endloop
  endfacet
  facet normal 0 0 1
    outer loop
      vertex 49.1314 6.13137 4
      vertex 49.1314 3.86863 4
      vertex 49.4782 4.38771 4
    endloop
  endfacet
  facet normal 0 0 1
    outer loop
      vertex 48.6123 6.47821 4
      vertex 49.1314 3.86863 4
      vertex 49.1314 6.13137 4
    endloop
  endfacet
  facet normal 0 0 1
    outer loop
      vertex 48.6123 6.47821 4
      vertex 48.6123 3.52179 4
      vertex 49.1314 3.86863 4
    endloop
  endfacet
  facet normal 0 0 1
    outer loop
      vertex 48 6.6 4
      vertex 48.6123 3.52179 4
      vertex 48.6123 6.47821 4
    endloop
  endfacet
  facet normal 0 0 1
    outer loop
      vertex 48 6.6 4
      vertex 48 3.4 4
      vertex 48.6123 3.52179 4
    endloop
  endfacet
  facet normal -0 0 1
    outer loop
      vertex 47.3877 6.47821 4
      vertex 48 3.4 4
      vertex 48 6.6 4
    endloop
  endfacet
  facet normal 0 0 1
    outer loop
      vertex 47.3877 6.47821 4
      vertex 47.3877 3.52179 4
      vertex 48 3.4 4
    endloop
  endfacet
  facet normal -0 0 1
    outer loop
      vertex 46.8686 6.13137 4
      vertex 47.3877 3.52179 4
      vertex 47.3877 6.47821 4
    endloop
  endfacet
  facet normal 0 0 1
    outer loop
      vertex 46.8686 6.13137 4
      vertex 46.8686 3.86863 4
      vertex 47.3877 3.52179 4
    endloop
  endfacet
  facet normal -0 0 1
    outer loop
      vertex 46.5218 5.61229 4
      vertex 46.8686 3.86863 4
      vertex 46.8686 6.13137 4
    endloop
  endfacet
  facet normal 0 0 1
    outer loop
      vertex 46.5218 5.61229 4
      vertex 46.5218 4.38771 4
      vertex 46.8686 3.86863 4
    endloop
  endfacet
  facet normal 0 -0 1
    outer loop
      vertex 46.5218 4.38771 4
      vertex 46.5218 5.61229 4
      vertex 46.4 5 4
    endloop
  endfacet
  facet normal 0 0 -1
    outer loop
      vertex 2.14683 18.0729 4
      vertex 3 16.8096 4
      vertex 2.57295 17.2366 4
    endloop
  endfacet
  facet normal 0 0 -1
    outer loop
      vertex 3 16.8096 4
      vertex 2.14683 18.0729 4
      vertex 3 21.1904 4
    endloop
  endfacet
  facet normal 0 0 -1
    outer loop
      vertex 2 19 4
      vertex 3 21.1904 4
      vertex 2.14683 18.0729 4
    endloop
  endfacet
  facet normal 0 0 -1
    outer loop
      vertex 3 21.1904 4
      vertex 2.14683 19.9271 4
      vertex 2.57295 20.7634 4
    endloop
  endfacet
  facet normal 0 0 -1
    outer loop
      vertex 3 21.1904 4
      vertex 2 19 4
      vertex 2.14683 19.9271 4
    endloop
  endfacet
  facet normal 0 0 1
    outer loop
      vertex 6.47821 19.6123 4
      vertex 6.47821 18.3877 4
      vertex 6.6 19 4
    endloop
  endfacet
  facet normal 0 0 1
    outer loop
      vertex 6.13137 20.1314 4
      vertex 6.47821 18.3877 4
      vertex 6.47821 19.6123 4
    endloop
  endfacet
  facet normal 0 0 1
    outer loop
      vertex 6.13137 20.1314 4
      vertex 6.13137 17.8686 4
      vertex 6.47821 18.3877 4
    endloop
  endfacet
  facet normal 0 0 1
    outer loop
      vertex 5.61229 20.4782 4
      vertex 6.13137 17.8686 4
      vertex 6.13137 20.1314 4
    endloop
  endfacet
  facet normal 0 0 1
    outer loop
      vertex 5.61229 20.4782 4
      vertex 5.61229 17.5218 4
      vertex 6.13137 17.8686 4
    endloop
  endfacet
  facet normal 0 0 1
    outer loop
      vertex 5 20.6 4
      vertex 5.61229 17.5218 4
      vertex 5.61229 20.4782 4
    endloop
  endfacet
  facet normal 0 0 1
    outer loop
      vertex 5 20.6 4
      vertex 5 17.4 4
      vertex 5.61229 17.5218 4
    endloop
  endfacet
  facet normal -0 0 1
    outer loop
      vertex 4.38771 20.4782 4
      vertex 5 17.4 4
      vertex 5 20.6 4
    endloop
  endfacet
  facet normal 0 0 1
    outer loop
      vertex 4.38771 20.4782 4
      vertex 4.38771 17.5218 4
      vertex 5 17.4 4
    endloop
  endfacet
  facet normal -0 0 1
    outer loop
      vertex 3.86863 20.1314 4
      vertex 4.38771 17.5218 4
      vertex 4.38771 20.4782 4
    endloop
  endfacet
  facet normal 0 0 1
    outer loop
      vertex 3.86863 20.1314 4
      vertex 3.86863 17.8686 4
      vertex 4.38771 17.5218 4
    endloop
  endfacet
  facet normal -0 0 1
    outer loop
      vertex 3.52179 19.6123 4
      vertex 3.86863 17.8686 4
      vertex 3.86863 20.1314 4
    endloop
  endfacet
  facet normal 0 0 1
    outer loop
      vertex 3.52179 19.6123 4
      vertex 3.52179 18.3877 4
      vertex 3.86863 17.8686 4
    endloop
  endfacet
  facet normal 0 -0 1
    outer loop
      vertex 3.52179 18.3877 4
      vertex 3.52179 19.6123 4
      vertex 3.4 19 4
    endloop
  endfacet
  facet normal 0 0 1
    outer loop
      vertex 49.4782 19.6123 4
      vertex 49.4782 18.3877 4
      vertex 49.6 19 4
    endloop
  endfacet
  facet normal 0 0 1
    outer loop
      vertex 49.1314 20.1314 4
      vertex 49.4782 18.3877 4
      vertex 49.4782 19.6123 4
    endloop
  endfacet
  facet normal 0 0 1
    outer loop
      vertex 49.1314 20.1314 4
      vertex 49.1314 17.8686 4
      vertex 49.4782 18.3877 4
    endloop
  endfacet
  facet normal 0 0 1
    outer loop
      vertex 48.6123 20.4782 4
      vertex 49.1314 17.8686 4
      vertex 49.1314 20.1314 4
    endloop
  endfacet
  facet normal 0 0 1
    outer loop
      vertex 48.6123 20.4782 4
      vertex 48.6123 17.5218 4
      vertex 49.1314 17.8686 4
    endloop
  endfacet
  facet normal 0 0 1
    outer loop
      vertex 48 20.6 4
      vertex 48.6123 17.5218 4
      vertex 48.6123 20.4782 4
    endloop
  endfacet
  facet normal 0 0 1
    outer loop
      vertex 48 20.6 4
      vertex 48 17.4 4
      vertex 48.6123 17.5218 4
    endloop
  endfacet
  facet normal -0 0 1
    outer loop
      vertex 47.3877 20.4782 4
      vertex 48 17.4 4
      vertex 48 20.6 4
    endloop
  endfacet
  facet normal 0 0 1
    outer loop
      vertex 47.3877 20.4782 4
      vertex 47.3877 17.5218 4
      vertex 48 17.4 4
    endloop
  endfacet
  facet normal -0 0 1
    outer loop
      vertex 46.8686 20.1314 4
      vertex 47.3877 17.5218 4
      vertex 47.3877 20.4782 4
    endloop
  endfacet
  facet normal 0 0 1
    outer loop
      vertex 46.8686 20.1314 4
      vertex 46.8686 17.8686 4
      vertex 47.3877 17.5218 4
    endloop
  endfacet
  facet normal -0 0 1
    outer loop
      vertex 46.5218 19.6123 4
      vertex 46.8686 17.8686 4
      vertex 46.8686 20.1314 4
    endloop
  endfacet
  facet normal 0 0 1
    outer loop
      vertex 46.5218 19.6123 4
      vertex 46.5218 18.3877 4
      vertex 46.8686 17.8686 4
    endloop
  endfacet
  facet normal 0 -0 1
    outer loop
      vertex 46.5218 18.3877 4
      vertex 46.5218 19.6123 4
      vertex 46.4 19 4
    endloop
  endfacet
  facet normal 0.891007 0.453989 0
    outer loop
      vertex 7.85317 5.92705 26
      vertex 7.42705 6.76336 4
      vertex 7.42705 6.76336 26
    endloop
  endfacet
  facet normal 0.891007 0.453989 0
    outer loop
      vertex 7.42705 6.76336 4
      vertex 7.85317 5.92705 26
      vertex 7.85317 5.92705 4
    endloop
  endfacet
  facet normal 0.987688 0.156434 0
    outer loop
      vertex 8 5 26
      vertex 7.85317 5.92705 4
      vertex 7.85317 5.92705 26
    endloop
  endfacet
  facet normal 0.987688 0.156434 0
    outer loop
      vertex 7.85317 5.92705 4
      vertex 8 5 26
      vertex 8 5 4
    endloop
  endfacet
  facet normal 0.707107 0.707107 0
    outer loop
      vertex 7.42705 6.76336 26
      vertex 6.76336 7.42705 4
      vertex 6.76336 7.42705 26
    endloop
  endfacet
  facet normal 0.707107 0.707107 0
    outer loop
      vertex 6.76336 7.42705 4
      vertex 7.42705 6.76336 26
      vertex 7.42705 6.76336 4
    endloop
  endfacet
  facet normal 0.156434 -0.987688 0
    outer loop
      vertex 5 2 4
      vertex 5.92705 2.14683 26
      vertex 5 2 26
    endloop
  endfacet
  facet normal 0.156434 -0.987688 0
    outer loop
      vertex 5.92705 2.14683 26
      vertex 5 2 4
      vertex 5.92705 2.14683 4
    endloop
  endfacet
  facet normal -0.453989 0.891007 0
    outer loop
      vertex 4.07295 7.85317 4
      vertex 3.23664 7.42705 26
      vertex 4.07295 7.85317 26
    endloop
  endfacet
  facet normal -0.453989 0.891007 0
    outer loop
      vertex 3.23664 7.42705 26
      vertex 4.07295 7.85317 4
      vertex 3.23664 7.42705 4
    endloop
  endfacet
  facet normal 0.453989 -0.891007 0
    outer loop
      vertex 5.92705 2.14683 4
      vertex 6.76336 2.57295 26
      vertex 5.92705 2.14683 26
    endloop
  endfacet
  facet normal 0.453989 -0.891007 0
    outer loop
      vertex 6.76336 2.57295 26
      vertex 5.92705 2.14683 4
      vertex 6.76336 2.57295 4
    endloop
  endfacet
  facet normal 0.707107 -0.707107 0
    outer loop
      vertex 7.42705 3.23664 26
      vertex 7.19041 3 4
      vertex 7.42705 3.23664 4
    endloop
  endfacet
  facet normal 0.707107 -0.707107 -5.37659e-18
    outer loop
      vertex 6.76336 2.57295 26
      vertex 7.19041 3 4
      vertex 7.42705 3.23664 26
    endloop
  endfacet
  facet normal 0.707107 -0.707107 0
    outer loop
      vertex 7.19041 3 4
      vertex 6.76336 2.57295 26
      vertex 6.76336 2.57295 4
    endloop
  endfacet
  facet normal -0.156434 -0.987688 0
    outer loop
      vertex 4.07295 2.14683 4
      vertex 5 2 26
      vertex 4.07295 2.14683 26
    endloop
  endfacet
  facet normal -0.156434 -0.987688 -0
    outer loop
      vertex 5 2 26
      vertex 4.07295 2.14683 4
      vertex 5 2 4
    endloop
  endfacet
  facet normal -0.891007 0.453989 0
    outer loop
      vertex 2.14683 5.92705 4
      vertex 2.57295 6.76336 26
      vertex 2.57295 6.76336 4
    endloop
  endfacet
  facet normal -0.891007 0.453989 0
    outer loop
      vertex 2.57295 6.76336 26
      vertex 2.14683 5.92705 4
      vertex 2.14683 5.92705 26
    endloop
  endfacet
  facet normal 0.987688 -0.156434 0
    outer loop
      vertex 7.85317 4.07295 26
      vertex 8 5 4
      vertex 8 5 26
    endloop
  endfacet
  facet normal 0.987688 -0.156434 0
    outer loop
      vertex 8 5 4
      vertex 7.85317 4.07295 26
      vertex 7.85317 4.07295 4
    endloop
  endfacet
  facet normal -0.987688 0.156434 0
    outer loop
      vertex 2 5 4
      vertex 2.14683 5.92705 26
      vertex 2.14683 5.92705 4
    endloop
  endfacet
  facet normal -0.987688 0.156434 0
    outer loop
      vertex 2.14683 5.92705 26
      vertex 2 5 4
      vertex 2 5 26
    endloop
  endfacet
  facet normal 0.891007 -0.453989 0
    outer loop
      vertex 7.42705 3.23664 26
      vertex 7.85317 4.07295 4
      vertex 7.85317 4.07295 26
    endloop
  endfacet
  facet normal 0.891007 -0.453989 0
    outer loop
      vertex 7.85317 4.07295 4
      vertex 7.42705 3.23664 26
      vertex 7.42705 3.23664 4
    endloop
  endfacet
  facet normal 0.156434 0.987688 -0
    outer loop
      vertex 5.92705 7.85317 4
      vertex 5 8 26
      vertex 5.92705 7.85317 26
    endloop
  endfacet
  facet normal 0.156434 0.987688 0
    outer loop
      vertex 5 8 26
      vertex 5.92705 7.85317 4
      vertex 5 8 4
    endloop
  endfacet
  facet normal 0.453989 0.891007 -0
    outer loop
      vertex 6.76336 7.42705 4
      vertex 5.92705 7.85317 26
      vertex 6.76336 7.42705 26
    endloop
  endfacet
  facet normal 0.453989 0.891007 0
    outer loop
      vertex 5.92705 7.85317 26
      vertex 6.76336 7.42705 4
      vertex 5.92705 7.85317 4
    endloop
  endfacet
  facet normal -0.891007 -0.453989 0
    outer loop
      vertex 2.57295 3.23664 4
      vertex 2.14683 4.07295 26
      vertex 2.14683 4.07295 4
    endloop
  endfacet
  facet normal -0.891007 -0.453989 0
    outer loop
      vertex 2.14683 4.07295 26
      vertex 2.57295 3.23664 4
      vertex 2.57295 3.23664 26
    endloop
  endfacet
  facet normal -0.156434 0.987688 0
    outer loop
      vertex 5 8 4
      vertex 4.07295 7.85317 26
      vertex 5 8 26
    endloop
  endfacet
  facet normal -0.156434 0.987688 0
    outer loop
      vertex 4.07295 7.85317 26
      vertex 5 8 4
      vertex 4.07295 7.85317 4
    endloop
  endfacet
  facet normal -0.707107 -0.707107 0
    outer loop
      vertex 3.23664 2.57295 4
      vertex 2.57295 3.23664 26
      vertex 2.57295 3.23664 4
    endloop
  endfacet
  facet normal -0.707107 -0.707107 0
    outer loop
      vertex 2.57295 3.23664 26
      vertex 3.23664 2.57295 4
      vertex 3.23664 2.57295 26
    endloop
  endfacet
  facet normal 0 0 1
    outer loop
      vertex 6.6 5 26
      vertex 8 5 26
      vertex 7.85317 5.92705 26
    endloop
  endfacet
  facet normal 0 0 1
    outer loop
      vertex 6.47821 5.61229 26
      vertex 7.85317 5.92705 26
      vertex 7.42705 6.76336 26
    endloop
  endfacet
  facet normal 0 0 1
    outer loop
      vertex 8 5 26
      vertex 6.6 5 26
      vertex 7.85317 4.07295 26
    endloop
  endfacet
  facet normal 0 0 1
    outer loop
      vertex 6.13137 6.13137 26
      vertex 7.42705 6.76336 26
      vertex 6.76336 7.42705 26
    endloop
  endfacet
  facet normal -0 0 1
    outer loop
      vertex 6.47821 4.38771 26
      vertex 7.85317 4.07295 26
      vertex 6.6 5 26
    endloop
  endfacet
  facet normal 0 0 1
    outer loop
      vertex 7.85317 4.07295 26
      vertex 6.47821 4.38771 26
      vertex 7.42705 3.23664 26
    endloop
  endfacet
  facet normal 0 0 1
    outer loop
      vertex 7.85317 5.92705 26
      vertex 6.47821 5.61229 26
      vertex 6.6 5 26
    endloop
  endfacet
  facet normal 0 0 1
    outer loop
      vertex 7.42705 6.76336 26
      vertex 6.13137 6.13137 26
      vertex 6.47821 5.61229 26
    endloop
  endfacet
  facet normal 0 0 1
    outer loop
      vertex 5.61229 6.47821 26
      vertex 6.76336 7.42705 26
      vertex 5.92705 7.85317 26
    endloop
  endfacet
  facet normal 0 0 1
    outer loop
      vertex 6.76336 7.42705 26
      vertex 5.61229 6.47821 26
      vertex 6.13137 6.13137 26
    endloop
  endfacet
  facet normal 0 0 1
    outer loop
      vertex 5 6.6 26
      vertex 5.92705 7.85317 26
      vertex 5 8 26
    endloop
  endfacet
  facet normal 0 0 1
    outer loop
      vertex 5.92705 7.85317 26
      vertex 5 6.6 26
      vertex 5.61229 6.47821 26
    endloop
  endfacet
  facet normal -0 0 1
    outer loop
      vertex 4.07295 7.85317 26
      vertex 5 6.6 26
      vertex 5 8 26
    endloop
  endfacet
  facet normal 0 0 1
    outer loop
      vertex 5 6.6 26
      vertex 4.07295 7.85317 26
      vertex 4.38771 6.47821 26
    endloop
  endfacet
  facet normal -0 0 1
    outer loop
      vertex 3.23664 7.42705 26
      vertex 4.38771 6.47821 26
      vertex 4.07295 7.85317 26
    endloop
  endfacet
  facet normal 0 0 1
    outer loop
      vertex 4.38771 6.47821 26
      vertex 3.23664 7.42705 26
      vertex 3.86863 6.13137 26
    endloop
  endfacet
  facet normal 0 0 1
    outer loop
      vertex 3.86863 6.13137 26
      vertex 2.57295 6.76336 26
      vertex 3.52179 5.61229 26
    endloop
  endfacet
  facet normal -0 0 1
    outer loop
      vertex 2.57295 6.76336 26
      vertex 3.86863 6.13137 26
      vertex 3.23664 7.42705 26
    endloop
  endfacet
  facet normal -0 0 1
    outer loop
      vertex 6.13137 3.86863 26
      vertex 7.42705 3.23664 26
      vertex 6.47821 4.38771 26
    endloop
  endfacet
  facet normal 0 0 1
    outer loop
      vertex 7.42705 3.23664 26
      vertex 6.13137 3.86863 26
      vertex 6.76336 2.57295 26
    endloop
  endfacet
  facet normal -0 0 1
    outer loop
      vertex 5.61229 3.52179 26
      vertex 6.76336 2.57295 26
      vertex 6.13137 3.86863 26
    endloop
  endfacet
  facet normal 0 0 1
    outer loop
      vertex 6.76336 2.57295 26
      vertex 5.61229 3.52179 26
      vertex 5.92705 2.14683 26
    endloop
  endfacet
  facet normal -0 0 1
    outer loop
      vertex 5 3.4 26
      vertex 5.92705 2.14683 26
      vertex 5.61229 3.52179 26
    endloop
  endfacet
  facet normal 0 0 1
    outer loop
      vertex 5 3.4 26
      vertex 5 2 26
      vertex 5.92705 2.14683 26
    endloop
  endfacet
  facet normal 0 0 1
    outer loop
      vertex 4.07295 2.14683 26
      vertex 5 3.4 26
      vertex 4.38771 3.52179 26
    endloop
  endfacet
  facet normal 0 0 1
    outer loop
      vertex 5 3.4 26
      vertex 4.07295 2.14683 26
      vertex 5 2 26
    endloop
  endfacet
  facet normal 0 0 1
    outer loop
      vertex 3.23664 2.57295 26
      vertex 4.38771 3.52179 26
      vertex 3.86863 3.86863 26
    endloop
  endfacet
  facet normal 0 0 1
    outer loop
      vertex 2.57295 3.23664 26
      vertex 3.86863 3.86863 26
      vertex 3.52179 4.38771 26
    endloop
  endfacet
  facet normal 0 0 1
    outer loop
      vertex 4.38771 3.52179 26
      vertex 3.23664 2.57295 26
      vertex 4.07295 2.14683 26
    endloop
  endfacet
  facet normal 0 0 1
    outer loop
      vertex 2.14683 4.07295 26
      vertex 3.52179 4.38771 26
      vertex 3.4 5 26
    endloop
  endfacet
  facet normal -0 0 1
    outer loop
      vertex 2.14683 5.92705 26
      vertex 3.52179 5.61229 26
      vertex 2.57295 6.76336 26
    endloop
  endfacet
  facet normal 0 0 1
    outer loop
      vertex 3.52179 5.61229 26
      vertex 2.14683 5.92705 26
      vertex 3.4 5 26
    endloop
  endfacet
  facet normal 0 0 1
    outer loop
      vertex 3.86863 3.86863 26
      vertex 2.57295 3.23664 26
      vertex 3.23664 2.57295 26
    endloop
  endfacet
  facet normal 0 0 1
    outer loop
      vertex 2 5 26
      vertex 3.4 5 26
      vertex 2.14683 5.92705 26
    endloop
  endfacet
  facet normal 0 0 1
    outer loop
      vertex 3.52179 4.38771 26
      vertex 2.14683 4.07295 26
      vertex 2.57295 3.23664 26
    endloop
  endfacet
  facet normal 0 0 1
    outer loop
      vertex 3.4 5 26
      vertex 2 5 26
      vertex 2.14683 4.07295 26
    endloop
  endfacet
  facet normal -0.707107 0.707107 0
    outer loop
      vertex 3 7.19041 4
      vertex 3.23664 7.42705 26
      vertex 3.23664 7.42705 4
    endloop
  endfacet
  facet normal -0.707107 0.707107 0
    outer loop
      vertex 2.57295 6.76336 26
      vertex 3 7.19041 4
      vertex 2.57295 6.76336 4
    endloop
  endfacet
  facet normal -0.707107 0.707107 -4.03245e-18
    outer loop
      vertex 3 7.19041 4
      vertex 2.57295 6.76336 26
      vertex 3.23664 7.42705 26
    endloop
  endfacet
  facet normal -0.987688 -0.156434 0
    outer loop
      vertex 2.14683 4.07295 4
      vertex 2 5 26
      vertex 2 5 4
    endloop
  endfacet
  facet normal -0.987688 -0.156434 0
    outer loop
      vertex 2 5 26
      vertex 2.14683 4.07295 4
      vertex 2.14683 4.07295 26
    endloop
  endfacet
  facet normal -0.453989 -0.891007 0
    outer loop
      vertex 3.23664 2.57295 4
      vertex 4.07295 2.14683 26
      vertex 3.23664 2.57295 26
    endloop
  endfacet
  facet normal -0.453989 -0.891007 -0
    outer loop
      vertex 4.07295 2.14683 26
      vertex 3.23664 2.57295 4
      vertex 4.07295 2.14683 4
    endloop
  endfacet
  facet normal 0.555572 -0.831468 0
    outer loop
      vertex 3.86863 6.13137 4
      vertex 4.38771 6.47821 26
      vertex 3.86863 6.13137 26
    endloop
  endfacet
  facet normal 0.555572 -0.831468 0
    outer loop
      vertex 4.38771 6.47821 26
      vertex 3.86863 6.13137 4
      vertex 4.38771 6.47821 4
    endloop
  endfacet
  facet normal -0.831468 -0.555572 0
    outer loop
      vertex 6.47821 5.61229 4
      vertex 6.13137 6.13137 26
      vertex 6.13137 6.13137 4
    endloop
  endfacet
  facet normal -0.831468 -0.555572 0
    outer loop
      vertex 6.13137 6.13137 26
      vertex 6.47821 5.61229 4
      vertex 6.47821 5.61229 26
    endloop
  endfacet
  facet normal -0.980786 -0.195087 0
    outer loop
      vertex 6.6 5 4
      vertex 6.47821 5.61229 26
      vertex 6.47821 5.61229 4
    endloop
  endfacet
  facet normal -0.980786 -0.195087 0
    outer loop
      vertex 6.47821 5.61229 26
      vertex 6.6 5 4
      vertex 6.6 5 26
    endloop
  endfacet
  facet normal 0.831468 -0.555572 0
    outer loop
      vertex 3.52179 5.61229 26
      vertex 3.86863 6.13137 4
      vertex 3.86863 6.13137 26
    endloop
  endfacet
  facet normal 0.831468 -0.555572 0
    outer loop
      vertex 3.86863 6.13137 4
      vertex 3.52179 5.61229 26
      vertex 3.52179 5.61229 4
    endloop
  endfacet
  facet normal 0.195087 0.980786 -0
    outer loop
      vertex 5 3.4 4
      vertex 4.38771 3.52179 26
      vertex 5 3.4 26
    endloop
  endfacet
  facet normal 0.195087 0.980786 0
    outer loop
      vertex 4.38771 3.52179 26
      vertex 5 3.4 4
      vertex 4.38771 3.52179 4
    endloop
  endfacet
  facet normal -0.195087 0.980786 0
    outer loop
      vertex 5.61229 3.52179 4
      vertex 5 3.4 26
      vertex 5.61229 3.52179 26
    endloop
  endfacet
  facet normal -0.195087 0.980786 0
    outer loop
      vertex 5 3.4 26
      vertex 5.61229 3.52179 4
      vertex 5 3.4 4
    endloop
  endfacet
  facet normal -0.555572 0.831468 0
    outer loop
      vertex 6.13137 3.86863 4
      vertex 5.61229 3.52179 26
      vertex 6.13137 3.86863 26
    endloop
  endfacet
  facet normal -0.555572 0.831468 0
    outer loop
      vertex 5.61229 3.52179 26
      vertex 6.13137 3.86863 4
      vertex 5.61229 3.52179 4
    endloop
  endfacet
  facet normal -0.831468 0.555572 0
    outer loop
      vertex 6.13137 3.86863 4
      vertex 6.47821 4.38771 26
      vertex 6.47821 4.38771 4
    endloop
  endfacet
  facet normal -0.831468 0.555572 0
    outer loop
      vertex 6.47821 4.38771 26
      vertex 6.13137 3.86863 4
      vertex 6.13137 3.86863 26
    endloop
  endfacet
  facet normal 0.980786 -0.195087 0
    outer loop
      vertex 3.4 5 26
      vertex 3.52179 5.61229 4
      vertex 3.52179 5.61229 26
    endloop
  endfacet
  facet normal 0.980786 -0.195087 0
    outer loop
      vertex 3.52179 5.61229 4
      vertex 3.4 5 26
      vertex 3.4 5 4
    endloop
  endfacet
  facet normal -0.980786 0.195087 0
    outer loop
      vertex 6.47821 4.38771 4
      vertex 6.6 5 26
      vertex 6.6 5 4
    endloop
  endfacet
  facet normal -0.980786 0.195087 0
    outer loop
      vertex 6.6 5 26
      vertex 6.47821 4.38771 4
      vertex 6.47821 4.38771 26
    endloop
  endfacet
  facet normal 0.195087 -0.980786 0
    outer loop
      vertex 4.38771 6.47821 4
      vertex 5 6.6 26
      vertex 4.38771 6.47821 26
    endloop
  endfacet
  facet normal 0.195087 -0.980786 0
    outer loop
      vertex 5 6.6 26
      vertex 4.38771 6.47821 4
      vertex 5 6.6 4
    endloop
  endfacet
  facet normal -0.195087 -0.980786 0
    outer loop
      vertex 5 6.6 4
      vertex 5.61229 6.47821 26
      vertex 5 6.6 26
    endloop
  endfacet
  facet normal -0.195087 -0.980786 -0
    outer loop
      vertex 5.61229 6.47821 26
      vertex 5 6.6 4
      vertex 5.61229 6.47821 4
    endloop
  endfacet
  facet normal -0.555572 -0.831468 0
    outer loop
      vertex 5.61229 6.47821 4
      vertex 6.13137 6.13137 26
      vertex 5.61229 6.47821 26
    endloop
  endfacet
  facet normal -0.555572 -0.831468 -0
    outer loop
      vertex 6.13137 6.13137 26
      vertex 5.61229 6.47821 4
      vertex 6.13137 6.13137 4
    endloop
  endfacet
  facet normal 0.831468 0.555572 0
    outer loop
      vertex 3.86863 3.86863 26
      vertex 3.52179 4.38771 4
      vertex 3.52179 4.38771 26
    endloop
  endfacet
  facet normal 0.831468 0.555572 0
    outer loop
      vertex 3.52179 4.38771 4
      vertex 3.86863 3.86863 26
      vertex 3.86863 3.86863 4
    endloop
  endfacet
  facet normal 0.980786 0.195087 0
    outer loop
      vertex 3.52179 4.38771 26
      vertex 3.4 5 4
      vertex 3.4 5 26
    endloop
  endfacet
  facet normal 0.980786 0.195087 0
    outer loop
      vertex 3.4 5 4
      vertex 3.52179 4.38771 26
      vertex 3.52179 4.38771 4
    endloop
  endfacet
  facet normal 0.555572 0.831468 -0
    outer loop
      vertex 4.38771 3.52179 4
      vertex 3.86863 3.86863 26
      vertex 4.38771 3.52179 26
    endloop
  endfacet
  facet normal 0.555572 0.831468 0
    outer loop
      vertex 3.86863 3.86863 26
      vertex 4.38771 3.52179 4
      vertex 3.86863 3.86863 4
    endloop
  endfacet
  facet normal 0.891005 0.453994 0
    outer loop
      vertex 7.85317 19.9271 26
      vertex 7.42705 20.7634 4
      vertex 7.42705 20.7634 26
    endloop
  endfacet
  facet normal 0.891005 0.453994 0
    outer loop
      vertex 7.42705 20.7634 4
      vertex 7.85317 19.9271 26
      vertex 7.85317 19.9271 4
    endloop
  endfacet
  facet normal 0.98769 0.156426 0
    outer loop
      vertex 8 19 26
      vertex 7.85317 19.9271 4
      vertex 7.85317 19.9271 26
    endloop
  endfacet
  facet normal 0.98769 0.156426 0
    outer loop
      vertex 7.85317 19.9271 4
      vertex 8 19 26
      vertex 8 19 4
    endloop
  endfacet
  facet normal 0.707112 0.707101 0
    outer loop
      vertex 7.42705 20.7634 26
      vertex 6.76336 21.4271 4
      vertex 6.76336 21.4271 26
    endloop
  endfacet
  facet normal 0.707112 0.707101 0
    outer loop
      vertex 6.76336 21.4271 4
      vertex 7.42705 20.7634 26
      vertex 7.42705 20.7634 4
    endloop
  endfacet
  facet normal 0.156403 -0.987693 0
    outer loop
      vertex 5 16 4
      vertex 5.92705 16.1468 26
      vertex 5 16 26
    endloop
  endfacet
  facet normal 0.156403 -0.987693 0
    outer loop
      vertex 5.92705 16.1468 26
      vertex 5 16 4
      vertex 5.92705 16.1468 4
    endloop
  endfacet
  facet normal -0.453973 0.891016 0
    outer loop
      vertex 4.07295 21.8532 4
      vertex 3.23664 21.4271 26
      vertex 4.07295 21.8532 26
    endloop
  endfacet
  facet normal -0.453973 0.891016 0
    outer loop
      vertex 3.23664 21.4271 26
      vertex 4.07295 21.8532 4
      vertex 3.23664 21.4271 4
    endloop
  endfacet
  facet normal 0.453973 -0.891016 0
    outer loop
      vertex 5.92705 16.1468 4
      vertex 6.76336 16.5729 26
      vertex 5.92705 16.1468 26
    endloop
  endfacet
  facet normal 0.453973 -0.891016 0
    outer loop
      vertex 6.76336 16.5729 26
      vertex 5.92705 16.1468 4
      vertex 6.76336 16.5729 4
    endloop
  endfacet
  facet normal 0.707112 -0.707101 0
    outer loop
      vertex 6.76336 16.5729 26
      vertex 7.42705 17.2366 4
      vertex 7.42705 17.2366 26
    endloop
  endfacet
  facet normal 0.707112 -0.707101 0
    outer loop
      vertex 7.42705 17.2366 4
      vertex 6.76336 16.5729 26
      vertex 6.76336 16.5729 4
    endloop
  endfacet
  facet normal -0.156403 -0.987693 0
    outer loop
      vertex 4.07295 16.1468 4
      vertex 5 16 26
      vertex 4.07295 16.1468 26
    endloop
  endfacet
  facet normal -0.156403 -0.987693 -0
    outer loop
      vertex 5 16 26
      vertex 4.07295 16.1468 4
      vertex 5 16 4
    endloop
  endfacet
  facet normal -0.891005 0.453994 0
    outer loop
      vertex 2.14683 19.9271 4
      vertex 2.57295 20.7634 26
      vertex 2.57295 20.7634 4
    endloop
  endfacet
  facet normal -0.891005 0.453994 0
    outer loop
      vertex 2.57295 20.7634 26
      vertex 2.14683 19.9271 4
      vertex 2.14683 19.9271 26
    endloop
  endfacet
  facet normal 0.98769 -0.156426 0
    outer loop
      vertex 7.85317 18.0729 26
      vertex 8 19 4
      vertex 8 19 26
    endloop
  endfacet
  facet normal 0.98769 -0.156426 0
    outer loop
      vertex 8 19 4
      vertex 7.85317 18.0729 26
      vertex 7.85317 18.0729 4
    endloop
  endfacet
  facet normal -0.98769 0.156426 0
    outer loop
      vertex 2 19 4
      vertex 2.14683 19.9271 26
      vertex 2.14683 19.9271 4
    endloop
  endfacet
  facet normal -0.98769 0.156426 0
    outer loop
      vertex 2.14683 19.9271 26
      vertex 2 19 4
      vertex 2 19 26
    endloop
  endfacet
  facet normal 0.891005 -0.453994 0
    outer loop
      vertex 7.42705 17.2366 26
      vertex 7.85317 18.0729 4
      vertex 7.85317 18.0729 26
    endloop
  endfacet
  facet normal 0.891005 -0.453994 0
    outer loop
      vertex 7.85317 18.0729 4
      vertex 7.42705 17.2366 26
      vertex 7.42705 17.2366 4
    endloop
  endfacet
  facet normal 0.156403 0.987693 -0
    outer loop
      vertex 5.92705 21.8532 4
      vertex 5 22 26
      vertex 5.92705 21.8532 26
    endloop
  endfacet
  facet normal 0.156403 0.987693 0
    outer loop
      vertex 5 22 26
      vertex 5.92705 21.8532 4
      vertex 5 22 4
    endloop
  endfacet
  facet normal 0.453973 0.891016 -0
    outer loop
      vertex 6.76336 21.4271 4
      vertex 5.92705 21.8532 26
      vertex 6.76336 21.4271 26
    endloop
  endfacet
  facet normal 0.453973 0.891016 0
    outer loop
      vertex 5.92705 21.8532 26
      vertex 6.76336 21.4271 4
      vertex 5.92705 21.8532 4
    endloop
  endfacet
  facet normal -0.891005 -0.453994 0
    outer loop
      vertex 2.57295 17.2366 4
      vertex 2.14683 18.0729 26
      vertex 2.14683 18.0729 4
    endloop
  endfacet
  facet normal -0.891005 -0.453994 0
    outer loop
      vertex 2.14683 18.0729 26
      vertex 2.57295 17.2366 4
      vertex 2.57295 17.2366 26
    endloop
  endfacet
  facet normal -0.156403 0.987693 0
    outer loop
      vertex 5 22 4
      vertex 4.07295 21.8532 26
      vertex 5 22 26
    endloop
  endfacet
  facet normal -0.156403 0.987693 0
    outer loop
      vertex 4.07295 21.8532 26
      vertex 5 22 4
      vertex 4.07295 21.8532 4
    endloop
  endfacet
  facet normal -0.707065 -0.707148 0
    outer loop
      vertex 3 16.8096 4
      vertex 2.57295 17.2366 26
      vertex 2.57295 17.2366 4
    endloop
  endfacet
  facet normal -0.707196 -0.707017 -0
    outer loop
      vertex 3.23664 16.5729 26
      vertex 3 16.8096 4
      vertex 3.23664 16.5729 4
    endloop
  endfacet
  facet normal -0.707112 -0.707101 -1.81386e-06
    outer loop
      vertex 3 16.8096 4
      vertex 3.23664 16.5729 26
      vertex 2.57295 17.2366 26
    endloop
  endfacet
  facet normal 0 0 1
    outer loop
      vertex 6.6 19 26
      vertex 8 19 26
      vertex 7.85317 19.9271 26
    endloop
  endfacet
  facet normal 0 0 1
    outer loop
      vertex 6.47821 19.6123 26
      vertex 7.85317 19.9271 26
      vertex 7.42705 20.7634 26
    endloop
  endfacet
  facet normal 0 0 1
    outer loop
      vertex 8 19 26
      vertex 6.6 19 26
      vertex 7.85317 18.0729 26
    endloop
  endfacet
  facet normal 0 0 1
    outer loop
      vertex 6.13137 20.1314 26
      vertex 7.42705 20.7634 26
      vertex 6.76336 21.4271 26
    endloop
  endfacet
  facet normal -0 0 1
    outer loop
      vertex 6.47821 18.3877 26
      vertex 7.85317 18.0729 26
      vertex 6.6 19 26
    endloop
  endfacet
  facet normal 0 0 1
    outer loop
      vertex 7.85317 18.0729 26
      vertex 6.47821 18.3877 26
      vertex 7.42705 17.2366 26
    endloop
  endfacet
  facet normal 0 0 1
    outer loop
      vertex 7.85317 19.9271 26
      vertex 6.47821 19.6123 26
      vertex 6.6 19 26
    endloop
  endfacet
  facet normal 0 0 1
    outer loop
      vertex 7.42705 20.7634 26
      vertex 6.13137 20.1314 26
      vertex 6.47821 19.6123 26
    endloop
  endfacet
  facet normal 0 0 1
    outer loop
      vertex 5.61229 20.4782 26
      vertex 6.76336 21.4271 26
      vertex 5.92705 21.8532 26
    endloop
  endfacet
  facet normal 0 0 1
    outer loop
      vertex 6.76336 21.4271 26
      vertex 5.61229 20.4782 26
      vertex 6.13137 20.1314 26
    endloop
  endfacet
  facet normal 0 0 1
    outer loop
      vertex 5 20.6 26
      vertex 5.92705 21.8532 26
      vertex 5 22 26
    endloop
  endfacet
  facet normal 0 0 1
    outer loop
      vertex 5.92705 21.8532 26
      vertex 5 20.6 26
      vertex 5.61229 20.4782 26
    endloop
  endfacet
  facet normal -0 0 1
    outer loop
      vertex 4.07295 21.8532 26
      vertex 5 20.6 26
      vertex 5 22 26
    endloop
  endfacet
  facet normal 0 0 1
    outer loop
      vertex 5 20.6 26
      vertex 4.07295 21.8532 26
      vertex 4.38771 20.4782 26
    endloop
  endfacet
  facet normal -0 0 1
    outer loop
      vertex 3.23664 21.4271 26
      vertex 4.38771 20.4782 26
      vertex 4.07295 21.8532 26
    endloop
  endfacet
  facet normal 0 0 1
    outer loop
      vertex 4.38771 20.4782 26
      vertex 3.23664 21.4271 26
      vertex 3.86863 20.1314 26
    endloop
  endfacet
  facet normal 0 0 1
    outer loop
      vertex 3.86863 20.1314 26
      vertex 2.57295 20.7634 26
      vertex 3.52179 19.6123 26
    endloop
  endfacet
  facet normal -0 0 1
    outer loop
      vertex 2.57295 20.7634 26
      vertex 3.86863 20.1314 26
      vertex 3.23664 21.4271 26
    endloop
  endfacet
  facet normal -0 0 1
    outer loop
      vertex 6.13137 17.8686 26
      vertex 7.42705 17.2366 26
      vertex 6.47821 18.3877 26
    endloop
  endfacet
  facet normal 0 0 1
    outer loop
      vertex 7.42705 17.2366 26
      vertex 6.13137 17.8686 26
      vertex 6.76336 16.5729 26
    endloop
  endfacet
  facet normal -0 0 1
    outer loop
      vertex 5.61229 17.5218 26
      vertex 6.76336 16.5729 26
      vertex 6.13137 17.8686 26
    endloop
  endfacet
  facet normal 0 0 1
    outer loop
      vertex 6.76336 16.5729 26
      vertex 5.61229 17.5218 26
      vertex 5.92705 16.1468 26
    endloop
  endfacet
  facet normal -0 0 1
    outer loop
      vertex 5 17.4 26
      vertex 5.92705 16.1468 26
      vertex 5.61229 17.5218 26
    endloop
  endfacet
  facet normal 0 0 1
    outer loop
      vertex 5 17.4 26
      vertex 5 16 26
      vertex 5.92705 16.1468 26
    endloop
  endfacet
  facet normal 0 0 1
    outer loop
      vertex 4.07295 16.1468 26
      vertex 5 17.4 26
      vertex 4.38771 17.5218 26
    endloop
  endfacet
  facet normal 0 0 1
    outer loop
      vertex 5 17.4 26
      vertex 4.07295 16.1468 26
      vertex 5 16 26
    endloop
  endfacet
  facet normal 0 0 1
    outer loop
      vertex 3.23664 16.5729 26
      vertex 4.38771 17.5218 26
      vertex 3.86863 17.8686 26
    endloop
  endfacet
  facet normal 0 0 1
    outer loop
      vertex 2.57295 17.2366 26
      vertex 3.86863 17.8686 26
      vertex 3.52179 18.3877 26
    endloop
  endfacet
  facet normal 0 0 1
    outer loop
      vertex 4.38771 17.5218 26
      vertex 3.23664 16.5729 26
      vertex 4.07295 16.1468 26
    endloop
  endfacet
  facet normal 0 0 1
    outer loop
      vertex 2.14683 18.0729 26
      vertex 3.52179 18.3877 26
      vertex 3.4 19 26
    endloop
  endfacet
  facet normal -0 0 1
    outer loop
      vertex 2.14683 19.9271 26
      vertex 3.52179 19.6123 26
      vertex 2.57295 20.7634 26
    endloop
  endfacet
  facet normal 0 0 1
    outer loop
      vertex 3.52179 19.6123 26
      vertex 2.14683 19.9271 26
      vertex 3.4 19 26
    endloop
  endfacet
  facet normal 0 0 1
    outer loop
      vertex 3.86863 17.8686 26
      vertex 2.57295 17.2366 26
      vertex 3.23664 16.5729 26
    endloop
  endfacet
  facet normal 0 0 1
    outer loop
      vertex 2 19 26
      vertex 3.4 19 26
      vertex 2.14683 19.9271 26
    endloop
  endfacet
  facet normal 0 0 1
    outer loop
      vertex 3.52179 18.3877 26
      vertex 2.14683 18.0729 26
      vertex 2.57295 17.2366 26
    endloop
  endfacet
  facet normal 0 0 1
    outer loop
      vertex 3.4 19 26
      vertex 2 19 26
      vertex 2.14683 18.0729 26
    endloop
  endfacet
  facet normal -0.707196 0.707017 0
    outer loop
      vertex 3 21.1904 4
      vertex 3.23664 21.4271 26
      vertex 3.23664 21.4271 4
    endloop
  endfacet
  facet normal -0.707065 0.707148 0
    outer loop
      vertex 2.57295 20.7634 26
      vertex 3 21.1904 4
      vertex 2.57295 20.7634 4
    endloop
  endfacet
  facet normal -0.707112 0.707101 -1.81386e-06
    outer loop
      vertex 3 21.1904 4
      vertex 2.57295 20.7634 26
      vertex 3.23664 21.4271 26
    endloop
  endfacet
  facet normal -0.98769 -0.156426 0
    outer loop
      vertex 2.14683 18.0729 4
      vertex 2 19 26
      vertex 2 19 4
    endloop
  endfacet
  facet normal -0.98769 -0.156426 0
    outer loop
      vertex 2 19 26
      vertex 2.14683 18.0729 4
      vertex 2.14683 18.0729 26
    endloop
  endfacet
  facet normal -0.453973 -0.891016 0
    outer loop
      vertex 3.23664 16.5729 4
      vertex 4.07295 16.1468 26
      vertex 3.23664 16.5729 26
    endloop
  endfacet
  facet normal -0.453973 -0.891016 -0
    outer loop
      vertex 4.07295 16.1468 26
      vertex 3.23664 16.5729 4
      vertex 4.07295 16.1468 4
    endloop
  endfacet
  facet normal 0.555528 -0.831498 0
    outer loop
      vertex 3.86863 20.1314 4
      vertex 4.38771 20.4782 26
      vertex 3.86863 20.1314 26
    endloop
  endfacet
  facet normal 0.555528 -0.831498 0
    outer loop
      vertex 4.38771 20.4782 26
      vertex 3.86863 20.1314 4
      vertex 4.38771 20.4782 4
    endloop
  endfacet
  facet normal -0.831478 -0.555557 0
    outer loop
      vertex 6.47821 19.6123 4
      vertex 6.13137 20.1314 26
      vertex 6.13137 20.1314 4
    endloop
  endfacet
  facet normal -0.831478 -0.555557 0
    outer loop
      vertex 6.13137 20.1314 26
      vertex 6.47821 19.6123 4
      vertex 6.47821 19.6123 26
    endloop
  endfacet
  facet normal -0.980787 -0.195084 0
    outer loop
      vertex 6.6 19 4
      vertex 6.47821 19.6123 26
      vertex 6.47821 19.6123 4
    endloop
  endfacet
  facet normal -0.980787 -0.195084 0
    outer loop
      vertex 6.47821 19.6123 26
      vertex 6.6 19 4
      vertex 6.6 19 26
    endloop
  endfacet
  facet normal 0.831478 -0.555557 0
    outer loop
      vertex 3.52179 19.6123 26
      vertex 3.86863 20.1314 4
      vertex 3.86863 20.1314 26
    endloop
  endfacet
  facet normal 0.831478 -0.555557 0
    outer loop
      vertex 3.86863 20.1314 4
      vertex 3.52179 19.6123 26
      vertex 3.52179 19.6123 4
    endloop
  endfacet
  facet normal 0.195103 0.980783 -0
    outer loop
      vertex 5 17.4 4
      vertex 4.38771 17.5218 26
      vertex 5 17.4 26
    endloop
  endfacet
  facet normal 0.195103 0.980783 0
    outer loop
      vertex 4.38771 17.5218 26
      vertex 5 17.4 4
      vertex 4.38771 17.5218 4
    endloop
  endfacet
  facet normal -0.195103 0.980783 0
    outer loop
      vertex 5.61229 17.5218 4
      vertex 5 17.4 26
      vertex 5.61229 17.5218 26
    endloop
  endfacet
  facet normal -0.195103 0.980783 0
    outer loop
      vertex 5 17.4 26
      vertex 5.61229 17.5218 4
      vertex 5 17.4 4
    endloop
  endfacet
  facet normal -0.555528 0.831498 0
    outer loop
      vertex 6.13137 17.8686 4
      vertex 5.61229 17.5218 26
      vertex 6.13137 17.8686 26
    endloop
  endfacet
  facet normal -0.555528 0.831498 0
    outer loop
      vertex 5.61229 17.5218 26
      vertex 6.13137 17.8686 4
      vertex 5.61229 17.5218 4
    endloop
  endfacet
  facet normal -0.831478 0.555557 0
    outer loop
      vertex 6.13137 17.8686 4
      vertex 6.47821 18.3877 26
      vertex 6.47821 18.3877 4
    endloop
  endfacet
  facet normal -0.831478 0.555557 0
    outer loop
      vertex 6.47821 18.3877 26
      vertex 6.13137 17.8686 4
      vertex 6.13137 17.8686 26
    endloop
  endfacet
  facet normal 0.980787 -0.195084 0
    outer loop
      vertex 3.4 19 26
      vertex 3.52179 19.6123 4
      vertex 3.52179 19.6123 26
    endloop
  endfacet
  facet normal 0.980787 -0.195084 0
    outer loop
      vertex 3.52179 19.6123 4
      vertex 3.4 19 26
      vertex 3.4 19 4
    endloop
  endfacet
  facet normal -0.980787 0.195084 0
    outer loop
      vertex 6.47821 18.3877 4
      vertex 6.6 19 26
      vertex 6.6 19 4
    endloop
  endfacet
  facet normal -0.980787 0.195084 0
    outer loop
      vertex 6.6 19 26
      vertex 6.47821 18.3877 4
      vertex 6.47821 18.3877 26
    endloop
  endfacet
  facet normal 0.195103 -0.980783 0
    outer loop
      vertex 4.38771 20.4782 4
      vertex 5 20.6 26
      vertex 4.38771 20.4782 26
    endloop
  endfacet
  facet normal 0.195103 -0.980783 0
    outer loop
      vertex 5 20.6 26
      vertex 4.38771 20.4782 4
      vertex 5 20.6 4
    endloop
  endfacet
  facet normal -0.195103 -0.980783 0
    outer loop
      vertex 5 20.6 4
      vertex 5.61229 20.4782 26
      vertex 5 20.6 26
    endloop
  endfacet
  facet normal -0.195103 -0.980783 -0
    outer loop
      vertex 5.61229 20.4782 26
      vertex 5 20.6 4
      vertex 5.61229 20.4782 4
    endloop
  endfacet
  facet normal -0.555528 -0.831498 0
    outer loop
      vertex 5.61229 20.4782 4
      vertex 6.13137 20.1314 26
      vertex 5.61229 20.4782 26
    endloop
  endfacet
  facet normal -0.555528 -0.831498 -0
    outer loop
      vertex 6.13137 20.1314 26
      vertex 5.61229 20.4782 4
      vertex 6.13137 20.1314 4
    endloop
  endfacet
  facet normal 0.831478 0.555557 0
    outer loop
      vertex 3.86863 17.8686 26
      vertex 3.52179 18.3877 4
      vertex 3.52179 18.3877 26
    endloop
  endfacet
  facet normal 0.831478 0.555557 0
    outer loop
      vertex 3.52179 18.3877 4
      vertex 3.86863 17.8686 26
      vertex 3.86863 17.8686 4
    endloop
  endfacet
  facet normal 0.980787 0.195084 0
    outer loop
      vertex 3.52179 18.3877 26
      vertex 3.4 19 4
      vertex 3.4 19 26
    endloop
  endfacet
  facet normal 0.980787 0.195084 0
    outer loop
      vertex 3.4 19 4
      vertex 3.52179 18.3877 26
      vertex 3.52179 18.3877 4
    endloop
  endfacet
  facet normal 0.555528 0.831498 -0
    outer loop
      vertex 4.38771 17.5218 4
      vertex 3.86863 17.8686 26
      vertex 4.38771 17.5218 26
    endloop
  endfacet
  facet normal 0.555528 0.831498 0
    outer loop
      vertex 3.86863 17.8686 26
      vertex 4.38771 17.5218 4
      vertex 3.86863 17.8686 4
    endloop
  endfacet
  facet normal 0.891016 0.453973 0
    outer loop
      vertex 50.8532 5.92705 26
      vertex 50.4271 6.76336 4
      vertex 50.4271 6.76336 26
    endloop
  endfacet
  facet normal 0.891016 0.453973 0
    outer loop
      vertex 50.4271 6.76336 4
      vertex 50.8532 5.92705 26
      vertex 50.8532 5.92705 4
    endloop
  endfacet
  facet normal 0.987693 0.156403 0
    outer loop
      vertex 51 5 26
      vertex 50.8532 5.92705 4
      vertex 50.8532 5.92705 26
    endloop
  endfacet
  facet normal 0.987693 0.156403 0
    outer loop
      vertex 50.8532 5.92705 4
      vertex 51 5 26
      vertex 51 5 4
    endloop
  endfacet
  facet normal 0.707101 0.707112 -0
    outer loop
      vertex 50.4271 6.76336 4
      vertex 49.7634 7.42705 26
      vertex 50.4271 6.76336 26
    endloop
  endfacet
  facet normal 0.707101 0.707112 0
    outer loop
      vertex 49.7634 7.42705 26
      vertex 50.4271 6.76336 4
      vertex 49.7634 7.42705 4
    endloop
  endfacet
  facet normal 0.156426 -0.98769 0
    outer loop
      vertex 48 2 4
      vertex 48.9271 2.14683 26
      vertex 48 2 26
    endloop
  endfacet
  facet normal 0.156426 -0.98769 0
    outer loop
      vertex 48.9271 2.14683 26
      vertex 48 2 4
      vertex 48.9271 2.14683 4
    endloop
  endfacet
  facet normal -0.453994 0.891005 0
    outer loop
      vertex 47.0729 7.85317 4
      vertex 46.2366 7.42705 26
      vertex 47.0729 7.85317 26
    endloop
  endfacet
  facet normal -0.453994 0.891005 0
    outer loop
      vertex 46.2366 7.42705 26
      vertex 47.0729 7.85317 4
      vertex 46.2366 7.42705 4
    endloop
  endfacet
  facet normal 0.453994 -0.891005 0
    outer loop
      vertex 48.9271 2.14683 4
      vertex 49.7634 2.57295 26
      vertex 48.9271 2.14683 26
    endloop
  endfacet
  facet normal 0.453994 -0.891005 0
    outer loop
      vertex 49.7634 2.57295 26
      vertex 48.9271 2.14683 4
      vertex 49.7634 2.57295 4
    endloop
  endfacet
  facet normal 0.707148 -0.707065 0
    outer loop
      vertex 50.1904 3 4
      vertex 49.7634 2.57295 26
      vertex 49.7634 2.57295 4
    endloop
  endfacet
  facet normal 0.707101 -0.707112 -1.81386e-06
    outer loop
      vertex 49.7634 2.57295 26
      vertex 50.1904 3 4
      vertex 50.4271 3.23664 26
    endloop
  endfacet
  facet normal 0.707017 -0.707196 0
    outer loop
      vertex 50.4271 3.23664 26
      vertex 50.1904 3 4
      vertex 50.4271 3.23664 4
    endloop
  endfacet
  facet normal -0.156426 -0.98769 0
    outer loop
      vertex 47.0729 2.14683 4
      vertex 48 2 26
      vertex 47.0729 2.14683 26
    endloop
  endfacet
  facet normal -0.156426 -0.98769 -0
    outer loop
      vertex 48 2 26
      vertex 47.0729 2.14683 4
      vertex 48 2 4
    endloop
  endfacet
  facet normal -0.891016 0.453973 0
    outer loop
      vertex 45.1468 5.92705 4
      vertex 45.5729 6.76336 26
      vertex 45.5729 6.76336 4
    endloop
  endfacet
  facet normal -0.891016 0.453973 0
    outer loop
      vertex 45.5729 6.76336 26
      vertex 45.1468 5.92705 4
      vertex 45.1468 5.92705 26
    endloop
  endfacet
  facet normal 0.987693 -0.156403 0
    outer loop
      vertex 50.8532 4.07295 26
      vertex 51 5 4
      vertex 51 5 26
    endloop
  endfacet
  facet normal 0.987693 -0.156403 0
    outer loop
      vertex 51 5 4
      vertex 50.8532 4.07295 26
      vertex 50.8532 4.07295 4
    endloop
  endfacet
  facet normal -0.987693 0.156403 0
    outer loop
      vertex 45 5 4
      vertex 45.1468 5.92705 26
      vertex 45.1468 5.92705 4
    endloop
  endfacet
  facet normal -0.987693 0.156403 0
    outer loop
      vertex 45.1468 5.92705 26
      vertex 45 5 4
      vertex 45 5 26
    endloop
  endfacet
  facet normal 0.891016 -0.453973 0
    outer loop
      vertex 50.4271 3.23664 26
      vertex 50.8532 4.07295 4
      vertex 50.8532 4.07295 26
    endloop
  endfacet
  facet normal 0.891016 -0.453973 0
    outer loop
      vertex 50.8532 4.07295 4
      vertex 50.4271 3.23664 26
      vertex 50.4271 3.23664 4
    endloop
  endfacet
  facet normal 0.156426 0.98769 -0
    outer loop
      vertex 48.9271 7.85317 4
      vertex 48 8 26
      vertex 48.9271 7.85317 26
    endloop
  endfacet
  facet normal 0.156426 0.98769 0
    outer loop
      vertex 48 8 26
      vertex 48.9271 7.85317 4
      vertex 48 8 4
    endloop
  endfacet
  facet normal 0.453994 0.891005 -0
    outer loop
      vertex 49.7634 7.42705 4
      vertex 48.9271 7.85317 26
      vertex 49.7634 7.42705 26
    endloop
  endfacet
  facet normal 0.453994 0.891005 0
    outer loop
      vertex 48.9271 7.85317 26
      vertex 49.7634 7.42705 4
      vertex 48.9271 7.85317 4
    endloop
  endfacet
  facet normal -0.891016 -0.453973 0
    outer loop
      vertex 45.5729 3.23664 4
      vertex 45.1468 4.07295 26
      vertex 45.1468 4.07295 4
    endloop
  endfacet
  facet normal -0.891016 -0.453973 0
    outer loop
      vertex 45.1468 4.07295 26
      vertex 45.5729 3.23664 4
      vertex 45.5729 3.23664 26
    endloop
  endfacet
  facet normal -0.156426 0.98769 0
    outer loop
      vertex 48 8 4
      vertex 47.0729 7.85317 26
      vertex 48 8 26
    endloop
  endfacet
  facet normal -0.156426 0.98769 0
    outer loop
      vertex 47.0729 7.85317 26
      vertex 48 8 4
      vertex 47.0729 7.85317 4
    endloop
  endfacet
  facet normal -0.707017 -0.707196 0
    outer loop
      vertex 45.8096 3 4
      vertex 45.5729 3.23664 26
      vertex 45.5729 3.23664 4
    endloop
  endfacet
  facet normal -0.707101 -0.707112 -1.81386e-06
    outer loop
      vertex 45.5729 3.23664 26
      vertex 45.8096 3 4
      vertex 46.2366 2.57295 26
    endloop
  endfacet
  facet normal -0.707148 -0.707065 -0
    outer loop
      vertex 46.2366 2.57295 26
      vertex 45.8096 3 4
      vertex 46.2366 2.57295 4
    endloop
  endfacet
  facet normal 0 0 1
    outer loop
      vertex 49.6 5 26
      vertex 51 5 26
      vertex 50.8532 5.92705 26
    endloop
  endfacet
  facet normal 0 0 1
    outer loop
      vertex 49.4782 5.61229 26
      vertex 50.8532 5.92705 26
      vertex 50.4271 6.76336 26
    endloop
  endfacet
  facet normal 0 0 1
    outer loop
      vertex 51 5 26
      vertex 49.6 5 26
      vertex 50.8532 4.07295 26
    endloop
  endfacet
  facet normal 0 0 1
    outer loop
      vertex 49.1314 6.13137 26
      vertex 50.4271 6.76336 26
      vertex 49.7634 7.42705 26
    endloop
  endfacet
  facet normal -0 0 1
    outer loop
      vertex 49.4782 4.38771 26
      vertex 50.8532 4.07295 26
      vertex 49.6 5 26
    endloop
  endfacet
  facet normal 0 0 1
    outer loop
      vertex 50.8532 4.07295 26
      vertex 49.4782 4.38771 26
      vertex 50.4271 3.23664 26
    endloop
  endfacet
  facet normal 0 0 1
    outer loop
      vertex 50.8532 5.92705 26
      vertex 49.4782 5.61229 26
      vertex 49.6 5 26
    endloop
  endfacet
  facet normal 0 0 1
    outer loop
      vertex 50.4271 6.76336 26
      vertex 49.1314 6.13137 26
      vertex 49.4782 5.61229 26
    endloop
  endfacet
  facet normal 0 0 1
    outer loop
      vertex 48.6123 6.47821 26
      vertex 49.7634 7.42705 26
      vertex 48.9271 7.85317 26
    endloop
  endfacet
  facet normal 0 0 1
    outer loop
      vertex 49.7634 7.42705 26
      vertex 48.6123 6.47821 26
      vertex 49.1314 6.13137 26
    endloop
  endfacet
  facet normal 0 0 1
    outer loop
      vertex 48 6.6 26
      vertex 48.9271 7.85317 26
      vertex 48 8 26
    endloop
  endfacet
  facet normal 0 0 1
    outer loop
      vertex 48.9271 7.85317 26
      vertex 48 6.6 26
      vertex 48.6123 6.47821 26
    endloop
  endfacet
  facet normal -0 0 1
    outer loop
      vertex 47.0729 7.85317 26
      vertex 48 6.6 26
      vertex 48 8 26
    endloop
  endfacet
  facet normal 0 0 1
    outer loop
      vertex 48 6.6 26
      vertex 47.0729 7.85317 26
      vertex 47.3877 6.47821 26
    endloop
  endfacet
  facet normal -0 0 1
    outer loop
      vertex 46.2366 7.42705 26
      vertex 47.3877 6.47821 26
      vertex 47.0729 7.85317 26
    endloop
  endfacet
  facet normal 0 0 1
    outer loop
      vertex 47.3877 6.47821 26
      vertex 46.2366 7.42705 26
      vertex 46.8686 6.13137 26
    endloop
  endfacet
  facet normal 0 0 1
    outer loop
      vertex 46.8686 6.13137 26
      vertex 45.5729 6.76336 26
      vertex 46.5218 5.61229 26
    endloop
  endfacet
  facet normal -0 0 1
    outer loop
      vertex 45.5729 6.76336 26
      vertex 46.8686 6.13137 26
      vertex 46.2366 7.42705 26
    endloop
  endfacet
  facet normal -0 0 1
    outer loop
      vertex 49.1314 3.86863 26
      vertex 50.4271 3.23664 26
      vertex 49.4782 4.38771 26
    endloop
  endfacet
  facet normal 0 0 1
    outer loop
      vertex 50.4271 3.23664 26
      vertex 49.1314 3.86863 26
      vertex 49.7634 2.57295 26
    endloop
  endfacet
  facet normal -0 0 1
    outer loop
      vertex 48.6123 3.52179 26
      vertex 49.7634 2.57295 26
      vertex 49.1314 3.86863 26
    endloop
  endfacet
  facet normal 0 0 1
    outer loop
      vertex 49.7634 2.57295 26
      vertex 48.6123 3.52179 26
      vertex 48.9271 2.14683 26
    endloop
  endfacet
  facet normal -0 0 1
    outer loop
      vertex 48 3.4 26
      vertex 48.9271 2.14683 26
      vertex 48.6123 3.52179 26
    endloop
  endfacet
  facet normal 0 0 1
    outer loop
      vertex 48 3.4 26
      vertex 48 2 26
      vertex 48.9271 2.14683 26
    endloop
  endfacet
  facet normal 0 0 1
    outer loop
      vertex 47.0729 2.14683 26
      vertex 48 3.4 26
      vertex 47.3877 3.52179 26
    endloop
  endfacet
  facet normal 0 0 1
    outer loop
      vertex 48 3.4 26
      vertex 47.0729 2.14683 26
      vertex 48 2 26
    endloop
  endfacet
  facet normal 0 0 1
    outer loop
      vertex 46.2366 2.57295 26
      vertex 47.3877 3.52179 26
      vertex 46.8686 3.86863 26
    endloop
  endfacet
  facet normal 0 0 1
    outer loop
      vertex 45.5729 3.23664 26
      vertex 46.8686 3.86863 26
      vertex 46.5218 4.38771 26
    endloop
  endfacet
  facet normal 0 0 1
    outer loop
      vertex 47.3877 3.52179 26
      vertex 46.2366 2.57295 26
      vertex 47.0729 2.14683 26
    endloop
  endfacet
  facet normal 0 0 1
    outer loop
      vertex 45.1468 4.07295 26
      vertex 46.5218 4.38771 26
      vertex 46.4 5 26
    endloop
  endfacet
  facet normal -0 0 1
    outer loop
      vertex 45.1468 5.92705 26
      vertex 46.5218 5.61229 26
      vertex 45.5729 6.76336 26
    endloop
  endfacet
  facet normal 0 0 1
    outer loop
      vertex 46.5218 5.61229 26
      vertex 45.1468 5.92705 26
      vertex 46.4 5 26
    endloop
  endfacet
  facet normal 0 0 1
    outer loop
      vertex 46.8686 3.86863 26
      vertex 45.5729 3.23664 26
      vertex 46.2366 2.57295 26
    endloop
  endfacet
  facet normal 0 0 1
    outer loop
      vertex 45 5 26
      vertex 46.4 5 26
      vertex 45.1468 5.92705 26
    endloop
  endfacet
  facet normal 0 0 1
    outer loop
      vertex 46.5218 4.38771 26
      vertex 45.1468 4.07295 26
      vertex 45.5729 3.23664 26
    endloop
  endfacet
  facet normal 0 0 1
    outer loop
      vertex 46.4 5 26
      vertex 45 5 26
      vertex 45.1468 4.07295 26
    endloop
  endfacet
  facet normal -0.707101 0.707112 0
    outer loop
      vertex 46.2366 7.42705 4
      vertex 45.5729 6.76336 26
      vertex 46.2366 7.42705 26
    endloop
  endfacet
  facet normal -0.707101 0.707112 0
    outer loop
      vertex 45.5729 6.76336 26
      vertex 46.2366 7.42705 4
      vertex 45.5729 6.76336 4
    endloop
  endfacet
  facet normal -0.987693 -0.156403 0
    outer loop
      vertex 45.1468 4.07295 4
      vertex 45 5 26
      vertex 45 5 4
    endloop
  endfacet
  facet normal -0.987693 -0.156403 0
    outer loop
      vertex 45 5 26
      vertex 45.1468 4.07295 4
      vertex 45.1468 4.07295 26
    endloop
  endfacet
  facet normal -0.453994 -0.891005 0
    outer loop
      vertex 46.2366 2.57295 4
      vertex 47.0729 2.14683 26
      vertex 46.2366 2.57295 26
    endloop
  endfacet
  facet normal -0.453994 -0.891005 -0
    outer loop
      vertex 47.0729 2.14683 26
      vertex 46.2366 2.57295 4
      vertex 47.0729 2.14683 4
    endloop
  endfacet
  facet normal 0.555557 -0.831478 0
    outer loop
      vertex 46.8686 6.13137 4
      vertex 47.3877 6.47821 26
      vertex 46.8686 6.13137 26
    endloop
  endfacet
  facet normal 0.555557 -0.831478 0
    outer loop
      vertex 47.3877 6.47821 26
      vertex 46.8686 6.13137 4
      vertex 47.3877 6.47821 4
    endloop
  endfacet
  facet normal -0.831498 -0.555528 0
    outer loop
      vertex 49.4782 5.61229 4
      vertex 49.1314 6.13137 26
      vertex 49.1314 6.13137 4
    endloop
  endfacet
  facet normal -0.831498 -0.555528 0
    outer loop
      vertex 49.1314 6.13137 26
      vertex 49.4782 5.61229 4
      vertex 49.4782 5.61229 26
    endloop
  endfacet
  facet normal -0.980783 -0.195103 0
    outer loop
      vertex 49.6 5 4
      vertex 49.4782 5.61229 26
      vertex 49.4782 5.61229 4
    endloop
  endfacet
  facet normal -0.980783 -0.195103 0
    outer loop
      vertex 49.4782 5.61229 26
      vertex 49.6 5 4
      vertex 49.6 5 26
    endloop
  endfacet
  facet normal 0.831498 -0.555528 0
    outer loop
      vertex 46.5218 5.61229 26
      vertex 46.8686 6.13137 4
      vertex 46.8686 6.13137 26
    endloop
  endfacet
  facet normal 0.831498 -0.555528 0
    outer loop
      vertex 46.8686 6.13137 4
      vertex 46.5218 5.61229 26
      vertex 46.5218 5.61229 4
    endloop
  endfacet
  facet normal 0.195084 0.980787 -0
    outer loop
      vertex 48 3.4 4
      vertex 47.3877 3.52179 26
      vertex 48 3.4 26
    endloop
  endfacet
  facet normal 0.195084 0.980787 0
    outer loop
      vertex 47.3877 3.52179 26
      vertex 48 3.4 4
      vertex 47.3877 3.52179 4
    endloop
  endfacet
  facet normal -0.195084 0.980787 0
    outer loop
      vertex 48.6123 3.52179 4
      vertex 48 3.4 26
      vertex 48.6123 3.52179 26
    endloop
  endfacet
  facet normal -0.195084 0.980787 0
    outer loop
      vertex 48 3.4 26
      vertex 48.6123 3.52179 4
      vertex 48 3.4 4
    endloop
  endfacet
  facet normal -0.555557 0.831478 0
    outer loop
      vertex 49.1314 3.86863 4
      vertex 48.6123 3.52179 26
      vertex 49.1314 3.86863 26
    endloop
  endfacet
  facet normal -0.555557 0.831478 0
    outer loop
      vertex 48.6123 3.52179 26
      vertex 49.1314 3.86863 4
      vertex 48.6123 3.52179 4
    endloop
  endfacet
  facet normal -0.831498 0.555528 0
    outer loop
      vertex 49.1314 3.86863 4
      vertex 49.4782 4.38771 26
      vertex 49.4782 4.38771 4
    endloop
  endfacet
  facet normal -0.831498 0.555528 0
    outer loop
      vertex 49.4782 4.38771 26
      vertex 49.1314 3.86863 4
      vertex 49.1314 3.86863 26
    endloop
  endfacet
  facet normal 0.980783 -0.195103 0
    outer loop
      vertex 46.4 5 26
      vertex 46.5218 5.61229 4
      vertex 46.5218 5.61229 26
    endloop
  endfacet
  facet normal 0.980783 -0.195103 0
    outer loop
      vertex 46.5218 5.61229 4
      vertex 46.4 5 26
      vertex 46.4 5 4
    endloop
  endfacet
  facet normal -0.980783 0.195103 0
    outer loop
      vertex 49.4782 4.38771 4
      vertex 49.6 5 26
      vertex 49.6 5 4
    endloop
  endfacet
  facet normal -0.980783 0.195103 0
    outer loop
      vertex 49.6 5 26
      vertex 49.4782 4.38771 4
      vertex 49.4782 4.38771 26
    endloop
  endfacet
  facet normal 0.195084 -0.980787 0
    outer loop
      vertex 47.3877 6.47821 4
      vertex 48 6.6 26
      vertex 47.3877 6.47821 26
    endloop
  endfacet
  facet normal 0.195084 -0.980787 0
    outer loop
      vertex 48 6.6 26
      vertex 47.3877 6.47821 4
      vertex 48 6.6 4
    endloop
  endfacet
  facet normal -0.195084 -0.980787 0
    outer loop
      vertex 48 6.6 4
      vertex 48.6123 6.47821 26
      vertex 48 6.6 26
    endloop
  endfacet
  facet normal -0.195084 -0.980787 -0
    outer loop
      vertex 48.6123 6.47821 26
      vertex 48 6.6 4
      vertex 48.6123 6.47821 4
    endloop
  endfacet
  facet normal -0.555557 -0.831478 0
    outer loop
      vertex 48.6123 6.47821 4
      vertex 49.1314 6.13137 26
      vertex 48.6123 6.47821 26
    endloop
  endfacet
  facet normal -0.555557 -0.831478 -0
    outer loop
      vertex 49.1314 6.13137 26
      vertex 48.6123 6.47821 4
      vertex 49.1314 6.13137 4
    endloop
  endfacet
  facet normal 0.831498 0.555528 0
    outer loop
      vertex 46.8686 3.86863 26
      vertex 46.5218 4.38771 4
      vertex 46.5218 4.38771 26
    endloop
  endfacet
  facet normal 0.831498 0.555528 0
    outer loop
      vertex 46.5218 4.38771 4
      vertex 46.8686 3.86863 26
      vertex 46.8686 3.86863 4
    endloop
  endfacet
  facet normal 0.980783 0.195103 0
    outer loop
      vertex 46.5218 4.38771 26
      vertex 46.4 5 4
      vertex 46.4 5 26
    endloop
  endfacet
  facet normal 0.980783 0.195103 0
    outer loop
      vertex 46.4 5 4
      vertex 46.5218 4.38771 26
      vertex 46.5218 4.38771 4
    endloop
  endfacet
  facet normal 0.555557 0.831478 -0
    outer loop
      vertex 47.3877 3.52179 4
      vertex 46.8686 3.86863 26
      vertex 47.3877 3.52179 26
    endloop
  endfacet
  facet normal 0.555557 0.831478 0
    outer loop
      vertex 46.8686 3.86863 26
      vertex 47.3877 3.52179 4
      vertex 46.8686 3.86863 4
    endloop
  endfacet
  facet normal 0.891013 0.453977 0
    outer loop
      vertex 50.8532 19.9271 26
      vertex 50.4271 20.7634 4
      vertex 50.4271 20.7634 26
    endloop
  endfacet
  facet normal 0.891013 0.453977 0
    outer loop
      vertex 50.4271 20.7634 4
      vertex 50.8532 19.9271 26
      vertex 50.8532 19.9271 4
    endloop
  endfacet
  facet normal 0.987695 0.156395 0
    outer loop
      vertex 51 19 26
      vertex 50.8532 19.9271 4
      vertex 50.8532 19.9271 26
    endloop
  endfacet
  facet normal 0.987695 0.156395 0
    outer loop
      vertex 50.8532 19.9271 4
      vertex 51 19 26
      vertex 51 19 4
    endloop
  endfacet
  facet normal 0.707107 0.707107 0
    outer loop
      vertex 50.4271 20.7634 26
      vertex 49.7634 21.4271 4
      vertex 49.7634 21.4271 26
    endloop
  endfacet
  facet normal 0.707107 0.707107 0
    outer loop
      vertex 49.7634 21.4271 4
      vertex 50.4271 20.7634 26
      vertex 50.4271 20.7634 4
    endloop
  endfacet
  facet normal 0.156395 -0.987695 0
    outer loop
      vertex 48 16 4
      vertex 48.9271 16.1468 26
      vertex 48 16 26
    endloop
  endfacet
  facet normal 0.156395 -0.987695 0
    outer loop
      vertex 48.9271 16.1468 26
      vertex 48 16 4
      vertex 48.9271 16.1468 4
    endloop
  endfacet
  facet normal -0.453977 0.891013 0
    outer loop
      vertex 47.0729 21.8532 4
      vertex 46.2366 21.4271 26
      vertex 47.0729 21.8532 26
    endloop
  endfacet
  facet normal -0.453977 0.891013 0
    outer loop
      vertex 46.2366 21.4271 26
      vertex 47.0729 21.8532 4
      vertex 46.2366 21.4271 4
    endloop
  endfacet
  facet normal 0.453977 -0.891013 0
    outer loop
      vertex 48.9271 16.1468 4
      vertex 49.7634 16.5729 26
      vertex 48.9271 16.1468 26
    endloop
  endfacet
  facet normal 0.453977 -0.891013 0
    outer loop
      vertex 49.7634 16.5729 26
      vertex 48.9271 16.1468 4
      vertex 49.7634 16.5729 4
    endloop
  endfacet
  facet normal 0.707107 -0.707107 0
    outer loop
      vertex 49.7634 16.5729 26
      vertex 50.4271 17.2366 4
      vertex 50.4271 17.2366 26
    endloop
  endfacet
  facet normal 0.707107 -0.707107 0
    outer loop
      vertex 50.4271 17.2366 4
      vertex 49.7634 16.5729 26
      vertex 49.7634 16.5729 4
    endloop
  endfacet
  facet normal -0.156395 -0.987695 0
    outer loop
      vertex 47.0729 16.1468 4
      vertex 48 16 26
      vertex 47.0729 16.1468 26
    endloop
  endfacet
  facet normal -0.156395 -0.987695 -0
    outer loop
      vertex 48 16 26
      vertex 47.0729 16.1468 4
      vertex 48 16 4
    endloop
  endfacet
  facet normal -0.891013 0.453977 0
    outer loop
      vertex 45.1468 19.9271 4
      vertex 45.5729 20.7634 26
      vertex 45.5729 20.7634 4
    endloop
  endfacet
  facet normal -0.891013 0.453977 0
    outer loop
      vertex 45.5729 20.7634 26
      vertex 45.1468 19.9271 4
      vertex 45.1468 19.9271 26
    endloop
  endfacet
  facet normal 0.987695 -0.156395 0
    outer loop
      vertex 50.8532 18.0729 26
      vertex 51 19 4
      vertex 51 19 26
    endloop
  endfacet
  facet normal 0.987695 -0.156395 0
    outer loop
      vertex 51 19 4
      vertex 50.8532 18.0729 26
      vertex 50.8532 18.0729 4
    endloop
  endfacet
  facet normal -0.987695 0.156395 0
    outer loop
      vertex 45 19 4
      vertex 45.1468 19.9271 26
      vertex 45.1468 19.9271 4
    endloop
  endfacet
  facet normal -0.987695 0.156395 0
    outer loop
      vertex 45.1468 19.9271 26
      vertex 45 19 4
      vertex 45 19 26
    endloop
  endfacet
  facet normal 0.891013 -0.453977 0
    outer loop
      vertex 50.4271 17.2366 26
      vertex 50.8532 18.0729 4
      vertex 50.8532 18.0729 26
    endloop
  endfacet
  facet normal 0.891013 -0.453977 0
    outer loop
      vertex 50.8532 18.0729 4
      vertex 50.4271 17.2366 26
      vertex 50.4271 17.2366 4
    endloop
  endfacet
  facet normal 0.156395 0.987695 -0
    outer loop
      vertex 48.9271 21.8532 4
      vertex 48 22 26
      vertex 48.9271 21.8532 26
    endloop
  endfacet
  facet normal 0.156395 0.987695 0
    outer loop
      vertex 48 22 26
      vertex 48.9271 21.8532 4
      vertex 48 22 4
    endloop
  endfacet
  facet normal 0.453977 0.891013 -0
    outer loop
      vertex 49.7634 21.4271 4
      vertex 48.9271 21.8532 26
      vertex 49.7634 21.4271 26
    endloop
  endfacet
  facet normal 0.453977 0.891013 0
    outer loop
      vertex 48.9271 21.8532 26
      vertex 49.7634 21.4271 4
      vertex 48.9271 21.8532 4
    endloop
  endfacet
  facet normal -0.891013 -0.453977 0
    outer loop
      vertex 45.5729 17.2366 4
      vertex 45.1468 18.0729 26
      vertex 45.1468 18.0729 4
    endloop
  endfacet
  facet normal -0.891013 -0.453977 0
    outer loop
      vertex 45.1468 18.0729 26
      vertex 45.5729 17.2366 4
      vertex 45.5729 17.2366 26
    endloop
  endfacet
  facet normal -0.156395 0.987695 0
    outer loop
      vertex 48 22 4
      vertex 47.0729 21.8532 26
      vertex 48 22 26
    endloop
  endfacet
  facet normal -0.156395 0.987695 0
    outer loop
      vertex 47.0729 21.8532 26
      vertex 48 22 4
      vertex 47.0729 21.8532 4
    endloop
  endfacet
  facet normal -0.707107 -0.707107 0
    outer loop
      vertex 46.2366 16.5729 4
      vertex 45.5729 17.2366 26
      vertex 45.5729 17.2366 4
    endloop
  endfacet
  facet normal -0.707107 -0.707107 0
    outer loop
      vertex 45.5729 17.2366 26
      vertex 46.2366 16.5729 4
      vertex 46.2366 16.5729 26
    endloop
  endfacet
  facet normal 0 0 1
    outer loop
      vertex 49.6 19 26
      vertex 51 19 26
      vertex 50.8532 19.9271 26
    endloop
  endfacet
  facet normal 0 0 1
    outer loop
      vertex 49.4782 19.6123 26
      vertex 50.8532 19.9271 26
      vertex 50.4271 20.7634 26
    endloop
  endfacet
  facet normal 0 0 1
    outer loop
      vertex 51 19 26
      vertex 49.6 19 26
      vertex 50.8532 18.0729 26
    endloop
  endfacet
  facet normal 0 0 1
    outer loop
      vertex 49.1314 20.1314 26
      vertex 50.4271 20.7634 26
      vertex 49.7634 21.4271 26
    endloop
  endfacet
  facet normal -0 0 1
    outer loop
      vertex 49.4782 18.3877 26
      vertex 50.8532 18.0729 26
      vertex 49.6 19 26
    endloop
  endfacet
  facet normal 0 0 1
    outer loop
      vertex 50.8532 18.0729 26
      vertex 49.4782 18.3877 26
      vertex 50.4271 17.2366 26
    endloop
  endfacet
  facet normal 0 0 1
    outer loop
      vertex 50.8532 19.9271 26
      vertex 49.4782 19.6123 26
      vertex 49.6 19 26
    endloop
  endfacet
  facet normal 0 0 1
    outer loop
      vertex 50.4271 20.7634 26
      vertex 49.1314 20.1314 26
      vertex 49.4782 19.6123 26
    endloop
  endfacet
  facet normal 0 0 1
    outer loop
      vertex 48.6123 20.4782 26
      vertex 49.7634 21.4271 26
      vertex 48.9271 21.8532 26
    endloop
  endfacet
  facet normal 0 0 1
    outer loop
      vertex 49.7634 21.4271 26
      vertex 48.6123 20.4782 26
      vertex 49.1314 20.1314 26
    endloop
  endfacet
  facet normal 0 0 1
    outer loop
      vertex 48 20.6 26
      vertex 48.9271 21.8532 26
      vertex 48 22 26
    endloop
  endfacet
  facet normal 0 0 1
    outer loop
      vertex 48.9271 21.8532 26
      vertex 48 20.6 26
      vertex 48.6123 20.4782 26
    endloop
  endfacet
  facet normal -0 0 1
    outer loop
      vertex 47.0729 21.8532 26
      vertex 48 20.6 26
      vertex 48 22 26
    endloop
  endfacet
  facet normal 0 0 1
    outer loop
      vertex 48 20.6 26
      vertex 47.0729 21.8532 26
      vertex 47.3877 20.4782 26
    endloop
  endfacet
  facet normal -0 0 1
    outer loop
      vertex 46.2366 21.4271 26
      vertex 47.3877 20.4782 26
      vertex 47.0729 21.8532 26
    endloop
  endfacet
  facet normal 0 0 1
    outer loop
      vertex 47.3877 20.4782 26
      vertex 46.2366 21.4271 26
      vertex 46.8686 20.1314 26
    endloop
  endfacet
  facet normal 0 0 1
    outer loop
      vertex 46.8686 20.1314 26
      vertex 45.5729 20.7634 26
      vertex 46.5218 19.6123 26
    endloop
  endfacet
  facet normal -0 0 1
    outer loop
      vertex 45.5729 20.7634 26
      vertex 46.8686 20.1314 26
      vertex 46.2366 21.4271 26
    endloop
  endfacet
  facet normal -0 0 1
    outer loop
      vertex 49.1314 17.8686 26
      vertex 50.4271 17.2366 26
      vertex 49.4782 18.3877 26
    endloop
  endfacet
  facet normal 0 0 1
    outer loop
      vertex 50.4271 17.2366 26
      vertex 49.1314 17.8686 26
      vertex 49.7634 16.5729 26
    endloop
  endfacet
  facet normal -0 0 1
    outer loop
      vertex 48.6123 17.5218 26
      vertex 49.7634 16.5729 26
      vertex 49.1314 17.8686 26
    endloop
  endfacet
  facet normal 0 0 1
    outer loop
      vertex 49.7634 16.5729 26
      vertex 48.6123 17.5218 26
      vertex 48.9271 16.1468 26
    endloop
  endfacet
  facet normal -0 0 1
    outer loop
      vertex 48 17.4 26
      vertex 48.9271 16.1468 26
      vertex 48.6123 17.5218 26
    endloop
  endfacet
  facet normal 0 0 1
    outer loop
      vertex 48 17.4 26
      vertex 48 16 26
      vertex 48.9271 16.1468 26
    endloop
  endfacet
  facet normal 0 0 1
    outer loop
      vertex 47.0729 16.1468 26
      vertex 48 17.4 26
      vertex 47.3877 17.5218 26
    endloop
  endfacet
  facet normal 0 0 1
    outer loop
      vertex 48 17.4 26
      vertex 47.0729 16.1468 26
      vertex 48 16 26
    endloop
  endfacet
  facet normal 0 0 1
    outer loop
      vertex 46.2366 16.5729 26
      vertex 47.3877 17.5218 26
      vertex 46.8686 17.8686 26
    endloop
  endfacet
  facet normal 0 0 1
    outer loop
      vertex 45.5729 17.2366 26
      vertex 46.8686 17.8686 26
      vertex 46.5218 18.3877 26
    endloop
  endfacet
  facet normal 0 0 1
    outer loop
      vertex 47.3877 17.5218 26
      vertex 46.2366 16.5729 26
      vertex 47.0729 16.1468 26
    endloop
  endfacet
  facet normal 0 0 1
    outer loop
      vertex 45.1468 18.0729 26
      vertex 46.5218 18.3877 26
      vertex 46.4 19 26
    endloop
  endfacet
  facet normal -0 0 1
    outer loop
      vertex 45.1468 19.9271 26
      vertex 46.5218 19.6123 26
      vertex 45.5729 20.7634 26
    endloop
  endfacet
  facet normal 0 0 1
    outer loop
      vertex 46.5218 19.6123 26
      vertex 45.1468 19.9271 26
      vertex 46.4 19 26
    endloop
  endfacet
  facet normal 0 0 1
    outer loop
      vertex 46.8686 17.8686 26
      vertex 45.5729 17.2366 26
      vertex 46.2366 16.5729 26
    endloop
  endfacet
  facet normal 0 0 1
    outer loop
      vertex 45 19 26
      vertex 46.4 19 26
      vertex 45.1468 19.9271 26
    endloop
  endfacet
  facet normal 0 0 1
    outer loop
      vertex 46.5218 18.3877 26
      vertex 45.1468 18.0729 26
      vertex 45.5729 17.2366 26
    endloop
  endfacet
  facet normal 0 0 1
    outer loop
      vertex 46.4 19 26
      vertex 45 19 26
      vertex 45.1468 18.0729 26
    endloop
  endfacet
  facet normal -0.707107 0.707107 0
    outer loop
      vertex 45.5729 20.7634 4
      vertex 46.2366 21.4271 26
      vertex 46.2366 21.4271 4
    endloop
  endfacet
  facet normal -0.707107 0.707107 0
    outer loop
      vertex 46.2366 21.4271 26
      vertex 45.5729 20.7634 4
      vertex 45.5729 20.7634 26
    endloop
  endfacet
  facet normal -0.987695 -0.156395 0
    outer loop
      vertex 45.1468 18.0729 4
      vertex 45 19 26
      vertex 45 19 4
    endloop
  endfacet
  facet normal -0.987695 -0.156395 0
    outer loop
      vertex 45 19 26
      vertex 45.1468 18.0729 4
      vertex 45.1468 18.0729 26
    endloop
  endfacet
  facet normal -0.453977 -0.891013 0
    outer loop
      vertex 46.2366 16.5729 4
      vertex 47.0729 16.1468 26
      vertex 46.2366 16.5729 26
    endloop
  endfacet
  facet normal -0.453977 -0.891013 -0
    outer loop
      vertex 47.0729 16.1468 26
      vertex 46.2366 16.5729 4
      vertex 47.0729 16.1468 4
    endloop
  endfacet
  facet normal 0.555513 -0.831508 0
    outer loop
      vertex 46.8686 20.1314 4
      vertex 47.3877 20.4782 26
      vertex 46.8686 20.1314 26
    endloop
  endfacet
  facet normal 0.555513 -0.831508 0
    outer loop
      vertex 47.3877 20.4782 26
      vertex 46.8686 20.1314 4
      vertex 47.3877 20.4782 4
    endloop
  endfacet
  facet normal -0.831508 -0.555513 0
    outer loop
      vertex 49.4782 19.6123 4
      vertex 49.1314 20.1314 26
      vertex 49.1314 20.1314 4
    endloop
  endfacet
  facet normal -0.831508 -0.555513 0
    outer loop
      vertex 49.1314 20.1314 26
      vertex 49.4782 19.6123 4
      vertex 49.4782 19.6123 26
    endloop
  endfacet
  facet normal -0.980783 -0.1951 0
    outer loop
      vertex 49.6 19 4
      vertex 49.4782 19.6123 26
      vertex 49.4782 19.6123 4
    endloop
  endfacet
  facet normal -0.980783 -0.1951 0
    outer loop
      vertex 49.4782 19.6123 26
      vertex 49.6 19 4
      vertex 49.6 19 26
    endloop
  endfacet
  facet normal 0.831508 -0.555513 0
    outer loop
      vertex 46.5218 19.6123 26
      vertex 46.8686 20.1314 4
      vertex 46.8686 20.1314 26
    endloop
  endfacet
  facet normal 0.831508 -0.555513 0
    outer loop
      vertex 46.8686 20.1314 4
      vertex 46.5218 19.6123 26
      vertex 46.5218 19.6123 4
    endloop
  endfacet
  facet normal 0.1951 0.980783 -0
    outer loop
      vertex 48 17.4 4
      vertex 47.3877 17.5218 26
      vertex 48 17.4 26
    endloop
  endfacet
  facet normal 0.1951 0.980783 0
    outer loop
      vertex 47.3877 17.5218 26
      vertex 48 17.4 4
      vertex 47.3877 17.5218 4
    endloop
  endfacet
  facet normal -0.1951 0.980783 0
    outer loop
      vertex 48.6123 17.5218 4
      vertex 48 17.4 26
      vertex 48.6123 17.5218 26
    endloop
  endfacet
  facet normal -0.1951 0.980783 0
    outer loop
      vertex 48 17.4 26
      vertex 48.6123 17.5218 4
      vertex 48 17.4 4
    endloop
  endfacet
  facet normal -0.555513 0.831508 0
    outer loop
      vertex 49.1314 17.8686 4
      vertex 48.6123 17.5218 26
      vertex 49.1314 17.8686 26
    endloop
  endfacet
  facet normal -0.555513 0.831508 0
    outer loop
      vertex 48.6123 17.5218 26
      vertex 49.1314 17.8686 4
      vertex 48.6123 17.5218 4
    endloop
  endfacet
  facet normal -0.831508 0.555513 0
    outer loop
      vertex 49.1314 17.8686 4
      vertex 49.4782 18.3877 26
      vertex 49.4782 18.3877 4
    endloop
  endfacet
  facet normal -0.831508 0.555513 0
    outer loop
      vertex 49.4782 18.3877 26
      vertex 49.1314 17.8686 4
      vertex 49.1314 17.8686 26
    endloop
  endfacet
  facet normal 0.980783 -0.1951 0
    outer loop
      vertex 46.4 19 26
      vertex 46.5218 19.6123 4
      vertex 46.5218 19.6123 26
    endloop
  endfacet
  facet normal 0.980783 -0.1951 0
    outer loop
      vertex 46.5218 19.6123 4
      vertex 46.4 19 26
      vertex 46.4 19 4
    endloop
  endfacet
  facet normal -0.980783 0.1951 0
    outer loop
      vertex 49.4782 18.3877 4
      vertex 49.6 19 26
      vertex 49.6 19 4
    endloop
  endfacet
  facet normal -0.980783 0.1951 0
    outer loop
      vertex 49.6 19 26
      vertex 49.4782 18.3877 4
      vertex 49.4782 18.3877 26
    endloop
  endfacet
  facet normal 0.1951 -0.980783 0
    outer loop
      vertex 47.3877 20.4782 4
      vertex 48 20.6 26
      vertex 47.3877 20.4782 26
    endloop
  endfacet
  facet normal 0.1951 -0.980783 0
    outer loop
      vertex 48 20.6 26
      vertex 47.3877 20.4782 4
      vertex 48 20.6 4
    endloop
  endfacet
  facet normal -0.1951 -0.980783 0
    outer loop
      vertex 48 20.6 4
      vertex 48.6123 20.4782 26
      vertex 48 20.6 26
    endloop
  endfacet
  facet normal -0.1951 -0.980783 -0
    outer loop
      vertex 48.6123 20.4782 26
      vertex 48 20.6 4
      vertex 48.6123 20.4782 4
    endloop
  endfacet
  facet normal -0.555513 -0.831508 0
    outer loop
      vertex 48.6123 20.4782 4
      vertex 49.1314 20.1314 26
      vertex 48.6123 20.4782 26
    endloop
  endfacet
  facet normal -0.555513 -0.831508 -0
    outer loop
      vertex 49.1314 20.1314 26
      vertex 48.6123 20.4782 4
      vertex 49.1314 20.1314 4
    endloop
  endfacet
  facet normal 0.831508 0.555513 0
    outer loop
      vertex 46.8686 17.8686 26
      vertex 46.5218 18.3877 4
      vertex 46.5218 18.3877 26
    endloop
  endfacet
  facet normal 0.831508 0.555513 0
    outer loop
      vertex 46.5218 18.3877 4
      vertex 46.8686 17.8686 26
      vertex 46.8686 17.8686 4
    endloop
  endfacet
  facet normal 0.980783 0.1951 0
    outer loop
      vertex 46.5218 18.3877 26
      vertex 46.4 19 4
      vertex 46.4 19 26
    endloop
  endfacet
  facet normal 0.980783 0.1951 0
    outer loop
      vertex 46.4 19 4
      vertex 46.5218 18.3877 26
      vertex 46.5218 18.3877 4
    endloop
  endfacet
  facet normal 0.555513 0.831508 -0
    outer loop
      vertex 47.3877 17.5218 4
      vertex 46.8686 17.8686 26
      vertex 47.3877 17.5218 26
    endloop
  endfacet
  facet normal 0.555513 0.831508 0
    outer loop
      vertex 46.8686 17.8686 26
      vertex 47.3877 17.5218 4
      vertex 46.8686 17.8686 4
    endloop
  endfacet
endsolid OpenSCAD_Model
