solid OpenSCAD_Model
  facet normal 0.573575 -0.819153 0
    outer loop
      vertex 10.7992 -40.7048 0
      vertex 13.8833 -38.5453 1.6
      vertex 10.7992 -40.7048 1.6
    endloop
  endfacet
  facet normal 0.573575 -0.819153 0
    outer loop
      vertex 13.8833 -38.5453 1.6
      vertex 10.7992 -40.7048 0
      vertex 13.8833 -38.5453 0
    endloop
  endfacet
  facet normal -0.0871738 -0.996193 0
    outer loop
      vertex -3.75056 -43.2703 0
      vertex 0 -43.5985 1.6
      vertex -3.75056 -43.2703 1.6
    endloop
  endfacet
  facet normal -0.0871738 -0.996193 -0
    outer loop
      vertex 0 -43.5985 1.6
      vertex -3.75056 -43.2703 0
      vertex 0 -43.5985 0
    endloop
  endfacet
  facet normal 0.996193 0.0871729 0
    outer loop
      vertex 21.5985 -22 1.6
      vertex 21.2703 -18.2494 0
      vertex 21.2703 -18.2494 1.6
    endloop
  endfacet
  facet normal 0.996193 0.0871729 0
    outer loop
      vertex 21.2703 -18.2494 0
      vertex 21.5985 -22 1.6
      vertex 21.5985 -22 0
    endloop
  endfacet
  facet normal -0.573575 -0.819153 0
    outer loop
      vertex -13.8833 -38.5453 0
      vertex -10.7992 -40.7048 1.6
      vertex -13.8833 -38.5453 1.6
    endloop
  endfacet
  facet normal -0.573575 -0.819153 -0
    outer loop
      vertex -10.7992 -40.7048 1.6
      vertex -13.8833 -38.5453 0
      vertex -10.7992 -40.7048 0
    endloop
  endfacet
  facet normal 0.707107 -0.707107 0
    outer loop
      vertex 13.8833 -38.5453 1.6
      vertex 16.5453 -35.8833 0
      vertex 16.5453 -35.8833 1.6
    endloop
  endfacet
  facet normal 0.707107 -0.707107 0
    outer loop
      vertex 16.5453 -35.8833 0
      vertex 13.8833 -38.5453 1.6
      vertex 13.8833 -38.5453 0
    endloop
  endfacet
  facet normal 0.707107 0.707107 0
    outer loop
      vertex 5.05467 34.2415 1.6
      vertex 4.24147 35.0547 0
      vertex 4.24147 35.0547 1.6
    endloop
  endfacet
  facet normal 0.707107 0.707107 0
    outer loop
      vertex 4.24147 35.0547 0
      vertex 5.05467 34.2415 1.6
      vertex 5.05467 34.2415 0
    endloop
  endfacet
  facet normal -0.819162 0.573562 0
    outer loop
      vertex -5.71445 33.2992 0
      vertex -5.05467 34.2415 1.6
      vertex -5.05467 34.2415 0
    endloop
  endfacet
  facet normal -0.819162 0.573562 0
    outer loop
      vertex -5.05467 34.2415 1.6
      vertex -5.71445 33.2992 0
      vertex -5.71445 33.2992 1.6
    endloop
  endfacet
  facet normal 0.422621 -0.906307 0
    outer loop
      vertex 7.3871 -42.2959 0
      vertex 10.7992 -40.7048 1.6
      vertex 7.3871 -42.2959 1.6
    endloop
  endfacet
  facet normal 0.422621 -0.906307 0
    outer loop
      vertex 10.7992 -40.7048 1.6
      vertex 7.3871 -42.2959 0
      vertex 10.7992 -40.7048 0
    endloop
  endfacet
  facet normal 0.996193 -0.0871729 0
    outer loop
      vertex 21.2703 -25.7506 1.6
      vertex 21.5985 -22 0
      vertex 21.5985 -22 1.6
    endloop
  endfacet
  facet normal 0.996193 -0.0871729 0
    outer loop
      vertex 21.5985 -22 0
      vertex 21.2703 -25.7506 1.6
      vertex 21.2703 -25.7506 0
    endloop
  endfacet
  facet normal -0.707107 -0.707107 0
    outer loop
      vertex -13.8833 -38.5453 0
      vertex -16.5453 -35.8833 1.6
      vertex -16.5453 -35.8833 0
    endloop
  endfacet
  facet normal -0.707107 -0.707107 0
    outer loop
      vertex -16.5453 -35.8833 1.6
      vertex -13.8833 -38.5453 0
      vertex -13.8833 -38.5453 1.6
    endloop
  endfacet
  facet normal -0.819153 -0.573575 0
    outer loop
      vertex -16.5453 -35.8833 0
      vertex -18.7048 -32.7992 1.6
      vertex -18.7048 -32.7992 0
    endloop
  endfacet
  facet normal -0.819153 -0.573575 0
    outer loop
      vertex -18.7048 -32.7992 1.6
      vertex -16.5453 -35.8833 0
      vertex -16.5453 -35.8833 1.6
    endloop
  endfacet
  facet normal -0.996193 -0.0871729 0
    outer loop
      vertex -21.2703 -25.7506 0
      vertex -21.5985 -22 1.6
      vertex -21.5985 -22 0
    endloop
  endfacet
  facet normal -0.996193 -0.0871729 0
    outer loop
      vertex -21.5985 -22 1.6
      vertex -21.2703 -25.7506 0
      vertex -21.2703 -25.7506 1.6
    endloop
  endfacet
  facet normal 0.957632 0.287994 0
    outer loop
      vertex 20.2885 -14.5852 1.6
      vertex 6.20308 32.2513 0
      vertex 6.20308 32.2513 1.6
    endloop
  endfacet
  facet normal 0.957632 0.287994 0
    outer loop
      vertex 6.20308 32.2513 0
      vertex 20.2885 -14.5852 1.6
      vertex 20.2885 -14.5852 0
    endloop
  endfacet
  facet normal 0.819153 -0.573575 0
    outer loop
      vertex 16.5453 -35.8833 1.6
      vertex 18.7048 -32.7992 0
      vertex 18.7048 -32.7992 1.6
    endloop
  endfacet
  facet normal 0.819153 -0.573575 0
    outer loop
      vertex 18.7048 -32.7992 0
      vertex 16.5453 -35.8833 1.6
      vertex 16.5453 -35.8833 0
    endloop
  endfacet
  facet normal -0.957632 0.287994 0
    outer loop
      vertex -20.2885 -14.5852 0
      vertex -6.20308 32.2513 1.6
      vertex -6.20308 32.2513 0
    endloop
  endfacet
  facet normal -0.957632 0.287994 0
    outer loop
      vertex -6.20308 32.2513 1.6
      vertex -20.2885 -14.5852 0
      vertex -20.2885 -14.5852 1.6
    endloop
  endfacet
  facet normal -0.258832 0.965922 0
    outer loop
      vertex -1.14584 36.4982 0
      vertex -2.25681 36.2005 1.6
      vertex -1.14584 36.4982 1.6
    endloop
  endfacet
  facet normal -0.258832 0.965922 0
    outer loop
      vertex -2.25681 36.2005 1.6
      vertex -1.14584 36.4982 0
      vertex -2.25681 36.2005 0
    endloop
  endfacet
  facet normal -0.996193 0.0871729 0
    outer loop
      vertex -21.5985 -22 0
      vertex -21.2703 -18.2494 1.6
      vertex -21.2703 -18.2494 0
    endloop
  endfacet
  facet normal -0.996193 0.0871729 0
    outer loop
      vertex -21.2703 -18.2494 1.6
      vertex -21.5985 -22 0
      vertex -21.5985 -22 1.6
    endloop
  endfacet
  facet normal -0.906312 0.422608 0
    outer loop
      vertex -6.20308 32.2513 0
      vertex -5.71445 33.2992 1.6
      vertex -5.71445 33.2992 0
    endloop
  endfacet
  facet normal -0.906312 0.422608 0
    outer loop
      vertex -5.71445 33.2992 1.6
      vertex -6.20308 32.2513 0
      vertex -6.20308 32.2513 1.6
    endloop
  endfacet
  facet normal -0.965927 0.258814 0
    outer loop
      vertex -21.2703 -18.2494 0
      vertex -20.2885 -14.5852 1.6
      vertex -20.2885 -14.5852 0
    endloop
  endfacet
  facet normal -0.965927 0.258814 0
    outer loop
      vertex -20.2885 -14.5852 1.6
      vertex -21.2703 -18.2494 0
      vertex -21.2703 -18.2494 1.6
    endloop
  endfacet
  facet normal -0.42264 0.906298 0
    outer loop
      vertex -2.25681 36.2005 0
      vertex -3.29919 35.7144 1.6
      vertex -2.25681 36.2005 1.6
    endloop
  endfacet
  facet normal -0.42264 0.906298 0
    outer loop
      vertex -3.29919 35.7144 1.6
      vertex -2.25681 36.2005 0
      vertex -3.29919 35.7144 0
    endloop
  endfacet
  facet normal 0.819162 0.573562 0
    outer loop
      vertex 5.71445 33.2992 1.6
      vertex 5.05467 34.2415 0
      vertex 5.05467 34.2415 1.6
    endloop
  endfacet
  facet normal 0.819162 0.573562 0
    outer loop
      vertex 5.05467 34.2415 0
      vertex 5.71445 33.2992 1.6
      vertex 5.71445 33.2992 0
    endloop
  endfacet
  facet normal 0.0871738 -0.996193 0
    outer loop
      vertex 0 -43.5985 0
      vertex 3.75056 -43.2703 1.6
      vertex 0 -43.5985 1.6
    endloop
  endfacet
  facet normal 0.0871738 -0.996193 0
    outer loop
      vertex 3.75056 -43.2703 1.6
      vertex 0 -43.5985 0
      vertex 3.75056 -43.2703 0
    endloop
  endfacet
  facet normal 0.906312 0.422608 0
    outer loop
      vertex 6.20308 32.2513 1.6
      vertex 5.71445 33.2992 0
      vertex 5.71445 33.2992 1.6
    endloop
  endfacet
  facet normal 0.906312 0.422608 0
    outer loop
      vertex 5.71445 33.2992 0
      vertex 6.20308 32.2513 1.6
      vertex 6.20308 32.2513 0
    endloop
  endfacet
  facet normal 0 0 -1
    outer loop
      vertex 21.2703 -25.7506 0
      vertex 21.2703 -18.2494 0
      vertex 21.5985 -22 0
    endloop
  endfacet
  facet normal 0 0 -1
    outer loop
      vertex 20.2959 -29.3871 0
      vertex 21.2703 -18.2494 0
      vertex 21.2703 -25.7506 0
    endloop
  endfacet
  facet normal 0 0 -1
    outer loop
      vertex 20.2959 -29.3871 0
      vertex 20.2885 -14.5852 0
      vertex 21.2703 -18.2494 0
    endloop
  endfacet
  facet normal 0 0 -1
    outer loop
      vertex 18.7048 -32.7992 0
      vertex 20.2885 -14.5852 0
      vertex 20.2959 -29.3871 0
    endloop
  endfacet
  facet normal 0 0 -1
    outer loop
      vertex 16.5453 -35.8833 0
      vertex 20.2885 -14.5852 0
      vertex 18.7048 -32.7992 0
    endloop
  endfacet
  facet normal 0 0 -1
    outer loop
      vertex 13.8833 -38.5453 0
      vertex 20.2885 -14.5852 0
      vertex 16.5453 -35.8833 0
    endloop
  endfacet
  facet normal 0 0 -1
    outer loop
      vertex 10.7992 -40.7048 0
      vertex 20.2885 -14.5852 0
      vertex 13.8833 -38.5453 0
    endloop
  endfacet
  facet normal 0 0 -1
    outer loop
      vertex 7.3871 -42.2959 0
      vertex 20.2885 -14.5852 0
      vertex 10.7992 -40.7048 0
    endloop
  endfacet
  facet normal 0 0 -1
    outer loop
      vertex -20.2885 -14.5852 0
      vertex 20.2885 -14.5852 0
      vertex 7.3871 -42.2959 0
    endloop
  endfacet
  facet normal 0 0 -1
    outer loop
      vertex 20.2885 -14.5852 0
      vertex -20.2885 -14.5852 0
      vertex 6.20308 32.2513 0
    endloop
  endfacet
  facet normal 0 -0 -1
    outer loop
      vertex -6.20308 32.2513 0
      vertex 6.20308 32.2513 0
      vertex -20.2885 -14.5852 0
    endloop
  endfacet
  facet normal 0 0 -1
    outer loop
      vertex 6.20308 32.2513 0
      vertex -6.20308 32.2513 0
      vertex 5.71445 33.2992 0
    endloop
  endfacet
  facet normal 0 0 -1
    outer loop
      vertex -20.2885 -14.5852 0
      vertex 7.3871 -42.2959 0
      vertex 3.75056 -43.2703 0
    endloop
  endfacet
  facet normal -0 0 -1
    outer loop
      vertex 5.71445 33.2992 0
      vertex -6.20308 32.2513 0
      vertex 5.05467 34.2415 0
    endloop
  endfacet
  facet normal -0 0 -1
    outer loop
      vertex 5.05467 34.2415 0
      vertex -6.20308 32.2513 0
      vertex 4.24147 35.0547 0
    endloop
  endfacet
  facet normal -0 0 -1
    outer loop
      vertex 4.24147 35.0547 0
      vertex -6.20308 32.2513 0
      vertex 3.29919 35.7144 0
    endloop
  endfacet
  facet normal 0 0 -1
    outer loop
      vertex -20.2885 -14.5852 0
      vertex 3.75056 -43.2703 0
      vertex 0 -43.5985 0
    endloop
  endfacet
  facet normal -0 0 -1
    outer loop
      vertex 3.29919 35.7144 0
      vertex -6.20308 32.2513 0
      vertex 2.25681 36.2005 0
    endloop
  endfacet
  facet normal -0 0 -1
    outer loop
      vertex 2.25681 36.2005 0
      vertex -6.20308 32.2513 0
      vertex 1.14584 36.4982 0
    endloop
  endfacet
  facet normal 0 0 -1
    outer loop
      vertex 0 36.5985 0
      vertex -6.20308 32.2513 0
      vertex -1.14584 36.4982 0
    endloop
  endfacet
  facet normal 0 0 -1
    outer loop
      vertex -1.14584 36.4982 0
      vertex -6.20308 32.2513 0
      vertex -2.25681 36.2005 0
    endloop
  endfacet
  facet normal 0 0 -1
    outer loop
      vertex -20.2885 -14.5852 0
      vertex 0 -43.5985 0
      vertex -3.75056 -43.2703 0
    endloop
  endfacet
  facet normal 0 0 -1
    outer loop
      vertex -2.25681 36.2005 0
      vertex -6.20308 32.2513 0
      vertex -3.29919 35.7144 0
    endloop
  endfacet
  facet normal 0 0 -1
    outer loop
      vertex -3.29919 35.7144 0
      vertex -6.20308 32.2513 0
      vertex -4.24147 35.0547 0
    endloop
  endfacet
  facet normal 0 0 -1
    outer loop
      vertex -4.24147 35.0547 0
      vertex -6.20308 32.2513 0
      vertex -5.05467 34.2415 0
    endloop
  endfacet
  facet normal 0 0 -1
    outer loop
      vertex -5.05467 34.2415 0
      vertex -6.20308 32.2513 0
      vertex -5.71445 33.2992 0
    endloop
  endfacet
  facet normal 0 0 -1
    outer loop
      vertex -20.2885 -14.5852 0
      vertex -3.75056 -43.2703 0
      vertex -7.3871 -42.2959 0
    endloop
  endfacet
  facet normal 0 0 -1
    outer loop
      vertex -20.2885 -14.5852 0
      vertex -7.3871 -42.2959 0
      vertex -10.7992 -40.7048 0
    endloop
  endfacet
  facet normal 0 0 -1
    outer loop
      vertex -20.2885 -14.5852 0
      vertex -10.7992 -40.7048 0
      vertex -13.8833 -38.5453 0
    endloop
  endfacet
  facet normal 0 0 -1
    outer loop
      vertex -20.2885 -14.5852 0
      vertex -13.8833 -38.5453 0
      vertex -16.5453 -35.8833 0
    endloop
  endfacet
  facet normal 0 0 -1
    outer loop
      vertex -20.2885 -14.5852 0
      vertex -16.5453 -35.8833 0
      vertex -18.7048 -32.7992 0
    endloop
  endfacet
  facet normal -0 0 -1
    outer loop
      vertex 1.14584 36.4982 0
      vertex -6.20308 32.2513 0
      vertex 0 36.5985 0
    endloop
  endfacet
  facet normal 0 0 -1
    outer loop
      vertex -20.2959 -29.3871 0
      vertex -20.2885 -14.5852 0
      vertex -18.7048 -32.7992 0
    endloop
  endfacet
  facet normal 0 0 -1
    outer loop
      vertex -21.2703 -25.7506 0
      vertex -20.2885 -14.5852 0
      vertex -20.2959 -29.3871 0
    endloop
  endfacet
  facet normal 0 0 -1
    outer loop
      vertex -21.2703 -25.7506 0
      vertex -21.2703 -18.2494 0
      vertex -20.2885 -14.5852 0
    endloop
  endfacet
  facet normal 0 -0 -1
    outer loop
      vertex -21.2703 -18.2494 0
      vertex -21.2703 -25.7506 0
      vertex -21.5985 -22 0
    endloop
  endfacet
  facet normal 0.258817 -0.965926 0
    outer loop
      vertex 3.75056 -43.2703 0
      vertex 7.3871 -42.2959 1.6
      vertex 3.75056 -43.2703 1.6
    endloop
  endfacet
  facet normal 0.258817 -0.965926 0
    outer loop
      vertex 7.3871 -42.2959 1.6
      vertex 3.75056 -43.2703 0
      vertex 7.3871 -42.2959 0
    endloop
  endfacet
  facet normal -0.707107 0.707107 0
    outer loop
      vertex -5.05467 34.2415 0
      vertex -4.24147 35.0547 1.6
      vertex -4.24147 35.0547 0
    endloop
  endfacet
  facet normal -0.707107 0.707107 0
    outer loop
      vertex -4.24147 35.0547 1.6
      vertex -5.05467 34.2415 0
      vertex -5.05467 34.2415 1.6
    endloop
  endfacet
  facet normal -0.573523 0.819189 0
    outer loop
      vertex -3.29919 35.7144 0
      vertex -4.24147 35.0547 1.6
      vertex -3.29919 35.7144 1.6
    endloop
  endfacet
  facet normal -0.573523 0.819189 0
    outer loop
      vertex -4.24147 35.0547 1.6
      vertex -3.29919 35.7144 0
      vertex -4.24147 35.0547 0
    endloop
  endfacet
  facet normal 0.42264 0.906298 -0
    outer loop
      vertex 3.29919 35.7144 0
      vertex 2.25681 36.2005 1.6
      vertex 3.29919 35.7144 1.6
    endloop
  endfacet
  facet normal 0.42264 0.906298 0
    outer loop
      vertex 2.25681 36.2005 1.6
      vertex 3.29919 35.7144 0
      vertex 2.25681 36.2005 0
    endloop
  endfacet
  facet normal 0.965927 0.258814 0
    outer loop
      vertex 21.2703 -18.2494 1.6
      vertex 20.2885 -14.5852 0
      vertex 20.2885 -14.5852 1.6
    endloop
  endfacet
  facet normal 0.965927 0.258814 0
    outer loop
      vertex 20.2885 -14.5852 0
      vertex 21.2703 -18.2494 1.6
      vertex 21.2703 -18.2494 0
    endloop
  endfacet
  facet normal 0.965926 -0.25882 0
    outer loop
      vertex 20.2959 -29.3871 1.6
      vertex 21.2703 -25.7506 0
      vertex 21.2703 -25.7506 1.6
    endloop
  endfacet
  facet normal 0.965926 -0.25882 0
    outer loop
      vertex 21.2703 -25.7506 0
      vertex 20.2959 -29.3871 1.6
      vertex 20.2959 -29.3871 0
    endloop
  endfacet
  facet normal -0.422621 -0.906307 0
    outer loop
      vertex -10.7992 -40.7048 0
      vertex -7.3871 -42.2959 1.6
      vertex -10.7992 -40.7048 1.6
    endloop
  endfacet
  facet normal -0.422621 -0.906307 -0
    outer loop
      vertex -7.3871 -42.2959 1.6
      vertex -10.7992 -40.7048 0
      vertex -7.3871 -42.2959 0
    endloop
  endfacet
  facet normal -0.258817 -0.965926 0
    outer loop
      vertex -7.3871 -42.2959 0
      vertex -3.75056 -43.2703 1.6
      vertex -7.3871 -42.2959 1.6
    endloop
  endfacet
  facet normal -0.258817 -0.965926 -0
    outer loop
      vertex -3.75056 -43.2703 1.6
      vertex -7.3871 -42.2959 0
      vertex -3.75056 -43.2703 0
    endloop
  endfacet
  facet normal 0.906307 -0.422621 0
    outer loop
      vertex 18.7048 -32.7992 1.6
      vertex 20.2959 -29.3871 0
      vertex 20.2959 -29.3871 1.6
    endloop
  endfacet
  facet normal 0.906307 -0.422621 0
    outer loop
      vertex 20.2959 -29.3871 0
      vertex 18.7048 -32.7992 1.6
      vertex 18.7048 -32.7992 0
    endloop
  endfacet
  facet normal 0.573523 0.819189 -0
    outer loop
      vertex 4.24147 35.0547 0
      vertex 3.29919 35.7144 1.6
      vertex 4.24147 35.0547 1.6
    endloop
  endfacet
  facet normal 0.573523 0.819189 0
    outer loop
      vertex 3.29919 35.7144 1.6
      vertex 4.24147 35.0547 0
      vertex 3.29919 35.7144 0
    endloop
  endfacet
  facet normal 0.258832 0.965922 -0
    outer loop
      vertex 2.25681 36.2005 0
      vertex 1.14584 36.4982 1.6
      vertex 2.25681 36.2005 1.6
    endloop
  endfacet
  facet normal 0.258832 0.965922 0
    outer loop
      vertex 1.14584 36.4982 1.6
      vertex 2.25681 36.2005 0
      vertex 1.14584 36.4982 0
    endloop
  endfacet
  facet normal -0.0872006 0.996191 0
    outer loop
      vertex 0 36.5985 0
      vertex -1.14584 36.4982 1.6
      vertex 0 36.5985 1.6
    endloop
  endfacet
  facet normal -0.0872006 0.996191 0
    outer loop
      vertex -1.14584 36.4982 1.6
      vertex 0 36.5985 0
      vertex -1.14584 36.4982 0
    endloop
  endfacet
  facet normal 0 0 1
    outer loop
      vertex 21.2703 -18.2494 1.6
      vertex 19.392 -18.5807 1.6
      vertex 19.6912 -22 1.6
    endloop
  endfacet
  facet normal 0 0 1
    outer loop
      vertex 20.2885 -14.5852 1.6
      vertex 18.4607 -15.1046 1.6
      vertex 19.392 -18.5807 1.6
    endloop
  endfacet
  facet normal -0 0 1
    outer loop
      vertex 4.4231 31.5728 1.6
      vertex 20.2885 -14.5852 1.6
      vertex 6.20308 32.2513 1.6
    endloop
  endfacet
  facet normal -0 0 1
    outer loop
      vertex 4.0627 32.3456 1.6
      vertex 6.20308 32.2513 1.6
      vertex 5.71445 33.2992 1.6
    endloop
  endfacet
  facet normal 0 0 1
    outer loop
      vertex 4.0627 32.3456 1.6
      vertex 5.71445 33.2992 1.6
      vertex 5.05467 34.2415 1.6
    endloop
  endfacet
  facet normal 0 0 1
    outer loop
      vertex 20.2885 -14.5852 1.6
      vertex 4.4231 31.5728 1.6
      vertex 18.4607 -15.1046 1.6
    endloop
  endfacet
  facet normal 0 0 1
    outer loop
      vertex 3.59369 33.0154 1.6
      vertex 5.05467 34.2415 1.6
      vertex 4.24147 35.0547 1.6
    endloop
  endfacet
  facet normal 0 0 1
    outer loop
      vertex 6.20308 32.2513 1.6
      vertex 4.0627 32.3456 1.6
      vertex 4.4231 31.5728 1.6
    endloop
  endfacet
  facet normal 0 0 1
    outer loop
      vertex 5.05467 34.2415 1.6
      vertex 3.59369 33.0154 1.6
      vertex 4.0627 32.3456 1.6
    endloop
  endfacet
  facet normal 0 0 1
    outer loop
      vertex 3.01544 33.5937 1.6
      vertex 4.24147 35.0547 1.6
      vertex 3.29919 35.7144 1.6
    endloop
  endfacet
  facet normal 0 0 1
    outer loop
      vertex 4.24147 35.0547 1.6
      vertex 3.01544 33.5937 1.6
      vertex 3.59369 33.0154 1.6
    endloop
  endfacet
  facet normal 0 0 1
    outer loop
      vertex 3.29919 35.7144 1.6
      vertex 2.34563 34.0627 1.6
      vertex 3.01544 33.5937 1.6
    endloop
  endfacet
  facet normal 0 0 1
    outer loop
      vertex 2.25681 36.2005 1.6
      vertex 2.34563 34.0627 1.6
      vertex 3.29919 35.7144 1.6
    endloop
  endfacet
  facet normal 0 0 1
    outer loop
      vertex 2.25681 36.2005 1.6
      vertex 1.60455 34.4083 1.6
      vertex 2.34563 34.0627 1.6
    endloop
  endfacet
  facet normal 0 0 1
    outer loop
      vertex 1.14584 36.4982 1.6
      vertex 1.60455 34.4083 1.6
      vertex 2.25681 36.2005 1.6
    endloop
  endfacet
  facet normal 0 0 1
    outer loop
      vertex 1.14584 36.4982 1.6
      vertex 0.81456 34.6199 1.6
      vertex 1.60455 34.4083 1.6
    endloop
  endfacet
  facet normal 0 0 1
    outer loop
      vertex 0 36.5985 1.6
      vertex 0.81456 34.6199 1.6
      vertex 1.14584 36.4982 1.6
    endloop
  endfacet
  facet normal 0 0 1
    outer loop
      vertex 0 36.5985 1.6
      vertex 0 34.6912 1.6
      vertex 0.81456 34.6199 1.6
    endloop
  endfacet
  facet normal 0 0 1
    outer loop
      vertex 0 36.5985 1.6
      vertex -0.81456 34.6199 1.6
      vertex 0 34.6912 1.6
    endloop
  endfacet
  facet normal -0 0 1
    outer loop
      vertex -1.14584 36.4982 1.6
      vertex -0.81456 34.6199 1.6
      vertex 0 36.5985 1.6
    endloop
  endfacet
  facet normal 0 0 1
    outer loop
      vertex -1.14584 36.4982 1.6
      vertex -1.60455 34.4083 1.6
      vertex -0.81456 34.6199 1.6
    endloop
  endfacet
  facet normal -0 0 1
    outer loop
      vertex -2.25681 36.2005 1.6
      vertex -1.60455 34.4083 1.6
      vertex -1.14584 36.4982 1.6
    endloop
  endfacet
  facet normal 0 0 1
    outer loop
      vertex -2.25681 36.2005 1.6
      vertex -2.34563 34.0627 1.6
      vertex -1.60455 34.4083 1.6
    endloop
  endfacet
  facet normal -0 0 1
    outer loop
      vertex -3.29919 35.7144 1.6
      vertex -2.34563 34.0627 1.6
      vertex -2.25681 36.2005 1.6
    endloop
  endfacet
  facet normal 0 0 1
    outer loop
      vertex -2.34563 34.0627 1.6
      vertex -3.29919 35.7144 1.6
      vertex -3.01544 33.5937 1.6
    endloop
  endfacet
  facet normal -0 0 1
    outer loop
      vertex -4.24147 35.0547 1.6
      vertex -3.01544 33.5937 1.6
      vertex -3.29919 35.7144 1.6
    endloop
  endfacet
  facet normal 0 0 1
    outer loop
      vertex -3.01544 33.5937 1.6
      vertex -4.24147 35.0547 1.6
      vertex -3.59369 33.0154 1.6
    endloop
  endfacet
  facet normal -0 0 1
    outer loop
      vertex -5.05467 34.2415 1.6
      vertex -3.59369 33.0154 1.6
      vertex -4.24147 35.0547 1.6
    endloop
  endfacet
  facet normal 0 0 1
    outer loop
      vertex -3.59369 33.0154 1.6
      vertex -5.05467 34.2415 1.6
      vertex -4.0627 32.3456 1.6
    endloop
  endfacet
  facet normal -0 0 1
    outer loop
      vertex -5.71445 33.2992 1.6
      vertex -4.0627 32.3456 1.6
      vertex -5.05467 34.2415 1.6
    endloop
  endfacet
  facet normal 0 0 1
    outer loop
      vertex -6.20308 32.2513 1.6
      vertex -4.0627 32.3456 1.6
      vertex -5.71445 33.2992 1.6
    endloop
  endfacet
  facet normal 0 0 1
    outer loop
      vertex -4.0627 32.3456 1.6
      vertex -6.20308 32.2513 1.6
      vertex -4.4231 31.5728 1.6
    endloop
  endfacet
  facet normal 0 0 1
    outer loop
      vertex -20.2885 -14.5852 1.6
      vertex -4.4231 31.5728 1.6
      vertex -6.20308 32.2513 1.6
    endloop
  endfacet
  facet normal 0 0 1
    outer loop
      vertex -4.4231 31.5728 1.6
      vertex -20.2885 -14.5852 1.6
      vertex -18.4607 -15.1046 1.6
    endloop
  endfacet
  facet normal -0 0 1
    outer loop
      vertex -21.2703 -18.2494 1.6
      vertex -19.392 -18.5807 1.6
      vertex -20.2885 -14.5852 1.6
    endloop
  endfacet
  facet normal 0 0 1
    outer loop
      vertex -18.4607 -15.1046 1.6
      vertex -20.2885 -14.5852 1.6
      vertex -19.392 -18.5807 1.6
    endloop
  endfacet
  facet normal 0 0 1
    outer loop
      vertex 19.6912 -22 1.6
      vertex 21.5985 -22 1.6
      vertex 21.2703 -18.2494 1.6
    endloop
  endfacet
  facet normal 0 0 1
    outer loop
      vertex 21.5985 -22 1.6
      vertex 19.6912 -22 1.6
      vertex 21.2703 -25.7506 1.6
    endloop
  endfacet
  facet normal 0 0 1
    outer loop
      vertex 19.392 -18.5807 1.6
      vertex 21.2703 -18.2494 1.6
      vertex 20.2885 -14.5852 1.6
    endloop
  endfacet
  facet normal -0 0 1
    outer loop
      vertex 19.3921 -25.4193 1.6
      vertex 21.2703 -25.7506 1.6
      vertex 19.6912 -22 1.6
    endloop
  endfacet
  facet normal 0 0 1
    outer loop
      vertex 21.2703 -25.7506 1.6
      vertex 19.3921 -25.4193 1.6
      vertex 20.2959 -29.3871 1.6
    endloop
  endfacet
  facet normal -0 0 1
    outer loop
      vertex 18.5037 -28.7348 1.6
      vertex 20.2959 -29.3871 1.6
      vertex 19.3921 -25.4193 1.6
    endloop
  endfacet
  facet normal 0 0 1
    outer loop
      vertex 20.2959 -29.3871 1.6
      vertex 18.5037 -28.7348 1.6
      vertex 18.7048 -32.7992 1.6
    endloop
  endfacet
  facet normal -0 0 1
    outer loop
      vertex 17.0531 -31.8456 1.6
      vertex 18.7048 -32.7992 1.6
      vertex 18.5037 -28.7348 1.6
    endloop
  endfacet
  facet normal 0 0 1
    outer loop
      vertex 17.0531 -31.8456 1.6
      vertex 16.5453 -35.8833 1.6
      vertex 18.7048 -32.7992 1.6
    endloop
  endfacet
  facet normal -0 0 1
    outer loop
      vertex 15.0843 -34.6573 1.6
      vertex 16.5453 -35.8833 1.6
      vertex 17.0531 -31.8456 1.6
    endloop
  endfacet
  facet normal 0 0 1
    outer loop
      vertex 15.0843 -34.6573 1.6
      vertex 13.8833 -38.5453 1.6
      vertex 16.5453 -35.8833 1.6
    endloop
  endfacet
  facet normal -0 0 1
    outer loop
      vertex 12.6573 -37.0843 1.6
      vertex 13.8833 -38.5453 1.6
      vertex 15.0843 -34.6573 1.6
    endloop
  endfacet
  facet normal 0 0 1
    outer loop
      vertex 12.6573 -37.0843 1.6
      vertex 10.7992 -40.7048 1.6
      vertex 13.8833 -38.5453 1.6
    endloop
  endfacet
  facet normal -0 0 1
    outer loop
      vertex 9.84557 -39.0531 1.6
      vertex 10.7992 -40.7048 1.6
      vertex 12.6573 -37.0843 1.6
    endloop
  endfacet
  facet normal 0 0 1
    outer loop
      vertex 9.84557 -39.0531 1.6
      vertex 7.3871 -42.2959 1.6
      vertex 10.7992 -40.7048 1.6
    endloop
  endfacet
  facet normal -0 0 1
    outer loop
      vertex 6.73483 -40.5037 1.6
      vertex 7.3871 -42.2959 1.6
      vertex 9.84557 -39.0531 1.6
    endloop
  endfacet
  facet normal 0 0 1
    outer loop
      vertex 6.73483 -40.5037 1.6
      vertex 3.75056 -43.2703 1.6
      vertex 7.3871 -42.2959 1.6
    endloop
  endfacet
  facet normal -0 0 1
    outer loop
      vertex 3.41931 -41.3921 1.6
      vertex 3.75056 -43.2703 1.6
      vertex 6.73483 -40.5037 1.6
    endloop
  endfacet
  facet normal -0 0 1
    outer loop
      vertex 0 -41.6912 1.6
      vertex 3.75056 -43.2703 1.6
      vertex 3.41931 -41.3921 1.6
    endloop
  endfacet
  facet normal 0 0 1
    outer loop
      vertex 0 -41.6912 1.6
      vertex 0 -43.5985 1.6
      vertex 3.75056 -43.2703 1.6
    endloop
  endfacet
  facet normal 0 0 1
    outer loop
      vertex -3.41931 -41.3921 1.6
      vertex 0 -43.5985 1.6
      vertex 0 -41.6912 1.6
    endloop
  endfacet
  facet normal 0 0 1
    outer loop
      vertex -3.41931 -41.3921 1.6
      vertex -3.75056 -43.2703 1.6
      vertex 0 -43.5985 1.6
    endloop
  endfacet
  facet normal 0 0 1
    outer loop
      vertex -6.73483 -40.5037 1.6
      vertex -3.75056 -43.2703 1.6
      vertex -3.41931 -41.3921 1.6
    endloop
  endfacet
  facet normal 0 0 1
    outer loop
      vertex -6.73483 -40.5037 1.6
      vertex -7.3871 -42.2959 1.6
      vertex -3.75056 -43.2703 1.6
    endloop
  endfacet
  facet normal 0 0 1
    outer loop
      vertex -9.84557 -39.0531 1.6
      vertex -7.3871 -42.2959 1.6
      vertex -6.73483 -40.5037 1.6
    endloop
  endfacet
  facet normal 0 0 1
    outer loop
      vertex -9.84557 -39.0531 1.6
      vertex -10.7992 -40.7048 1.6
      vertex -7.3871 -42.2959 1.6
    endloop
  endfacet
  facet normal 0 0 1
    outer loop
      vertex -12.6573 -37.0843 1.6
      vertex -10.7992 -40.7048 1.6
      vertex -9.84557 -39.0531 1.6
    endloop
  endfacet
  facet normal 0 0 1
    outer loop
      vertex -12.6573 -37.0843 1.6
      vertex -13.8833 -38.5453 1.6
      vertex -10.7992 -40.7048 1.6
    endloop
  endfacet
  facet normal 0 0 1
    outer loop
      vertex -15.0843 -34.6573 1.6
      vertex -13.8833 -38.5453 1.6
      vertex -12.6573 -37.0843 1.6
    endloop
  endfacet
  facet normal 0 0 1
    outer loop
      vertex -15.0843 -34.6573 1.6
      vertex -16.5453 -35.8833 1.6
      vertex -13.8833 -38.5453 1.6
    endloop
  endfacet
  facet normal 0 0 1
    outer loop
      vertex -17.0531 -31.8456 1.6
      vertex -16.5453 -35.8833 1.6
      vertex -15.0843 -34.6573 1.6
    endloop
  endfacet
  facet normal 0 0 1
    outer loop
      vertex -18.7048 -32.7992 1.6
      vertex -17.0531 -31.8456 1.6
      vertex -18.5037 -28.7348 1.6
    endloop
  endfacet
  facet normal 0 0 1
    outer loop
      vertex -17.0531 -31.8456 1.6
      vertex -18.7048 -32.7992 1.6
      vertex -16.5453 -35.8833 1.6
    endloop
  endfacet
  facet normal 0 0 1
    outer loop
      vertex -20.2959 -29.3871 1.6
      vertex -18.5037 -28.7348 1.6
      vertex -19.3921 -25.4193 1.6
    endloop
  endfacet
  facet normal 0 0 1
    outer loop
      vertex -18.5037 -28.7348 1.6
      vertex -20.2959 -29.3871 1.6
      vertex -18.7048 -32.7992 1.6
    endloop
  endfacet
  facet normal 0 0 1
    outer loop
      vertex -21.2703 -25.7506 1.6
      vertex -19.3921 -25.4193 1.6
      vertex -19.6912 -22 1.6
    endloop
  endfacet
  facet normal 0 0 1
    outer loop
      vertex -19.392 -18.5807 1.6
      vertex -21.2703 -18.2494 1.6
      vertex -19.6912 -22 1.6
    endloop
  endfacet
  facet normal 0 0 1
    outer loop
      vertex -21.5985 -22 1.6
      vertex -19.6912 -22 1.6
      vertex -21.2703 -18.2494 1.6
    endloop
  endfacet
  facet normal 0 0 1
    outer loop
      vertex -19.3921 -25.4193 1.6
      vertex -21.2703 -25.7506 1.6
      vertex -20.2959 -29.3871 1.6
    endloop
  endfacet
  facet normal 0 0 1
    outer loop
      vertex -19.6912 -22 1.6
      vertex -21.5985 -22 1.6
      vertex -21.2703 -25.7506 1.6
    endloop
  endfacet
  facet normal 0.0872006 0.996191 -0
    outer loop
      vertex 1.14584 36.4982 0
      vertex 0 36.5985 1.6
      vertex 1.14584 36.4982 1.6
    endloop
  endfacet
  facet normal 0.0872006 0.996191 0
    outer loop
      vertex 0 36.5985 1.6
      vertex 1.14584 36.4982 0
      vertex 0 36.5985 0
    endloop
  endfacet
  facet normal -0.906307 -0.422621 0
    outer loop
      vertex -18.7048 -32.7992 0
      vertex -20.2959 -29.3871 1.6
      vertex -20.2959 -29.3871 0
    endloop
  endfacet
  facet normal -0.906307 -0.422621 0
    outer loop
      vertex -20.2959 -29.3871 1.6
      vertex -18.7048 -32.7992 0
      vertex -18.7048 -32.7992 1.6
    endloop
  endfacet
  facet normal -0.965926 -0.25882 0
    outer loop
      vertex -20.2959 -29.3871 0
      vertex -21.2703 -25.7506 1.6
      vertex -21.2703 -25.7506 0
    endloop
  endfacet
  facet normal -0.965926 -0.25882 0
    outer loop
      vertex -21.2703 -25.7506 1.6
      vertex -20.2959 -29.3871 0
      vertex -20.2959 -29.3871 1.6
    endloop
  endfacet
  facet normal -0.965934 0.258788 0
    outer loop
      vertex -19.392 -18.5807 1.6
      vertex -18.4607 -15.1046 3.2
      vertex -18.4607 -15.1046 1.6
    endloop
  endfacet
  facet normal -0.965934 0.258788 0
    outer loop
      vertex -18.4607 -15.1046 3.2
      vertex -19.392 -18.5807 1.6
      vertex -19.392 -18.5807 3.2
    endloop
  endfacet
  facet normal 0.573578 -0.819151 0
    outer loop
      vertex 9.84557 -39.0531 1.6
      vertex 12.6573 -37.0843 3.2
      vertex 9.84557 -39.0531 3.2
    endloop
  endfacet
  facet normal 0.573578 -0.819151 0
    outer loop
      vertex 12.6573 -37.0843 3.2
      vertex 9.84557 -39.0531 1.6
      vertex 12.6573 -37.0843 1.6
    endloop
  endfacet
  facet normal -0.258731 0.965949 0
    outer loop
      vertex -0.81456 34.6199 1.6
      vertex -1.60455 34.4083 3.2
      vertex -0.81456 34.6199 3.2
    endloop
  endfacet
  facet normal -0.258731 0.965949 0
    outer loop
      vertex -1.60455 34.4083 3.2
      vertex -0.81456 34.6199 1.6
      vertex -1.60455 34.4083 1.6
    endloop
  endfacet
  facet normal 0.965925 -0.258823 0
    outer loop
      vertex 18.5037 -28.7348 3.2
      vertex 19.3921 -25.4193 1.6
      vertex 19.3921 -25.4193 3.2
    endloop
  endfacet
  facet normal 0.965925 -0.258823 0
    outer loop
      vertex 19.3921 -25.4193 1.6
      vertex 18.5037 -28.7348 3.2
      vertex 18.5037 -28.7348 1.6
    endloop
  endfacet
  facet normal 0.906307 -0.422621 0
    outer loop
      vertex 17.0531 -31.8456 3.2
      vertex 18.5037 -28.7348 1.6
      vertex 18.5037 -28.7348 3.2
    endloop
  endfacet
  facet normal 0.906307 -0.422621 0
    outer loop
      vertex 18.5037 -28.7348 1.6
      vertex 17.0531 -31.8456 3.2
      vertex 17.0531 -31.8456 1.6
    endloop
  endfacet
  facet normal -0.996196 -0.0871413 0
    outer loop
      vertex -19.3921 -25.4193 1.6
      vertex -19.6912 -22 3.2
      vertex -19.6912 -22 1.6
    endloop
  endfacet
  facet normal -0.996196 -0.0871413 0
    outer loop
      vertex -19.6912 -22 3.2
      vertex -19.3921 -25.4193 1.6
      vertex -19.3921 -25.4193 3.2
    endloop
  endfacet
  facet normal 0.422627 -0.906304 0
    outer loop
      vertex 6.73483 -40.5037 1.6
      vertex 9.84557 -39.0531 3.2
      vertex 6.73483 -40.5037 3.2
    endloop
  endfacet
  facet normal 0.422627 -0.906304 0
    outer loop
      vertex 9.84557 -39.0531 3.2
      vertex 6.73483 -40.5037 1.6
      vertex 9.84557 -39.0531 1.6
    endloop
  endfacet
  facet normal -0.906307 -0.422621 0
    outer loop
      vertex -17.0531 -31.8456 1.6
      vertex -18.5037 -28.7348 3.2
      vertex -18.5037 -28.7348 1.6
    endloop
  endfacet
  facet normal -0.906307 -0.422621 0
    outer loop
      vertex -18.5037 -28.7348 3.2
      vertex -17.0531 -31.8456 1.6
      vertex -17.0531 -31.8456 3.2
    endloop
  endfacet
  facet normal 0.957632 0.287995 0
    outer loop
      vertex 18.4607 -15.1046 3.2
      vertex 4.4231 31.5728 1.6
      vertex 4.4231 31.5728 3.2
    endloop
  endfacet
  facet normal 0.957632 0.287995 0
    outer loop
      vertex 4.4231 31.5728 1.6
      vertex 18.4607 -15.1046 3.2
      vertex 18.4607 -15.1046 1.6
    endloop
  endfacet
  facet normal 0.906291 0.422654 0
    outer loop
      vertex 4.4231 31.5728 3.2
      vertex 4.0627 32.3456 1.6
      vertex 4.0627 32.3456 3.2
    endloop
  endfacet
  facet normal 0.906291 0.422654 0
    outer loop
      vertex 4.0627 32.3456 1.6
      vertex 4.4231 31.5728 3.2
      vertex 4.4231 31.5728 1.6
    endloop
  endfacet
  facet normal 0.707137 0.707076 0
    outer loop
      vertex 3.59369 33.0154 3.2
      vertex 3.01544 33.5937 1.6
      vertex 3.01544 33.5937 3.2
    endloop
  endfacet
  facet normal 0.707137 0.707076 0
    outer loop
      vertex 3.01544 33.5937 1.6
      vertex 3.59369 33.0154 3.2
      vertex 3.59369 33.0154 1.6
    endloop
  endfacet
  facet normal -0.0871985 0.996191 0
    outer loop
      vertex 0 34.6912 1.6
      vertex -0.81456 34.6199 3.2
      vertex 0 34.6912 3.2
    endloop
  endfacet
  facet normal -0.0871985 0.996191 0
    outer loop
      vertex -0.81456 34.6199 3.2
      vertex 0 34.6912 1.6
      vertex -0.81456 34.6199 1.6
    endloop
  endfacet
  facet normal 0.087141 -0.996196 0
    outer loop
      vertex 0 -41.6912 1.6
      vertex 3.41931 -41.3921 3.2
      vertex 0 -41.6912 3.2
    endloop
  endfacet
  facet normal 0.087141 -0.996196 0
    outer loop
      vertex 3.41931 -41.3921 3.2
      vertex 0 -41.6912 1.6
      vertex 3.41931 -41.3921 1.6
    endloop
  endfacet
  facet normal 0.707107 -0.707107 0
    outer loop
      vertex 12.6573 -37.0843 3.2
      vertex 15.0843 -34.6573 1.6
      vertex 15.0843 -34.6573 3.2
    endloop
  endfacet
  facet normal 0.707107 -0.707107 0
    outer loop
      vertex 15.0843 -34.6573 1.6
      vertex 12.6573 -37.0843 3.2
      vertex 12.6573 -37.0843 1.6
    endloop
  endfacet
  facet normal 0.996196 -0.0871413 0
    outer loop
      vertex 19.3921 -25.4193 3.2
      vertex 19.6912 -22 1.6
      vertex 19.6912 -22 3.2
    endloop
  endfacet
  facet normal 0.996196 -0.0871413 0
    outer loop
      vertex 19.6912 -22 1.6
      vertex 19.3921 -25.4193 3.2
      vertex 19.3921 -25.4193 1.6
    endloop
  endfacet
  facet normal -0.573572 0.819155 0
    outer loop
      vertex -2.34563 34.0627 1.6
      vertex -3.01544 33.5937 3.2
      vertex -2.34563 34.0627 3.2
    endloop
  endfacet
  facet normal -0.573572 0.819155 0
    outer loop
      vertex -3.01544 33.5937 3.2
      vertex -2.34563 34.0627 1.6
      vertex -3.01544 33.5937 1.6
    endloop
  endfacet
  facet normal -0.573578 -0.819151 0
    outer loop
      vertex -12.6573 -37.0843 1.6
      vertex -9.84557 -39.0531 3.2
      vertex -12.6573 -37.0843 3.2
    endloop
  endfacet
  facet normal -0.573578 -0.819151 -0
    outer loop
      vertex -9.84557 -39.0531 3.2
      vertex -12.6573 -37.0843 1.6
      vertex -9.84557 -39.0531 1.6
    endloop
  endfacet
  facet normal 0.258731 0.965949 -0
    outer loop
      vertex 1.60455 34.4083 1.6
      vertex 0.81456 34.6199 3.2
      vertex 1.60455 34.4083 3.2
    endloop
  endfacet
  facet normal 0.258731 0.965949 0
    outer loop
      vertex 0.81456 34.6199 3.2
      vertex 1.60455 34.4083 1.6
      vertex 0.81456 34.6199 1.6
    endloop
  endfacet
  facet normal -0.965925 -0.258823 0
    outer loop
      vertex -18.5037 -28.7348 1.6
      vertex -19.3921 -25.4193 3.2
      vertex -19.3921 -25.4193 1.6
    endloop
  endfacet
  facet normal -0.965925 -0.258823 0
    outer loop
      vertex -19.3921 -25.4193 3.2
      vertex -18.5037 -28.7348 1.6
      vertex -18.5037 -28.7348 3.2
    endloop
  endfacet
  facet normal -0.957632 0.287995 0
    outer loop
      vertex -18.4607 -15.1046 1.6
      vertex -4.4231 31.5728 3.2
      vertex -4.4231 31.5728 1.6
    endloop
  endfacet
  facet normal -0.957632 0.287995 0
    outer loop
      vertex -4.4231 31.5728 3.2
      vertex -18.4607 -15.1046 1.6
      vertex -18.4607 -15.1046 3.2
    endloop
  endfacet
  facet normal 0.996193 0.0871702 0
    outer loop
      vertex 19.6912 -22 3.2
      vertex 19.392 -18.5807 1.6
      vertex 19.392 -18.5807 3.2
    endloop
  endfacet
  facet normal 0.996193 0.0871702 0
    outer loop
      vertex 19.392 -18.5807 1.6
      vertex 19.6912 -22 3.2
      vertex 19.6912 -22 1.6
    endloop
  endfacet
  facet normal 0.422647 0.906294 -0
    outer loop
      vertex 2.34563 34.0627 1.6
      vertex 1.60455 34.4083 3.2
      vertex 2.34563 34.0627 3.2
    endloop
  endfacet
  facet normal 0.422647 0.906294 0
    outer loop
      vertex 1.60455 34.4083 3.2
      vertex 2.34563 34.0627 1.6
      vertex 1.60455 34.4083 1.6
    endloop
  endfacet
  facet normal 0.965934 0.258788 0
    outer loop
      vertex 19.392 -18.5807 3.2
      vertex 18.4607 -15.1046 1.6
      vertex 18.4607 -15.1046 3.2
    endloop
  endfacet
  facet normal 0.965934 0.258788 0
    outer loop
      vertex 18.4607 -15.1046 1.6
      vertex 19.392 -18.5807 3.2
      vertex 19.392 -18.5807 1.6
    endloop
  endfacet
  facet normal -0.087141 -0.996196 0
    outer loop
      vertex -3.41931 -41.3921 1.6
      vertex 0 -41.6912 3.2
      vertex -3.41931 -41.3921 3.2
    endloop
  endfacet
  facet normal -0.087141 -0.996196 -0
    outer loop
      vertex 0 -41.6912 3.2
      vertex -3.41931 -41.3921 1.6
      vertex 0 -41.6912 1.6
    endloop
  endfacet
  facet normal 0.819148 -0.573582 0
    outer loop
      vertex 15.0843 -34.6573 3.2
      vertex 17.0531 -31.8456 1.6
      vertex 17.0531 -31.8456 3.2
    endloop
  endfacet
  facet normal 0.819148 -0.573582 0
    outer loop
      vertex 17.0531 -31.8456 1.6
      vertex 15.0843 -34.6573 3.2
      vertex 15.0843 -34.6573 1.6
    endloop
  endfacet
  facet normal -0.996193 0.0871702 0
    outer loop
      vertex -19.6912 -22 1.6
      vertex -19.392 -18.5807 3.2
      vertex -19.392 -18.5807 1.6
    endloop
  endfacet
  facet normal -0.996193 0.0871702 0
    outer loop
      vertex -19.392 -18.5807 3.2
      vertex -19.6912 -22 1.6
      vertex -19.6912 -22 3.2
    endloop
  endfacet
  facet normal 0.0871985 0.996191 -0
    outer loop
      vertex 0.81456 34.6199 1.6
      vertex 0 34.6912 3.2
      vertex 0.81456 34.6199 3.2
    endloop
  endfacet
  facet normal 0.0871985 0.996191 0
    outer loop
      vertex 0 34.6912 3.2
      vertex 0.81456 34.6199 1.6
      vertex 0 34.6912 1.6
    endloop
  endfacet
  facet normal 0.258822 -0.965925 0
    outer loop
      vertex 3.41931 -41.3921 1.6
      vertex 6.73483 -40.5037 3.2
      vertex 3.41931 -41.3921 3.2
    endloop
  endfacet
  facet normal 0.258822 -0.965925 0
    outer loop
      vertex 6.73483 -40.5037 3.2
      vertex 3.41931 -41.3921 1.6
      vertex 6.73483 -40.5037 1.6
    endloop
  endfacet
  facet normal -0.422647 0.906294 0
    outer loop
      vertex -1.60455 34.4083 1.6
      vertex -2.34563 34.0627 3.2
      vertex -1.60455 34.4083 3.2
    endloop
  endfacet
  facet normal -0.422647 0.906294 0
    outer loop
      vertex -2.34563 34.0627 3.2
      vertex -1.60455 34.4083 1.6
      vertex -2.34563 34.0627 1.6
    endloop
  endfacet
  facet normal 0.819146 0.573585 0
    outer loop
      vertex 4.0627 32.3456 3.2
      vertex 3.59369 33.0154 1.6
      vertex 3.59369 33.0154 3.2
    endloop
  endfacet
  facet normal 0.819146 0.573585 0
    outer loop
      vertex 3.59369 33.0154 1.6
      vertex 4.0627 32.3456 3.2
      vertex 4.0627 32.3456 1.6
    endloop
  endfacet
  facet normal -0.258822 -0.965925 0
    outer loop
      vertex -6.73483 -40.5037 1.6
      vertex -3.41931 -41.3921 3.2
      vertex -6.73483 -40.5037 3.2
    endloop
  endfacet
  facet normal -0.258822 -0.965925 -0
    outer loop
      vertex -3.41931 -41.3921 3.2
      vertex -6.73483 -40.5037 1.6
      vertex -3.41931 -41.3921 1.6
    endloop
  endfacet
  facet normal -0.422627 -0.906304 0
    outer loop
      vertex -9.84557 -39.0531 1.6
      vertex -6.73483 -40.5037 3.2
      vertex -9.84557 -39.0531 3.2
    endloop
  endfacet
  facet normal -0.422627 -0.906304 -0
    outer loop
      vertex -6.73483 -40.5037 3.2
      vertex -9.84557 -39.0531 1.6
      vertex -6.73483 -40.5037 1.6
    endloop
  endfacet
  facet normal 0.573572 0.819155 -0
    outer loop
      vertex 3.01544 33.5937 1.6
      vertex 2.34563 34.0627 3.2
      vertex 3.01544 33.5937 3.2
    endloop
  endfacet
  facet normal 0.573572 0.819155 0
    outer loop
      vertex 2.34563 34.0627 3.2
      vertex 3.01544 33.5937 1.6
      vertex 2.34563 34.0627 1.6
    endloop
  endfacet
  facet normal -0.707137 0.707076 0
    outer loop
      vertex -3.59369 33.0154 1.6
      vertex -3.01544 33.5937 3.2
      vertex -3.01544 33.5937 1.6
    endloop
  endfacet
  facet normal -0.707137 0.707076 0
    outer loop
      vertex -3.01544 33.5937 3.2
      vertex -3.59369 33.0154 1.6
      vertex -3.59369 33.0154 3.2
    endloop
  endfacet
  facet normal -0.906291 0.422654 0
    outer loop
      vertex -4.4231 31.5728 1.6
      vertex -4.0627 32.3456 3.2
      vertex -4.0627 32.3456 1.6
    endloop
  endfacet
  facet normal -0.906291 0.422654 0
    outer loop
      vertex -4.0627 32.3456 3.2
      vertex -4.4231 31.5728 1.6
      vertex -4.4231 31.5728 3.2
    endloop
  endfacet
  facet normal -0.819146 0.573585 0
    outer loop
      vertex -4.0627 32.3456 1.6
      vertex -3.59369 33.0154 3.2
      vertex -3.59369 33.0154 1.6
    endloop
  endfacet
  facet normal -0.819146 0.573585 0
    outer loop
      vertex -3.59369 33.0154 3.2
      vertex -4.0627 32.3456 1.6
      vertex -4.0627 32.3456 3.2
    endloop
  endfacet
  facet normal -0.819148 -0.573582 0
    outer loop
      vertex -15.0843 -34.6573 1.6
      vertex -17.0531 -31.8456 3.2
      vertex -17.0531 -31.8456 1.6
    endloop
  endfacet
  facet normal -0.819148 -0.573582 0
    outer loop
      vertex -17.0531 -31.8456 3.2
      vertex -15.0843 -34.6573 1.6
      vertex -15.0843 -34.6573 3.2
    endloop
  endfacet
  facet normal -0.707107 -0.707107 0
    outer loop
      vertex -12.6573 -37.0843 1.6
      vertex -15.0843 -34.6573 3.2
      vertex -15.0843 -34.6573 1.6
    endloop
  endfacet
  facet normal -0.707107 -0.707107 0
    outer loop
      vertex -15.0843 -34.6573 3.2
      vertex -12.6573 -37.0843 1.6
      vertex -12.6573 -37.0843 3.2
    endloop
  endfacet
  facet normal 0 0 1
    outer loop
      vertex 5.23259 6.23259 3.2
      vertex -5.23259 6.23259 3.2
      vertex 5.23259 -4.23259 3.2
    endloop
  endfacet
  facet normal 0 0 1
    outer loop
      vertex 5.23259 -4.23259 3.2
      vertex -4.88575 -4.75167 3.2
      vertex -4.76396 -5.36396 3.2
    endloop
  endfacet
  facet normal 0 0 1
    outer loop
      vertex -5.23259 -4.23259 3.2
      vertex 5.23259 -4.23259 3.2
      vertex -5.23259 6.23259 3.2
    endloop
  endfacet
  facet normal 0 0 1
    outer loop
      vertex 5.23259 -4.23259 3.2
      vertex -5.23259 -4.23259 3.2
      vertex -4.88575 -4.75167 3.2
    endloop
  endfacet
  facet normal -0 0 1
    outer loop
      vertex -5.75167 5.88575 3.2
      vertex -5.23259 -4.23259 3.2
      vertex -5.23259 6.23259 3.2
    endloop
  endfacet
  facet normal 0 0 1
    outer loop
      vertex -5.75167 5.88575 3.2
      vertex -5.75167 -3.88575 3.2
      vertex -5.23259 -4.23259 3.2
    endloop
  endfacet
  facet normal -0 0 1
    outer loop
      vertex -6.36396 5.76396 3.2
      vertex -5.75167 -3.88575 3.2
      vertex -5.75167 5.88575 3.2
    endloop
  endfacet
  facet normal 0 0 1
    outer loop
      vertex -6.36396 5.76396 3.2
      vertex -6.36396 -3.76396 3.2
      vertex -5.75167 -3.88575 3.2
    endloop
  endfacet
  facet normal 0 0 1
    outer loop
      vertex -6.97625 5.88575 3.2
      vertex -6.36396 -3.76396 3.2
      vertex -6.36396 5.76396 3.2
    endloop
  endfacet
  facet normal 0 0 1
    outer loop
      vertex -6.97625 5.88575 3.2
      vertex -6.97625 -3.88575 3.2
      vertex -6.36396 -3.76396 3.2
    endloop
  endfacet
  facet normal 0 0 1
    outer loop
      vertex -7.49533 6.23259 3.2
      vertex -6.97625 -3.88575 3.2
      vertex -6.97625 5.88575 3.2
    endloop
  endfacet
  facet normal 0 0 1
    outer loop
      vertex -7.49533 6.23259 3.2
      vertex -7.49533 -4.23259 3.2
      vertex -6.97625 -3.88575 3.2
    endloop
  endfacet
  facet normal 0 0 1
    outer loop
      vertex -7.84217 6.75167 3.2
      vertex -7.49533 -4.23259 3.2
      vertex -7.49533 6.23259 3.2
    endloop
  endfacet
  facet normal 0 0 1
    outer loop
      vertex -7.84217 6.75167 3.2
      vertex -7.84217 -4.75167 3.2
      vertex -7.49533 -4.23259 3.2
    endloop
  endfacet
  facet normal 0 0 1
    outer loop
      vertex -18.4607 -15.1046 3.2
      vertex -7.84217 6.75167 3.2
      vertex -7.96396 7.36396 3.2
    endloop
  endfacet
  facet normal 0 0 1
    outer loop
      vertex -7.84217 6.75167 3.2
      vertex -18.4607 -15.1046 3.2
      vertex -7.84217 -4.75167 3.2
    endloop
  endfacet
  facet normal 0 0 1
    outer loop
      vertex 4.88575 7.97625 3.2
      vertex -4.88575 7.97625 3.2
      vertex -4.76396 7.36396 3.2
    endloop
  endfacet
  facet normal 0 0 1
    outer loop
      vertex 4.4231 31.5728 3.2
      vertex -5.23259 8.49533 3.2
      vertex -4.88575 7.97625 3.2
    endloop
  endfacet
  facet normal 0 0 1
    outer loop
      vertex 4.4231 31.5728 3.2
      vertex -5.75167 8.84217 3.2
      vertex -5.23259 8.49533 3.2
    endloop
  endfacet
  facet normal 0 0 1
    outer loop
      vertex -4.4231 31.5728 3.2
      vertex -6.36396 8.96396 3.2
      vertex -5.75167 8.84217 3.2
    endloop
  endfacet
  facet normal 0 0 1
    outer loop
      vertex -4.4231 31.5728 3.2
      vertex -6.97625 8.84217 3.2
      vertex -6.36396 8.96396 3.2
    endloop
  endfacet
  facet normal 0 0 1
    outer loop
      vertex -4.4231 31.5728 3.2
      vertex -7.49533 8.49533 3.2
      vertex -6.97625 8.84217 3.2
    endloop
  endfacet
  facet normal 0 0 1
    outer loop
      vertex -4.4231 31.5728 3.2
      vertex -7.84217 7.97625 3.2
      vertex -7.49533 8.49533 3.2
    endloop
  endfacet
  facet normal 0 0 1
    outer loop
      vertex -18.4607 -15.1046 3.2
      vertex -7.84217 7.97625 3.2
      vertex -4.4231 31.5728 3.2
    endloop
  endfacet
  facet normal 0 0 1
    outer loop
      vertex -7.84217 -4.75167 3.2
      vertex -18.4607 -15.1046 3.2
      vertex -7.96396 -5.36396 3.2
    endloop
  endfacet
  facet normal 0 0 1
    outer loop
      vertex -19.392 -18.5807 3.2
      vertex -7.96396 -5.36396 3.2
      vertex -18.4607 -15.1046 3.2
    endloop
  endfacet
  facet normal 0 0 1
    outer loop
      vertex -7.96396 -5.36396 3.2
      vertex -12.6573 -37.0843 3.2
      vertex -9.84557 -39.0531 3.2
    endloop
  endfacet
  facet normal 0 0 1
    outer loop
      vertex -7.84217 7.97625 3.2
      vertex -18.4607 -15.1046 3.2
      vertex -7.96396 7.36396 3.2
    endloop
  endfacet
  facet normal 0 0 1
    outer loop
      vertex -7.96396 -5.36396 3.2
      vertex -15.0843 -34.6573 3.2
      vertex -12.6573 -37.0843 3.2
    endloop
  endfacet
  facet normal 0 0 1
    outer loop
      vertex -7.96396 -5.36396 3.2
      vertex -17.0531 -31.8456 3.2
      vertex -15.0843 -34.6573 3.2
    endloop
  endfacet
  facet normal 0 0 1
    outer loop
      vertex -7.96396 -5.36396 3.2
      vertex -18.5037 -28.7348 3.2
      vertex -17.0531 -31.8456 3.2
    endloop
  endfacet
  facet normal 0 0 1
    outer loop
      vertex -19.6912 -22 3.2
      vertex -7.96396 -5.36396 3.2
      vertex -19.392 -18.5807 3.2
    endloop
  endfacet
  facet normal 0 0 1
    outer loop
      vertex -7.96396 -5.36396 3.2
      vertex -19.3921 -25.4193 3.2
      vertex -18.5037 -28.7348 3.2
    endloop
  endfacet
  facet normal 0 0 1
    outer loop
      vertex -7.96396 -5.36396 3.2
      vertex -19.6912 -22 3.2
      vertex -19.3921 -25.4193 3.2
    endloop
  endfacet
  facet normal -0 0 1
    outer loop
      vertex 7.84217 -4.75167 3.2
      vertex 18.4607 -15.1046 3.2
      vertex 7.84217 6.75167 3.2
    endloop
  endfacet
  facet normal 0 0 1
    outer loop
      vertex 18.4607 -15.1046 3.2
      vertex 7.84217 -4.75167 3.2
      vertex 7.96396 -5.36396 3.2
    endloop
  endfacet
  facet normal -0 0 1
    outer loop
      vertex 7.49533 6.23259 3.2
      vertex 7.84217 -4.75167 3.2
      vertex 7.84217 6.75167 3.2
    endloop
  endfacet
  facet normal 0 0 1
    outer loop
      vertex 7.49533 6.23259 3.2
      vertex 7.49533 -4.23259 3.2
      vertex 7.84217 -4.75167 3.2
    endloop
  endfacet
  facet normal -0 0 1
    outer loop
      vertex 6.97625 5.88575 3.2
      vertex 7.49533 -4.23259 3.2
      vertex 7.49533 6.23259 3.2
    endloop
  endfacet
  facet normal 0 0 1
    outer loop
      vertex 6.97625 5.88575 3.2
      vertex 6.97625 -3.88575 3.2
      vertex 7.49533 -4.23259 3.2
    endloop
  endfacet
  facet normal -0 0 1
    outer loop
      vertex 6.36396 5.76396 3.2
      vertex 6.97625 -3.88575 3.2
      vertex 6.97625 5.88575 3.2
    endloop
  endfacet
  facet normal 0 0 1
    outer loop
      vertex 6.36396 5.76396 3.2
      vertex 6.36396 -3.76396 3.2
      vertex 6.97625 -3.88575 3.2
    endloop
  endfacet
  facet normal 0 0 1
    outer loop
      vertex 5.75167 5.88575 3.2
      vertex 6.36396 -3.76396 3.2
      vertex 6.36396 5.76396 3.2
    endloop
  endfacet
  facet normal 0 0 1
    outer loop
      vertex 5.75167 5.88575 3.2
      vertex 5.75167 -3.88575 3.2
      vertex 6.36396 -3.76396 3.2
    endloop
  endfacet
  facet normal 0 0 1
    outer loop
      vertex 5.23259 6.23259 3.2
      vertex 5.75167 -3.88575 3.2
      vertex 5.75167 5.88575 3.2
    endloop
  endfacet
  facet normal 0 0 1
    outer loop
      vertex 5.23259 6.23259 3.2
      vertex 5.23259 -4.23259 3.2
      vertex 5.75167 -3.88575 3.2
    endloop
  endfacet
  facet normal 0 0 1
    outer loop
      vertex -4.88575 6.75167 3.2
      vertex 4.88575 6.75167 3.2
      vertex -4.76396 7.36396 3.2
    endloop
  endfacet
  facet normal 0 0 1
    outer loop
      vertex 4.88575 6.75167 3.2
      vertex -4.88575 6.75167 3.2
      vertex 5.23259 6.23259 3.2
    endloop
  endfacet
  facet normal -0 0 1
    outer loop
      vertex -4.76396 7.36396 3.2
      vertex 4.88575 6.75167 3.2
      vertex 4.76396 7.36396 3.2
    endloop
  endfacet
  facet normal 0 0 1
    outer loop
      vertex -5.23259 6.23259 3.2
      vertex 5.23259 6.23259 3.2
      vertex -4.88575 6.75167 3.2
    endloop
  endfacet
  facet normal 0 0 1
    outer loop
      vertex 6.36396 -6.96396 3.2
      vertex 19.6912 -22 3.2
      vertex 19.392 -18.5807 3.2
    endloop
  endfacet
  facet normal 0 0 1
    outer loop
      vertex 19.6912 -22 3.2
      vertex 6.36396 -6.96396 3.2
      vertex 19.3921 -25.4193 3.2
    endloop
  endfacet
  facet normal 0 0 1
    outer loop
      vertex 6.36396 -6.96396 3.2
      vertex 19.392 -18.5807 3.2
      vertex 18.4607 -15.1046 3.2
    endloop
  endfacet
  facet normal 0 0 1
    outer loop
      vertex 19.3921 -25.4193 3.2
      vertex 6.36396 -6.96396 3.2
      vertex 18.5037 -28.7348 3.2
    endloop
  endfacet
  facet normal 0 0 1
    outer loop
      vertex 18.5037 -28.7348 3.2
      vertex 6.36396 -6.96396 3.2
      vertex 17.0531 -31.8456 3.2
    endloop
  endfacet
  facet normal 0 0 1
    outer loop
      vertex 5.75167 -6.84217 3.2
      vertex 17.0531 -31.8456 3.2
      vertex 6.36396 -6.96396 3.2
    endloop
  endfacet
  facet normal 0 0 1
    outer loop
      vertex 17.0531 -31.8456 3.2
      vertex 5.75167 -6.84217 3.2
      vertex 15.0843 -34.6573 3.2
    endloop
  endfacet
  facet normal -0 0 1
    outer loop
      vertex 7.84217 6.75167 3.2
      vertex 18.4607 -15.1046 3.2
      vertex 7.96396 7.36396 3.2
    endloop
  endfacet
  facet normal 0 0 1
    outer loop
      vertex 18.4607 -15.1046 3.2
      vertex 7.84217 7.97625 3.2
      vertex 7.96396 7.36396 3.2
    endloop
  endfacet
  facet normal 0 0 1
    outer loop
      vertex 4.88575 7.97625 3.2
      vertex -4.76396 7.36396 3.2
      vertex 4.76396 7.36396 3.2
    endloop
  endfacet
  facet normal 0 0 1
    outer loop
      vertex -4.88575 7.97625 3.2
      vertex 4.88575 7.97625 3.2
      vertex 5.23259 8.49533 3.2
    endloop
  endfacet
  facet normal 0 0 1
    outer loop
      vertex -4.88575 7.97625 3.2
      vertex 5.23259 8.49533 3.2
      vertex 5.75167 8.84217 3.2
    endloop
  endfacet
  facet normal 0 0 1
    outer loop
      vertex -4.88575 7.97625 3.2
      vertex 5.75167 8.84217 3.2
      vertex 4.4231 31.5728 3.2
    endloop
  endfacet
  facet normal 0 0 1
    outer loop
      vertex 6.36396 8.96396 3.2
      vertex 4.4231 31.5728 3.2
      vertex 5.75167 8.84217 3.2
    endloop
  endfacet
  facet normal 0 0 1
    outer loop
      vertex 6.97625 8.84217 3.2
      vertex 4.4231 31.5728 3.2
      vertex 6.36396 8.96396 3.2
    endloop
  endfacet
  facet normal 0 0 1
    outer loop
      vertex 7.49533 8.49533 3.2
      vertex 4.4231 31.5728 3.2
      vertex 6.97625 8.84217 3.2
    endloop
  endfacet
  facet normal 0 0 1
    outer loop
      vertex 7.84217 7.97625 3.2
      vertex 4.4231 31.5728 3.2
      vertex 7.49533 8.49533 3.2
    endloop
  endfacet
  facet normal 0 0 1
    outer loop
      vertex 4.4231 31.5728 3.2
      vertex 7.84217 7.97625 3.2
      vertex 18.4607 -15.1046 3.2
    endloop
  endfacet
  facet normal -0 0 1
    outer loop
      vertex 7.84217 -5.97625 3.2
      vertex 18.4607 -15.1046 3.2
      vertex 7.96396 -5.36396 3.2
    endloop
  endfacet
  facet normal -0 0 1
    outer loop
      vertex 7.49533 -6.49533 3.2
      vertex 18.4607 -15.1046 3.2
      vertex 7.84217 -5.97625 3.2
    endloop
  endfacet
  facet normal -0 0 1
    outer loop
      vertex 6.97625 -6.84217 3.2
      vertex 18.4607 -15.1046 3.2
      vertex 7.49533 -6.49533 3.2
    endloop
  endfacet
  facet normal -0 0 1
    outer loop
      vertex 6.36396 -6.96396 3.2
      vertex 18.4607 -15.1046 3.2
      vertex 6.97625 -6.84217 3.2
    endloop
  endfacet
  facet normal 0 0 1
    outer loop
      vertex 15.0843 -34.6573 3.2
      vertex 5.75167 -6.84217 3.2
      vertex 12.6573 -37.0843 3.2
    endloop
  endfacet
  facet normal 0 0 1
    outer loop
      vertex 12.6573 -37.0843 3.2
      vertex 5.75167 -6.84217 3.2
      vertex 9.84557 -39.0531 3.2
    endloop
  endfacet
  facet normal 0 0 1
    outer loop
      vertex 9.84557 -39.0531 3.2
      vertex 5.75167 -6.84217 3.2
      vertex 6.73483 -40.5037 3.2
    endloop
  endfacet
  facet normal 0 0 1
    outer loop
      vertex -5.75167 -6.84217 3.2
      vertex 5.75167 -6.84217 3.2
      vertex 5.23259 -6.49533 3.2
    endloop
  endfacet
  facet normal 0 0 1
    outer loop
      vertex -5.23259 -6.49533 3.2
      vertex 5.23259 -6.49533 3.2
      vertex 4.88575 -5.97625 3.2
    endloop
  endfacet
  facet normal 0 0 1
    outer loop
      vertex -4.88575 -5.97625 3.2
      vertex 4.88575 -5.97625 3.2
      vertex 4.76396 -5.36396 3.2
    endloop
  endfacet
  facet normal 0 0 1
    outer loop
      vertex -4.4231 31.5728 3.2
      vertex 4.4231 31.5728 3.2
      vertex 4.0627 32.3456 3.2
    endloop
  endfacet
  facet normal 0 0 1
    outer loop
      vertex -4.4231 31.5728 3.2
      vertex 4.0627 32.3456 3.2
      vertex 3.59369 33.0154 3.2
    endloop
  endfacet
  facet normal 0 0 1
    outer loop
      vertex 5.75167 -6.84217 3.2
      vertex -5.75167 -6.84217 3.2
      vertex 3.41931 -41.3921 3.2
    endloop
  endfacet
  facet normal 0 0 1
    outer loop
      vertex 5.23259 -4.23259 3.2
      vertex -4.76396 -5.36396 3.2
      vertex 4.88575 -4.75167 3.2
    endloop
  endfacet
  facet normal 0 0 1
    outer loop
      vertex -4.4231 31.5728 3.2
      vertex 3.59369 33.0154 3.2
      vertex 3.01544 33.5937 3.2
    endloop
  endfacet
  facet normal 0 0 1
    outer loop
      vertex -4.4231 31.5728 3.2
      vertex 3.01544 33.5937 3.2
      vertex 2.34563 34.0627 3.2
    endloop
  endfacet
  facet normal 0 0 1
    outer loop
      vertex -4.4231 31.5728 3.2
      vertex 2.34563 34.0627 3.2
      vertex 1.60455 34.4083 3.2
    endloop
  endfacet
  facet normal 0 0 1
    outer loop
      vertex -4.4231 31.5728 3.2
      vertex 1.60455 34.4083 3.2
      vertex 0.81456 34.6199 3.2
    endloop
  endfacet
  facet normal 0 0 1
    outer loop
      vertex -4.4231 31.5728 3.2
      vertex 0.81456 34.6199 3.2
      vertex 0 34.6912 3.2
    endloop
  endfacet
  facet normal 0 0 1
    outer loop
      vertex -4.88575 -5.97625 3.2
      vertex 4.76396 -5.36396 3.2
      vertex -4.76396 -5.36396 3.2
    endloop
  endfacet
  facet normal 0 0 1
    outer loop
      vertex -4.4231 31.5728 3.2
      vertex 0 34.6912 3.2
      vertex -0.81456 34.6199 3.2
    endloop
  endfacet
  facet normal 0 0 1
    outer loop
      vertex -4.4231 31.5728 3.2
      vertex -0.81456 34.6199 3.2
      vertex -1.60455 34.4083 3.2
    endloop
  endfacet
  facet normal 0 0 1
    outer loop
      vertex -4.4231 31.5728 3.2
      vertex -1.60455 34.4083 3.2
      vertex -2.34563 34.0627 3.2
    endloop
  endfacet
  facet normal 0 0 1
    outer loop
      vertex -4.4231 31.5728 3.2
      vertex -2.34563 34.0627 3.2
      vertex -3.01544 33.5937 3.2
    endloop
  endfacet
  facet normal 0 0 1
    outer loop
      vertex 4.88575 -4.75167 3.2
      vertex -4.76396 -5.36396 3.2
      vertex 4.76396 -5.36396 3.2
    endloop
  endfacet
  facet normal 0 0 1
    outer loop
      vertex -4.4231 31.5728 3.2
      vertex -3.01544 33.5937 3.2
      vertex -3.59369 33.0154 3.2
    endloop
  endfacet
  facet normal 0 0 1
    outer loop
      vertex -4.4231 31.5728 3.2
      vertex -3.59369 33.0154 3.2
      vertex -4.0627 32.3456 3.2
    endloop
  endfacet
  facet normal 0 0 1
    outer loop
      vertex -5.75167 8.84217 3.2
      vertex 4.4231 31.5728 3.2
      vertex -4.4231 31.5728 3.2
    endloop
  endfacet
  facet normal 0 0 1
    outer loop
      vertex 4.88575 -5.97625 3.2
      vertex -4.88575 -5.97625 3.2
      vertex -5.23259 -6.49533 3.2
    endloop
  endfacet
  facet normal 0 0 1
    outer loop
      vertex 5.23259 -6.49533 3.2
      vertex -5.23259 -6.49533 3.2
      vertex -5.75167 -6.84217 3.2
    endloop
  endfacet
  facet normal 0 0 1
    outer loop
      vertex 5.75167 -6.84217 3.2
      vertex 3.41931 -41.3921 3.2
      vertex 6.73483 -40.5037 3.2
    endloop
  endfacet
  facet normal 0 0 1
    outer loop
      vertex 3.41931 -41.3921 3.2
      vertex -5.75167 -6.84217 3.2
      vertex 0 -41.6912 3.2
    endloop
  endfacet
  facet normal 0 0 1
    outer loop
      vertex 0 -41.6912 3.2
      vertex -5.75167 -6.84217 3.2
      vertex -3.41931 -41.3921 3.2
    endloop
  endfacet
  facet normal 0 0 1
    outer loop
      vertex -9.84557 -39.0531 3.2
      vertex -5.75167 -6.84217 3.2
      vertex -6.36396 -6.96396 3.2
    endloop
  endfacet
  facet normal 0 0 1
    outer loop
      vertex -5.75167 -6.84217 3.2
      vertex -6.73483 -40.5037 3.2
      vertex -3.41931 -41.3921 3.2
    endloop
  endfacet
  facet normal 0 0 1
    outer loop
      vertex -9.84557 -39.0531 3.2
      vertex -6.36396 -6.96396 3.2
      vertex -6.97625 -6.84217 3.2
    endloop
  endfacet
  facet normal 0 0 1
    outer loop
      vertex -9.84557 -39.0531 3.2
      vertex -6.97625 -6.84217 3.2
      vertex -7.49533 -6.49533 3.2
    endloop
  endfacet
  facet normal 0 0 1
    outer loop
      vertex -9.84557 -39.0531 3.2
      vertex -7.49533 -6.49533 3.2
      vertex -7.84217 -5.97625 3.2
    endloop
  endfacet
  facet normal 0 0 1
    outer loop
      vertex -9.84557 -39.0531 3.2
      vertex -7.84217 -5.97625 3.2
      vertex -7.96396 -5.36396 3.2
    endloop
  endfacet
  facet normal 0 0 1
    outer loop
      vertex -5.75167 -6.84217 3.2
      vertex -9.84557 -39.0531 3.2
      vertex -6.73483 -40.5037 3.2
    endloop
  endfacet
  facet normal -0.831468 -0.555572 0
    outer loop
      vertex 7.84217 7.97625 1.6
      vertex 7.49533 8.49533 3.2
      vertex 7.49533 8.49533 1.6
    endloop
  endfacet
  facet normal -0.831468 -0.555572 0
    outer loop
      vertex 7.49533 8.49533 3.2
      vertex 7.84217 7.97625 1.6
      vertex 7.84217 7.97625 3.2
    endloop
  endfacet
  facet normal -0.980786 -0.195087 0
    outer loop
      vertex 7.96396 7.36396 1.6
      vertex 7.84217 7.97625 3.2
      vertex 7.84217 7.97625 1.6
    endloop
  endfacet
  facet normal -0.980786 -0.195087 0
    outer loop
      vertex 7.84217 7.97625 3.2
      vertex 7.96396 7.36396 1.6
      vertex 7.96396 7.36396 3.2
    endloop
  endfacet
  facet normal -0.555572 -0.831468 0
    outer loop
      vertex 6.97625 8.84217 1.6
      vertex 7.49533 8.49533 3.2
      vertex 6.97625 8.84217 3.2
    endloop
  endfacet
  facet normal -0.555572 -0.831468 -0
    outer loop
      vertex 7.49533 8.49533 3.2
      vertex 6.97625 8.84217 1.6
      vertex 7.49533 8.49533 1.6
    endloop
  endfacet
  facet normal -0.195087 -0.980786 0
    outer loop
      vertex 6.36396 8.96396 1.6
      vertex 6.97625 8.84217 3.2
      vertex 6.36396 8.96396 3.2
    endloop
  endfacet
  facet normal -0.195087 -0.980786 -0
    outer loop
      vertex 6.97625 8.84217 3.2
      vertex 6.36396 8.96396 1.6
      vertex 6.97625 8.84217 1.6
    endloop
  endfacet
  facet normal -0.980786 0.195087 0
    outer loop
      vertex 7.84217 6.75167 1.6
      vertex 7.96396 7.36396 3.2
      vertex 7.96396 7.36396 1.6
    endloop
  endfacet
  facet normal -0.980786 0.195087 0
    outer loop
      vertex 7.96396 7.36396 3.2
      vertex 7.84217 6.75167 1.6
      vertex 7.84217 6.75167 3.2
    endloop
  endfacet
  facet normal -0.555572 0.831468 0
    outer loop
      vertex 7.49533 6.23259 1.6
      vertex 6.97625 5.88575 3.2
      vertex 7.49533 6.23259 3.2
    endloop
  endfacet
  facet normal -0.555572 0.831468 0
    outer loop
      vertex 6.97625 5.88575 3.2
      vertex 7.49533 6.23259 1.6
      vertex 6.97625 5.88575 1.6
    endloop
  endfacet
  facet normal 0.555572 -0.831468 0
    outer loop
      vertex 5.23259 8.49533 1.6
      vertex 5.75167 8.84217 3.2
      vertex 5.23259 8.49533 3.2
    endloop
  endfacet
  facet normal 0.555572 -0.831468 0
    outer loop
      vertex 5.75167 8.84217 3.2
      vertex 5.23259 8.49533 1.6
      vertex 5.75167 8.84217 1.6
    endloop
  endfacet
  facet normal 0.831468 0.555572 0
    outer loop
      vertex 5.23259 6.23259 3.2
      vertex 4.88575 6.75167 1.6
      vertex 4.88575 6.75167 3.2
    endloop
  endfacet
  facet normal 0.831468 0.555572 0
    outer loop
      vertex 4.88575 6.75167 1.6
      vertex 5.23259 6.23259 3.2
      vertex 5.23259 6.23259 1.6
    endloop
  endfacet
  facet normal 0.195087 0.980786 -0
    outer loop
      vertex 6.36396 5.76396 1.6
      vertex 5.75167 5.88575 3.2
      vertex 6.36396 5.76396 3.2
    endloop
  endfacet
  facet normal 0.195087 0.980786 0
    outer loop
      vertex 5.75167 5.88575 3.2
      vertex 6.36396 5.76396 1.6
      vertex 5.75167 5.88575 1.6
    endloop
  endfacet
  facet normal 0.980786 -0.195087 0
    outer loop
      vertex 4.76396 7.36396 3.2
      vertex 4.88575 7.97625 1.6
      vertex 4.88575 7.97625 3.2
    endloop
  endfacet
  facet normal 0.980786 -0.195087 0
    outer loop
      vertex 4.88575 7.97625 1.6
      vertex 4.76396 7.36396 3.2
      vertex 4.76396 7.36396 1.6
    endloop
  endfacet
  facet normal 0.831468 -0.555572 0
    outer loop
      vertex 4.88575 7.97625 3.2
      vertex 5.23259 8.49533 1.6
      vertex 5.23259 8.49533 3.2
    endloop
  endfacet
  facet normal 0.831468 -0.555572 0
    outer loop
      vertex 5.23259 8.49533 1.6
      vertex 4.88575 7.97625 3.2
      vertex 4.88575 7.97625 1.6
    endloop
  endfacet
  facet normal -0.831468 0.555572 0
    outer loop
      vertex 7.49533 6.23259 1.6
      vertex 7.84217 6.75167 3.2
      vertex 7.84217 6.75167 1.6
    endloop
  endfacet
  facet normal -0.831468 0.555572 0
    outer loop
      vertex 7.84217 6.75167 3.2
      vertex 7.49533 6.23259 1.6
      vertex 7.49533 6.23259 3.2
    endloop
  endfacet
  facet normal 0.195087 -0.980786 0
    outer loop
      vertex 5.75167 8.84217 1.6
      vertex 6.36396 8.96396 3.2
      vertex 5.75167 8.84217 3.2
    endloop
  endfacet
  facet normal 0.195087 -0.980786 0
    outer loop
      vertex 6.36396 8.96396 3.2
      vertex 5.75167 8.84217 1.6
      vertex 6.36396 8.96396 1.6
    endloop
  endfacet
  facet normal -0.195087 0.980786 0
    outer loop
      vertex 6.97625 5.88575 1.6
      vertex 6.36396 5.76396 3.2
      vertex 6.97625 5.88575 3.2
    endloop
  endfacet
  facet normal -0.195087 0.980786 0
    outer loop
      vertex 6.36396 5.76396 3.2
      vertex 6.97625 5.88575 1.6
      vertex 6.36396 5.76396 1.6
    endloop
  endfacet
  facet normal 0.980786 0.195087 0
    outer loop
      vertex 4.88575 6.75167 3.2
      vertex 4.76396 7.36396 1.6
      vertex 4.76396 7.36396 3.2
    endloop
  endfacet
  facet normal 0.980786 0.195087 0
    outer loop
      vertex 4.76396 7.36396 1.6
      vertex 4.88575 6.75167 3.2
      vertex 4.88575 6.75167 1.6
    endloop
  endfacet
  facet normal 0 0 1
    outer loop
      vertex 7.84217 7.97625 1.6
      vertex 7.84217 6.75167 1.6
      vertex 7.96396 7.36396 1.6
    endloop
  endfacet
  facet normal 0 0 1
    outer loop
      vertex 7.49533 8.49533 1.6
      vertex 7.84217 6.75167 1.6
      vertex 7.84217 7.97625 1.6
    endloop
  endfacet
  facet normal 0 0 1
    outer loop
      vertex 7.49533 8.49533 1.6
      vertex 7.49533 6.23259 1.6
      vertex 7.84217 6.75167 1.6
    endloop
  endfacet
  facet normal 0 0 1
    outer loop
      vertex 6.97625 8.84217 1.6
      vertex 7.49533 6.23259 1.6
      vertex 7.49533 8.49533 1.6
    endloop
  endfacet
  facet normal 0 0 1
    outer loop
      vertex 6.97625 8.84217 1.6
      vertex 6.97625 5.88575 1.6
      vertex 7.49533 6.23259 1.6
    endloop
  endfacet
  facet normal 0 0 1
    outer loop
      vertex 6.36396 8.96396 1.6
      vertex 6.97625 5.88575 1.6
      vertex 6.97625 8.84217 1.6
    endloop
  endfacet
  facet normal 0 0 1
    outer loop
      vertex 6.36396 8.96396 1.6
      vertex 6.36396 5.76396 1.6
      vertex 6.97625 5.88575 1.6
    endloop
  endfacet
  facet normal -0 0 1
    outer loop
      vertex 5.75167 8.84217 1.6
      vertex 6.36396 5.76396 1.6
      vertex 6.36396 8.96396 1.6
    endloop
  endfacet
  facet normal 0 0 1
    outer loop
      vertex 5.75167 8.84217 1.6
      vertex 5.75167 5.88575 1.6
      vertex 6.36396 5.76396 1.6
    endloop
  endfacet
  facet normal -0 0 1
    outer loop
      vertex 5.23259 8.49533 1.6
      vertex 5.75167 5.88575 1.6
      vertex 5.75167 8.84217 1.6
    endloop
  endfacet
  facet normal 0 0 1
    outer loop
      vertex 5.23259 8.49533 1.6
      vertex 5.23259 6.23259 1.6
      vertex 5.75167 5.88575 1.6
    endloop
  endfacet
  facet normal -0 0 1
    outer loop
      vertex 4.88575 7.97625 1.6
      vertex 5.23259 6.23259 1.6
      vertex 5.23259 8.49533 1.6
    endloop
  endfacet
  facet normal 0 0 1
    outer loop
      vertex 4.88575 7.97625 1.6
      vertex 4.88575 6.75167 1.6
      vertex 5.23259 6.23259 1.6
    endloop
  endfacet
  facet normal 0 -0 1
    outer loop
      vertex 4.88575 6.75167 1.6
      vertex 4.88575 7.97625 1.6
      vertex 4.76396 7.36396 1.6
    endloop
  endfacet
  facet normal 0.555572 0.831468 -0
    outer loop
      vertex 5.75167 5.88575 1.6
      vertex 5.23259 6.23259 3.2
      vertex 5.75167 5.88575 3.2
    endloop
  endfacet
  facet normal 0.555572 0.831468 0
    outer loop
      vertex 5.23259 6.23259 3.2
      vertex 5.75167 5.88575 1.6
      vertex 5.23259 6.23259 1.6
    endloop
  endfacet
  facet normal 0.980786 -0.195087 0
    outer loop
      vertex -7.96396 7.36396 3.2
      vertex -7.84217 7.97625 1.6
      vertex -7.84217 7.97625 3.2
    endloop
  endfacet
  facet normal 0.980786 -0.195087 0
    outer loop
      vertex -7.84217 7.97625 1.6
      vertex -7.96396 7.36396 3.2
      vertex -7.96396 7.36396 1.6
    endloop
  endfacet
  facet normal -0.831468 -0.555572 0
    outer loop
      vertex -4.88575 7.97625 1.6
      vertex -5.23259 8.49533 3.2
      vertex -5.23259 8.49533 1.6
    endloop
  endfacet
  facet normal -0.831468 -0.555572 0
    outer loop
      vertex -5.23259 8.49533 3.2
      vertex -4.88575 7.97625 1.6
      vertex -4.88575 7.97625 3.2
    endloop
  endfacet
  facet normal -0.980786 -0.195087 0
    outer loop
      vertex -4.76396 7.36396 1.6
      vertex -4.88575 7.97625 3.2
      vertex -4.88575 7.97625 1.6
    endloop
  endfacet
  facet normal -0.980786 -0.195087 0
    outer loop
      vertex -4.88575 7.97625 3.2
      vertex -4.76396 7.36396 1.6
      vertex -4.76396 7.36396 3.2
    endloop
  endfacet
  facet normal -0.555572 -0.831468 0
    outer loop
      vertex -5.75167 8.84217 1.6
      vertex -5.23259 8.49533 3.2
      vertex -5.75167 8.84217 3.2
    endloop
  endfacet
  facet normal -0.555572 -0.831468 -0
    outer loop
      vertex -5.23259 8.49533 3.2
      vertex -5.75167 8.84217 1.6
      vertex -5.23259 8.49533 1.6
    endloop
  endfacet
  facet normal -0.831468 0.555572 0
    outer loop
      vertex -5.23259 6.23259 1.6
      vertex -4.88575 6.75167 3.2
      vertex -4.88575 6.75167 1.6
    endloop
  endfacet
  facet normal -0.831468 0.555572 0
    outer loop
      vertex -4.88575 6.75167 3.2
      vertex -5.23259 6.23259 1.6
      vertex -5.23259 6.23259 3.2
    endloop
  endfacet
  facet normal -0.555572 0.831468 0
    outer loop
      vertex -5.23259 6.23259 1.6
      vertex -5.75167 5.88575 3.2
      vertex -5.23259 6.23259 3.2
    endloop
  endfacet
  facet normal -0.555572 0.831468 0
    outer loop
      vertex -5.75167 5.88575 3.2
      vertex -5.23259 6.23259 1.6
      vertex -5.75167 5.88575 1.6
    endloop
  endfacet
  facet normal 0.555572 -0.831468 0
    outer loop
      vertex -7.49533 8.49533 1.6
      vertex -6.97625 8.84217 3.2
      vertex -7.49533 8.49533 3.2
    endloop
  endfacet
  facet normal 0.555572 -0.831468 0
    outer loop
      vertex -6.97625 8.84217 3.2
      vertex -7.49533 8.49533 1.6
      vertex -6.97625 8.84217 1.6
    endloop
  endfacet
  facet normal 0.195087 0.980786 -0
    outer loop
      vertex -6.36396 5.76396 1.6
      vertex -6.97625 5.88575 3.2
      vertex -6.36396 5.76396 3.2
    endloop
  endfacet
  facet normal 0.195087 0.980786 0
    outer loop
      vertex -6.97625 5.88575 3.2
      vertex -6.36396 5.76396 1.6
      vertex -6.97625 5.88575 1.6
    endloop
  endfacet
  facet normal 0.195087 -0.980786 0
    outer loop
      vertex -6.97625 8.84217 1.6
      vertex -6.36396 8.96396 3.2
      vertex -6.97625 8.84217 3.2
    endloop
  endfacet
  facet normal 0.195087 -0.980786 0
    outer loop
      vertex -6.36396 8.96396 3.2
      vertex -6.97625 8.84217 1.6
      vertex -6.36396 8.96396 1.6
    endloop
  endfacet
  facet normal -0.980786 0.195087 0
    outer loop
      vertex -4.88575 6.75167 1.6
      vertex -4.76396 7.36396 3.2
      vertex -4.76396 7.36396 1.6
    endloop
  endfacet
  facet normal -0.980786 0.195087 0
    outer loop
      vertex -4.76396 7.36396 3.2
      vertex -4.88575 6.75167 1.6
      vertex -4.88575 6.75167 3.2
    endloop
  endfacet
  facet normal 0.831468 -0.555572 0
    outer loop
      vertex -7.84217 7.97625 3.2
      vertex -7.49533 8.49533 1.6
      vertex -7.49533 8.49533 3.2
    endloop
  endfacet
  facet normal 0.831468 -0.555572 0
    outer loop
      vertex -7.49533 8.49533 1.6
      vertex -7.84217 7.97625 3.2
      vertex -7.84217 7.97625 1.6
    endloop
  endfacet
  facet normal -0.195087 -0.980786 0
    outer loop
      vertex -6.36396 8.96396 1.6
      vertex -5.75167 8.84217 3.2
      vertex -6.36396 8.96396 3.2
    endloop
  endfacet
  facet normal -0.195087 -0.980786 -0
    outer loop
      vertex -5.75167 8.84217 3.2
      vertex -6.36396 8.96396 1.6
      vertex -5.75167 8.84217 1.6
    endloop
  endfacet
  facet normal -0.195087 0.980786 0
    outer loop
      vertex -5.75167 5.88575 1.6
      vertex -6.36396 5.76396 3.2
      vertex -5.75167 5.88575 3.2
    endloop
  endfacet
  facet normal -0.195087 0.980786 0
    outer loop
      vertex -6.36396 5.76396 3.2
      vertex -5.75167 5.88575 1.6
      vertex -6.36396 5.76396 1.6
    endloop
  endfacet
  facet normal 0.831468 0.555572 0
    outer loop
      vertex -7.49533 6.23259 3.2
      vertex -7.84217 6.75167 1.6
      vertex -7.84217 6.75167 3.2
    endloop
  endfacet
  facet normal 0.831468 0.555572 0
    outer loop
      vertex -7.84217 6.75167 1.6
      vertex -7.49533 6.23259 3.2
      vertex -7.49533 6.23259 1.6
    endloop
  endfacet
  facet normal 0.980786 0.195087 0
    outer loop
      vertex -7.84217 6.75167 3.2
      vertex -7.96396 7.36396 1.6
      vertex -7.96396 7.36396 3.2
    endloop
  endfacet
  facet normal 0.980786 0.195087 0
    outer loop
      vertex -7.96396 7.36396 1.6
      vertex -7.84217 6.75167 3.2
      vertex -7.84217 6.75167 1.6
    endloop
  endfacet
  facet normal 0 0 1
    outer loop
      vertex -4.88575 7.97625 1.6
      vertex -4.88575 6.75167 1.6
      vertex -4.76396 7.36396 1.6
    endloop
  endfacet
  facet normal 0 0 1
    outer loop
      vertex -5.23259 8.49533 1.6
      vertex -4.88575 6.75167 1.6
      vertex -4.88575 7.97625 1.6
    endloop
  endfacet
  facet normal 0 0 1
    outer loop
      vertex -5.23259 8.49533 1.6
      vertex -5.23259 6.23259 1.6
      vertex -4.88575 6.75167 1.6
    endloop
  endfacet
  facet normal 0 0 1
    outer loop
      vertex -5.75167 8.84217 1.6
      vertex -5.23259 6.23259 1.6
      vertex -5.23259 8.49533 1.6
    endloop
  endfacet
  facet normal 0 0 1
    outer loop
      vertex -5.75167 8.84217 1.6
      vertex -5.75167 5.88575 1.6
      vertex -5.23259 6.23259 1.6
    endloop
  endfacet
  facet normal 0 0 1
    outer loop
      vertex -6.36396 8.96396 1.6
      vertex -5.75167 5.88575 1.6
      vertex -5.75167 8.84217 1.6
    endloop
  endfacet
  facet normal 0 0 1
    outer loop
      vertex -6.36396 8.96396 1.6
      vertex -6.36396 5.76396 1.6
      vertex -5.75167 5.88575 1.6
    endloop
  endfacet
  facet normal -0 0 1
    outer loop
      vertex -6.97625 8.84217 1.6
      vertex -6.36396 5.76396 1.6
      vertex -6.36396 8.96396 1.6
    endloop
  endfacet
  facet normal 0 0 1
    outer loop
      vertex -6.97625 8.84217 1.6
      vertex -6.97625 5.88575 1.6
      vertex -6.36396 5.76396 1.6
    endloop
  endfacet
  facet normal -0 0 1
    outer loop
      vertex -7.49533 8.49533 1.6
      vertex -6.97625 5.88575 1.6
      vertex -6.97625 8.84217 1.6
    endloop
  endfacet
  facet normal 0 0 1
    outer loop
      vertex -7.49533 8.49533 1.6
      vertex -7.49533 6.23259 1.6
      vertex -6.97625 5.88575 1.6
    endloop
  endfacet
  facet normal -0 0 1
    outer loop
      vertex -7.84217 7.97625 1.6
      vertex -7.49533 6.23259 1.6
      vertex -7.49533 8.49533 1.6
    endloop
  endfacet
  facet normal 0 0 1
    outer loop
      vertex -7.84217 7.97625 1.6
      vertex -7.84217 6.75167 1.6
      vertex -7.49533 6.23259 1.6
    endloop
  endfacet
  facet normal 0 -0 1
    outer loop
      vertex -7.84217 6.75167 1.6
      vertex -7.84217 7.97625 1.6
      vertex -7.96396 7.36396 1.6
    endloop
  endfacet
  facet normal 0.555572 0.831468 -0
    outer loop
      vertex -6.97625 5.88575 1.6
      vertex -7.49533 6.23259 3.2
      vertex -6.97625 5.88575 3.2
    endloop
  endfacet
  facet normal 0.555572 0.831468 0
    outer loop
      vertex -7.49533 6.23259 3.2
      vertex -6.97625 5.88575 1.6
      vertex -7.49533 6.23259 1.6
    endloop
  endfacet
  facet normal -0.831468 -0.555572 0
    outer loop
      vertex -4.88575 -4.75167 1.6
      vertex -5.23259 -4.23259 3.2
      vertex -5.23259 -4.23259 1.6
    endloop
  endfacet
  facet normal -0.831468 -0.555572 0
    outer loop
      vertex -5.23259 -4.23259 3.2
      vertex -4.88575 -4.75167 1.6
      vertex -4.88575 -4.75167 3.2
    endloop
  endfacet
  facet normal -0.980786 -0.195087 0
    outer loop
      vertex -4.76396 -5.36396 1.6
      vertex -4.88575 -4.75167 3.2
      vertex -4.88575 -4.75167 1.6
    endloop
  endfacet
  facet normal -0.980786 -0.195087 0
    outer loop
      vertex -4.88575 -4.75167 3.2
      vertex -4.76396 -5.36396 1.6
      vertex -4.76396 -5.36396 3.2
    endloop
  endfacet
  facet normal -0.555572 -0.831468 0
    outer loop
      vertex -5.75167 -3.88575 1.6
      vertex -5.23259 -4.23259 3.2
      vertex -5.75167 -3.88575 3.2
    endloop
  endfacet
  facet normal -0.555572 -0.831468 -0
    outer loop
      vertex -5.23259 -4.23259 3.2
      vertex -5.75167 -3.88575 1.6
      vertex -5.23259 -4.23259 1.6
    endloop
  endfacet
  facet normal -0.831468 0.555572 0
    outer loop
      vertex -5.23259 -6.49533 1.6
      vertex -4.88575 -5.97625 3.2
      vertex -4.88575 -5.97625 1.6
    endloop
  endfacet
  facet normal -0.831468 0.555572 0
    outer loop
      vertex -4.88575 -5.97625 3.2
      vertex -5.23259 -6.49533 1.6
      vertex -5.23259 -6.49533 3.2
    endloop
  endfacet
  facet normal 0.195087 -0.980786 0
    outer loop
      vertex -6.97625 -3.88575 1.6
      vertex -6.36396 -3.76396 3.2
      vertex -6.97625 -3.88575 3.2
    endloop
  endfacet
  facet normal 0.195087 -0.980786 0
    outer loop
      vertex -6.36396 -3.76396 3.2
      vertex -6.97625 -3.88575 1.6
      vertex -6.36396 -3.76396 1.6
    endloop
  endfacet
  facet normal 0.831468 -0.555572 0
    outer loop
      vertex -7.84217 -4.75167 3.2
      vertex -7.49533 -4.23259 1.6
      vertex -7.49533 -4.23259 3.2
    endloop
  endfacet
  facet normal 0.831468 -0.555572 0
    outer loop
      vertex -7.49533 -4.23259 1.6
      vertex -7.84217 -4.75167 3.2
      vertex -7.84217 -4.75167 1.6
    endloop
  endfacet
  facet normal 0.980786 -0.195087 0
    outer loop
      vertex -7.96396 -5.36396 3.2
      vertex -7.84217 -4.75167 1.6
      vertex -7.84217 -4.75167 3.2
    endloop
  endfacet
  facet normal 0.980786 -0.195087 0
    outer loop
      vertex -7.84217 -4.75167 1.6
      vertex -7.96396 -5.36396 3.2
      vertex -7.96396 -5.36396 1.6
    endloop
  endfacet
  facet normal -0.195087 0.980786 0
    outer loop
      vertex -5.75167 -6.84217 1.6
      vertex -6.36396 -6.96396 3.2
      vertex -5.75167 -6.84217 3.2
    endloop
  endfacet
  facet normal -0.195087 0.980786 0
    outer loop
      vertex -6.36396 -6.96396 3.2
      vertex -5.75167 -6.84217 1.6
      vertex -6.36396 -6.96396 1.6
    endloop
  endfacet
  facet normal 0.195087 0.980786 -0
    outer loop
      vertex -6.36396 -6.96396 1.6
      vertex -6.97625 -6.84217 3.2
      vertex -6.36396 -6.96396 3.2
    endloop
  endfacet
  facet normal 0.195087 0.980786 0
    outer loop
      vertex -6.97625 -6.84217 3.2
      vertex -6.36396 -6.96396 1.6
      vertex -6.97625 -6.84217 1.6
    endloop
  endfacet
  facet normal 0.980786 0.195087 0
    outer loop
      vertex -7.84217 -5.97625 3.2
      vertex -7.96396 -5.36396 1.6
      vertex -7.96396 -5.36396 3.2
    endloop
  endfacet
  facet normal 0.980786 0.195087 0
    outer loop
      vertex -7.96396 -5.36396 1.6
      vertex -7.84217 -5.97625 3.2
      vertex -7.84217 -5.97625 1.6
    endloop
  endfacet
  facet normal -0.195087 -0.980786 0
    outer loop
      vertex -6.36396 -3.76396 1.6
      vertex -5.75167 -3.88575 3.2
      vertex -6.36396 -3.76396 3.2
    endloop
  endfacet
  facet normal -0.195087 -0.980786 -0
    outer loop
      vertex -5.75167 -3.88575 3.2
      vertex -6.36396 -3.76396 1.6
      vertex -5.75167 -3.88575 1.6
    endloop
  endfacet
  facet normal -0.980786 0.195087 0
    outer loop
      vertex -4.88575 -5.97625 1.6
      vertex -4.76396 -5.36396 3.2
      vertex -4.76396 -5.36396 1.6
    endloop
  endfacet
  facet normal -0.980786 0.195087 0
    outer loop
      vertex -4.76396 -5.36396 3.2
      vertex -4.88575 -5.97625 1.6
      vertex -4.88575 -5.97625 3.2
    endloop
  endfacet
  facet normal -0.555572 0.831468 0
    outer loop
      vertex -5.23259 -6.49533 1.6
      vertex -5.75167 -6.84217 3.2
      vertex -5.23259 -6.49533 3.2
    endloop
  endfacet
  facet normal -0.555572 0.831468 0
    outer loop
      vertex -5.75167 -6.84217 3.2
      vertex -5.23259 -6.49533 1.6
      vertex -5.75167 -6.84217 1.6
    endloop
  endfacet
  facet normal 0.831468 0.555572 0
    outer loop
      vertex -7.49533 -6.49533 3.2
      vertex -7.84217 -5.97625 1.6
      vertex -7.84217 -5.97625 3.2
    endloop
  endfacet
  facet normal 0.831468 0.555572 0
    outer loop
      vertex -7.84217 -5.97625 1.6
      vertex -7.49533 -6.49533 3.2
      vertex -7.49533 -6.49533 1.6
    endloop
  endfacet
  facet normal 0.555572 -0.831468 0
    outer loop
      vertex -7.49533 -4.23259 1.6
      vertex -6.97625 -3.88575 3.2
      vertex -7.49533 -4.23259 3.2
    endloop
  endfacet
  facet normal 0.555572 -0.831468 0
    outer loop
      vertex -6.97625 -3.88575 3.2
      vertex -7.49533 -4.23259 1.6
      vertex -6.97625 -3.88575 1.6
    endloop
  endfacet
  facet normal 0.555572 0.831468 -0
    outer loop
      vertex -6.97625 -6.84217 1.6
      vertex -7.49533 -6.49533 3.2
      vertex -6.97625 -6.84217 3.2
    endloop
  endfacet
  facet normal 0.555572 0.831468 0
    outer loop
      vertex -7.49533 -6.49533 3.2
      vertex -6.97625 -6.84217 1.6
      vertex -7.49533 -6.49533 1.6
    endloop
  endfacet
  facet normal 0 0 1
    outer loop
      vertex -4.88575 -4.75167 1.6
      vertex -4.88575 -5.97625 1.6
      vertex -4.76396 -5.36396 1.6
    endloop
  endfacet
  facet normal 0 0 1
    outer loop
      vertex -5.23259 -4.23259 1.6
      vertex -4.88575 -5.97625 1.6
      vertex -4.88575 -4.75167 1.6
    endloop
  endfacet
  facet normal 0 0 1
    outer loop
      vertex -5.23259 -4.23259 1.6
      vertex -5.23259 -6.49533 1.6
      vertex -4.88575 -5.97625 1.6
    endloop
  endfacet
  facet normal 0 0 1
    outer loop
      vertex -5.75167 -3.88575 1.6
      vertex -5.23259 -6.49533 1.6
      vertex -5.23259 -4.23259 1.6
    endloop
  endfacet
  facet normal 0 0 1
    outer loop
      vertex -5.75167 -3.88575 1.6
      vertex -5.75167 -6.84217 1.6
      vertex -5.23259 -6.49533 1.6
    endloop
  endfacet
  facet normal 0 0 1
    outer loop
      vertex -6.36396 -3.76396 1.6
      vertex -5.75167 -6.84217 1.6
      vertex -5.75167 -3.88575 1.6
    endloop
  endfacet
  facet normal 0 0 1
    outer loop
      vertex -6.36396 -3.76396 1.6
      vertex -6.36396 -6.96396 1.6
      vertex -5.75167 -6.84217 1.6
    endloop
  endfacet
  facet normal -0 0 1
    outer loop
      vertex -6.97625 -3.88575 1.6
      vertex -6.36396 -6.96396 1.6
      vertex -6.36396 -3.76396 1.6
    endloop
  endfacet
  facet normal 0 0 1
    outer loop
      vertex -6.97625 -3.88575 1.6
      vertex -6.97625 -6.84217 1.6
      vertex -6.36396 -6.96396 1.6
    endloop
  endfacet
  facet normal -0 0 1
    outer loop
      vertex -7.49533 -4.23259 1.6
      vertex -6.97625 -6.84217 1.6
      vertex -6.97625 -3.88575 1.6
    endloop
  endfacet
  facet normal 0 0 1
    outer loop
      vertex -7.49533 -4.23259 1.6
      vertex -7.49533 -6.49533 1.6
      vertex -6.97625 -6.84217 1.6
    endloop
  endfacet
  facet normal -0 0 1
    outer loop
      vertex -7.84217 -4.75167 1.6
      vertex -7.49533 -6.49533 1.6
      vertex -7.49533 -4.23259 1.6
    endloop
  endfacet
  facet normal 0 0 1
    outer loop
      vertex -7.84217 -4.75167 1.6
      vertex -7.84217 -5.97625 1.6
      vertex -7.49533 -6.49533 1.6
    endloop
  endfacet
  facet normal 0 -0 1
    outer loop
      vertex -7.84217 -5.97625 1.6
      vertex -7.84217 -4.75167 1.6
      vertex -7.96396 -5.36396 1.6
    endloop
  endfacet
  facet normal -0.831468 -0.555572 0
    outer loop
      vertex 7.84217 -4.75167 1.6
      vertex 7.49533 -4.23259 3.2
      vertex 7.49533 -4.23259 1.6
    endloop
  endfacet
  facet normal -0.831468 -0.555572 0
    outer loop
      vertex 7.49533 -4.23259 3.2
      vertex 7.84217 -4.75167 1.6
      vertex 7.84217 -4.75167 3.2
    endloop
  endfacet
  facet normal -0.980786 -0.195087 0
    outer loop
      vertex 7.96396 -5.36396 1.6
      vertex 7.84217 -4.75167 3.2
      vertex 7.84217 -4.75167 1.6
    endloop
  endfacet
  facet normal -0.980786 -0.195087 0
    outer loop
      vertex 7.84217 -4.75167 3.2
      vertex 7.96396 -5.36396 1.6
      vertex 7.96396 -5.36396 3.2
    endloop
  endfacet
  facet normal -0.555572 -0.831468 0
    outer loop
      vertex 6.97625 -3.88575 1.6
      vertex 7.49533 -4.23259 3.2
      vertex 6.97625 -3.88575 3.2
    endloop
  endfacet
  facet normal -0.555572 -0.831468 -0
    outer loop
      vertex 7.49533 -4.23259 3.2
      vertex 6.97625 -3.88575 1.6
      vertex 7.49533 -4.23259 1.6
    endloop
  endfacet
  facet normal -0.831468 0.555572 0
    outer loop
      vertex 7.49533 -6.49533 1.6
      vertex 7.84217 -5.97625 3.2
      vertex 7.84217 -5.97625 1.6
    endloop
  endfacet
  facet normal -0.831468 0.555572 0
    outer loop
      vertex 7.84217 -5.97625 3.2
      vertex 7.49533 -6.49533 1.6
      vertex 7.49533 -6.49533 3.2
    endloop
  endfacet
  facet normal 0.195087 -0.980786 0
    outer loop
      vertex 5.75167 -3.88575 1.6
      vertex 6.36396 -3.76396 3.2
      vertex 5.75167 -3.88575 3.2
    endloop
  endfacet
  facet normal 0.195087 -0.980786 0
    outer loop
      vertex 6.36396 -3.76396 3.2
      vertex 5.75167 -3.88575 1.6
      vertex 6.36396 -3.76396 1.6
    endloop
  endfacet
  facet normal 0.831468 -0.555572 0
    outer loop
      vertex 4.88575 -4.75167 3.2
      vertex 5.23259 -4.23259 1.6
      vertex 5.23259 -4.23259 3.2
    endloop
  endfacet
  facet normal 0.831468 -0.555572 0
    outer loop
      vertex 5.23259 -4.23259 1.6
      vertex 4.88575 -4.75167 3.2
      vertex 4.88575 -4.75167 1.6
    endloop
  endfacet
  facet normal 0.980786 -0.195087 0
    outer loop
      vertex 4.76396 -5.36396 3.2
      vertex 4.88575 -4.75167 1.6
      vertex 4.88575 -4.75167 3.2
    endloop
  endfacet
  facet normal 0.980786 -0.195087 0
    outer loop
      vertex 4.88575 -4.75167 1.6
      vertex 4.76396 -5.36396 3.2
      vertex 4.76396 -5.36396 1.6
    endloop
  endfacet
  facet normal -0.195087 0.980786 0
    outer loop
      vertex 6.97625 -6.84217 1.6
      vertex 6.36396 -6.96396 3.2
      vertex 6.97625 -6.84217 3.2
    endloop
  endfacet
  facet normal -0.195087 0.980786 0
    outer loop
      vertex 6.36396 -6.96396 3.2
      vertex 6.97625 -6.84217 1.6
      vertex 6.36396 -6.96396 1.6
    endloop
  endfacet
  facet normal 0.195087 0.980786 -0
    outer loop
      vertex 6.36396 -6.96396 1.6
      vertex 5.75167 -6.84217 3.2
      vertex 6.36396 -6.96396 3.2
    endloop
  endfacet
  facet normal 0.195087 0.980786 0
    outer loop
      vertex 5.75167 -6.84217 3.2
      vertex 6.36396 -6.96396 1.6
      vertex 5.75167 -6.84217 1.6
    endloop
  endfacet
  facet normal 0.980786 0.195087 0
    outer loop
      vertex 4.88575 -5.97625 3.2
      vertex 4.76396 -5.36396 1.6
      vertex 4.76396 -5.36396 3.2
    endloop
  endfacet
  facet normal 0.980786 0.195087 0
    outer loop
      vertex 4.76396 -5.36396 1.6
      vertex 4.88575 -5.97625 3.2
      vertex 4.88575 -5.97625 1.6
    endloop
  endfacet
  facet normal -0.195087 -0.980786 0
    outer loop
      vertex 6.36396 -3.76396 1.6
      vertex 6.97625 -3.88575 3.2
      vertex 6.36396 -3.76396 3.2
    endloop
  endfacet
  facet normal -0.195087 -0.980786 -0
    outer loop
      vertex 6.97625 -3.88575 3.2
      vertex 6.36396 -3.76396 1.6
      vertex 6.97625 -3.88575 1.6
    endloop
  endfacet
  facet normal -0.980786 0.195087 0
    outer loop
      vertex 7.84217 -5.97625 1.6
      vertex 7.96396 -5.36396 3.2
      vertex 7.96396 -5.36396 1.6
    endloop
  endfacet
  facet normal -0.980786 0.195087 0
    outer loop
      vertex 7.96396 -5.36396 3.2
      vertex 7.84217 -5.97625 1.6
      vertex 7.84217 -5.97625 3.2
    endloop
  endfacet
  facet normal -0.555572 0.831468 0
    outer loop
      vertex 7.49533 -6.49533 1.6
      vertex 6.97625 -6.84217 3.2
      vertex 7.49533 -6.49533 3.2
    endloop
  endfacet
  facet normal -0.555572 0.831468 0
    outer loop
      vertex 6.97625 -6.84217 3.2
      vertex 7.49533 -6.49533 1.6
      vertex 6.97625 -6.84217 1.6
    endloop
  endfacet
  facet normal 0.831468 0.555572 0
    outer loop
      vertex 5.23259 -6.49533 3.2
      vertex 4.88575 -5.97625 1.6
      vertex 4.88575 -5.97625 3.2
    endloop
  endfacet
  facet normal 0.831468 0.555572 0
    outer loop
      vertex 4.88575 -5.97625 1.6
      vertex 5.23259 -6.49533 3.2
      vertex 5.23259 -6.49533 1.6
    endloop
  endfacet
  facet normal 0.555572 -0.831468 0
    outer loop
      vertex 5.23259 -4.23259 1.6
      vertex 5.75167 -3.88575 3.2
      vertex 5.23259 -4.23259 3.2
    endloop
  endfacet
  facet normal 0.555572 -0.831468 0
    outer loop
      vertex 5.75167 -3.88575 3.2
      vertex 5.23259 -4.23259 1.6
      vertex 5.75167 -3.88575 1.6
    endloop
  endfacet
  facet normal 0.555572 0.831468 -0
    outer loop
      vertex 5.75167 -6.84217 1.6
      vertex 5.23259 -6.49533 3.2
      vertex 5.75167 -6.84217 3.2
    endloop
  endfacet
  facet normal 0.555572 0.831468 0
    outer loop
      vertex 5.23259 -6.49533 3.2
      vertex 5.75167 -6.84217 1.6
      vertex 5.23259 -6.49533 1.6
    endloop
  endfacet
  facet normal 0 0 1
    outer loop
      vertex 7.84217 -4.75167 1.6
      vertex 7.84217 -5.97625 1.6
      vertex 7.96396 -5.36396 1.6
    endloop
  endfacet
  facet normal 0 0 1
    outer loop
      vertex 7.49533 -4.23259 1.6
      vertex 7.84217 -5.97625 1.6
      vertex 7.84217 -4.75167 1.6
    endloop
  endfacet
  facet normal 0 0 1
    outer loop
      vertex 7.49533 -4.23259 1.6
      vertex 7.49533 -6.49533 1.6
      vertex 7.84217 -5.97625 1.6
    endloop
  endfacet
  facet normal 0 0 1
    outer loop
      vertex 6.97625 -3.88575 1.6
      vertex 7.49533 -6.49533 1.6
      vertex 7.49533 -4.23259 1.6
    endloop
  endfacet
  facet normal 0 0 1
    outer loop
      vertex 6.97625 -3.88575 1.6
      vertex 6.97625 -6.84217 1.6
      vertex 7.49533 -6.49533 1.6
    endloop
  endfacet
  facet normal 0 0 1
    outer loop
      vertex 6.36396 -3.76396 1.6
      vertex 6.97625 -6.84217 1.6
      vertex 6.97625 -3.88575 1.6
    endloop
  endfacet
  facet normal 0 0 1
    outer loop
      vertex 6.36396 -3.76396 1.6
      vertex 6.36396 -6.96396 1.6
      vertex 6.97625 -6.84217 1.6
    endloop
  endfacet
  facet normal -0 0 1
    outer loop
      vertex 5.75167 -3.88575 1.6
      vertex 6.36396 -6.96396 1.6
      vertex 6.36396 -3.76396 1.6
    endloop
  endfacet
  facet normal 0 0 1
    outer loop
      vertex 5.75167 -3.88575 1.6
      vertex 5.75167 -6.84217 1.6
      vertex 6.36396 -6.96396 1.6
    endloop
  endfacet
  facet normal -0 0 1
    outer loop
      vertex 5.23259 -4.23259 1.6
      vertex 5.75167 -6.84217 1.6
      vertex 5.75167 -3.88575 1.6
    endloop
  endfacet
  facet normal 0 0 1
    outer loop
      vertex 5.23259 -4.23259 1.6
      vertex 5.23259 -6.49533 1.6
      vertex 5.75167 -6.84217 1.6
    endloop
  endfacet
  facet normal -0 0 1
    outer loop
      vertex 4.88575 -4.75167 1.6
      vertex 5.23259 -6.49533 1.6
      vertex 5.23259 -4.23259 1.6
    endloop
  endfacet
  facet normal 0 0 1
    outer loop
      vertex 4.88575 -4.75167 1.6
      vertex 4.88575 -5.97625 1.6
      vertex 5.23259 -6.49533 1.6
    endloop
  endfacet
  facet normal 0 -0 1
    outer loop
      vertex 4.88575 -5.97625 1.6
      vertex 4.88575 -4.75167 1.6
      vertex 4.76396 -5.36396 1.6
    endloop
  endfacet
endsolid OpenSCAD_Model
