solid OpenSCAD_Model
  facet normal 0.808736 0.588172 0
    outer loop
      vertex 14 11 2.4
      vertex 16 8.25 2
      vertex 14 11 2
    endloop
  endfacet
  facet normal 0.808736 0.588172 0
    outer loop
      vertex 22 0 2.4
      vertex 16 8.25 2
      vertex 14 11 2.4
    endloop
  endfacet
  facet normal 0.808736 0.588172 -0
    outer loop
      vertex 22 0 0
      vertex 16 8.25 2
      vertex 22 0 2.4
    endloop
  endfacet
  facet normal 0.808736 0.588172 0
    outer loop
      vertex 16 8.25 2
      vertex 22 0 0
      vertex 16 8.25 0
    endloop
  endfacet
  facet normal -0.986394 -0.164399 0
    outer loop
      vertex -16 -12 0
      vertex -18 0 2.4
      vertex -18 0 0
    endloop
  endfacet
  facet normal -0.986394 -0.164399 0
    outer loop
      vertex -18 0 2.4
      vertex -16 -12 0
      vertex -16 -12 2.4
    endloop
  endfacet
  facet normal 0.808736 -0.588172 0
    outer loop
      vertex 22 0 2.4
      vertex 16 -8.25 2
      vertex 22 0 0
    endloop
  endfacet
  facet normal 0.808736 -0.588172 0
    outer loop
      vertex 14 -11 2.4
      vertex 16 -8.25 2
      vertex 22 0 2.4
    endloop
  endfacet
  facet normal 0.808736 -0.588172 0
    outer loop
      vertex 16 -8.25 2
      vertex 14 -11 2.4
      vertex 14 -11 2
    endloop
  endfacet
  facet normal 0.808736 -0.588172 0
    outer loop
      vertex 22 0 0
      vertex 16 -8.25 2
      vertex 16 -8.25 0
    endloop
  endfacet
  facet normal -0.371391 -0.928477 -4.12326e-15
    outer loop
      vertex -11 -14 2
      vertex -16 -12 2.4
      vertex -12 -13.6 2
    endloop
  endfacet
  facet normal -0.371391 -0.928477 0
    outer loop
      vertex -16 -12 0
      vertex -12 -13.6 2
      vertex -16 -12 2.4
    endloop
  endfacet
  facet normal -0.371391 -0.928477 -0
    outer loop
      vertex -12 -13.6 2
      vertex -16 -12 0
      vertex -12 -13.6 0
    endloop
  endfacet
  facet normal -0.371391 -0.928477 0
    outer loop
      vertex -16 -12 2.4
      vertex -11 -14 2
      vertex -6 -16 2.4
    endloop
  endfacet
  facet normal -0.371391 -0.928477 0
    outer loop
      vertex -6 -16 0
      vertex -11 -14 2
      vertex -11 -14 0
    endloop
  endfacet
  facet normal -0.371391 -0.928477 0
    outer loop
      vertex -11 -14 2
      vertex -6 -16 0
      vertex -6 -16 2.4
    endloop
  endfacet
  facet normal -0.371391 0.928477 0
    outer loop
      vertex -6 16 2.4
      vertex -11 14 2
      vertex -16 12 2.4
    endloop
  endfacet
  facet normal -0.371391 0.928477 0
    outer loop
      vertex -6 16 0
      vertex -11 14 2
      vertex -6 16 2.4
    endloop
  endfacet
  facet normal -0.371391 0.928477 0
    outer loop
      vertex -11 14 2
      vertex -6 16 0
      vertex -11 14 0
    endloop
  endfacet
  facet normal -0.371391 0.928477 -4.12326e-15
    outer loop
      vertex -12 13.6 2
      vertex -16 12 2.4
      vertex -11 14 2
    endloop
  endfacet
  facet normal -0.371391 0.928477 0
    outer loop
      vertex -16 12 0
      vertex -12 13.6 2
      vertex -12 13.6 0
    endloop
  endfacet
  facet normal -0.371391 0.928477 0
    outer loop
      vertex -12 13.6 2
      vertex -16 12 0
      vertex -16 12 2.4
    endloop
  endfacet
  facet normal 0.529999 -0.847998 -9.41467e-16
    outer loop
      vertex 6 -16 2.4
      vertex 9.2 -14 2
      vertex 14 -11 2.4
    endloop
  endfacet
  facet normal 0.529999 -0.847998 0
    outer loop
      vertex 6 -16 0
      vertex 9.2 -14 2
      vertex 6 -16 2.4
    endloop
  endfacet
  facet normal 0.529999 -0.847998 0
    outer loop
      vertex 9.2 -14 2
      vertex 6 -16 0
      vertex 9.2 -14 0
    endloop
  endfacet
  facet normal 0.529999 -0.847998 0
    outer loop
      vertex 14 -11 2.4
      vertex 9.2 -14 2
      vertex 14 -11 2
    endloop
  endfacet
  facet normal -0.986394 0.164399 0
    outer loop
      vertex -18 0 0
      vertex -16 12 2.4
      vertex -16 12 0
    endloop
  endfacet
  facet normal -0.986394 0.164399 0
    outer loop
      vertex -16 12 2.4
      vertex -18 0 0
      vertex -18 0 2.4
    endloop
  endfacet
  facet normal 0.529999 0.847998 0
    outer loop
      vertex 9.2 14 2
      vertex 14 11 2.4
      vertex 14 11 2
    endloop
  endfacet
  facet normal 0.529999 0.847998 -9.41467e-16
    outer loop
      vertex 14 11 2.4
      vertex 9.2 14 2
      vertex 6 16 2.4
    endloop
  endfacet
  facet normal 0.529999 0.847998 0
    outer loop
      vertex 6 16 0
      vertex 9.2 14 2
      vertex 9.2 14 0
    endloop
  endfacet
  facet normal 0.529999 0.847998 0
    outer loop
      vertex 9.2 14 2
      vertex 6 16 0
      vertex 6 16 2.4
    endloop
  endfacet
  facet normal 0 0 -1
    outer loop
      vertex -18 0 0
      vertex -12 -13.6 0
      vertex -16 -12 0
    endloop
  endfacet
  facet normal 0 0 -1
    outer loop
      vertex -12 -13.6 0
      vertex -18 0 0
      vertex -12 13.6 0
    endloop
  endfacet
  facet normal 0 0 -1
    outer loop
      vertex -12 13.6 0
      vertex -18 0 0
      vertex -16 12 0
    endloop
  endfacet
  facet normal -0 0 -1
    outer loop
      vertex 22 0 0
      vertex 16 -8.25 0
      vertex 16 8.25 0
    endloop
  endfacet
  facet normal 0 0 -1
    outer loop
      vertex -6 -16 0
      vertex 9.2 -14 0
      vertex 6 -16 0
    endloop
  endfacet
  facet normal -0 0 -1
    outer loop
      vertex 9.2 -14 0
      vertex -6 -16 0
      vertex -11 -14 0
    endloop
  endfacet
  facet normal 0 0 -1
    outer loop
      vertex 9.2 14 0
      vertex -6 16 0
      vertex 6 16 0
    endloop
  endfacet
  facet normal 0 -0 -1
    outer loop
      vertex -6 16 0
      vertex 9.2 14 0
      vertex -11 14 0
    endloop
  endfacet
  facet normal 0 -1 0
    outer loop
      vertex -6 -16 0
      vertex 6 -16 2.4
      vertex -6 -16 2.4
    endloop
  endfacet
  facet normal 0 -1 -0
    outer loop
      vertex 6 -16 2.4
      vertex -6 -16 0
      vertex 6 -16 0
    endloop
  endfacet
  facet normal 0 1 -0
    outer loop
      vertex 6 16 0
      vertex -6 16 2.4
      vertex 6 16 2.4
    endloop
  endfacet
  facet normal 0 1 0
    outer loop
      vertex -6 16 2.4
      vertex 6 16 0
      vertex -6 16 0
    endloop
  endfacet
  facet normal 0 0 1
    outer loop
      vertex 14 11 2.4
      vertex 14 -11 2.4
      vertex 22 0 2.4
    endloop
  endfacet
  facet normal 0 0 1
    outer loop
      vertex 6 16 2.4
      vertex 14 -11 2.4
      vertex 14 11 2.4
    endloop
  endfacet
  facet normal 0 0 1
    outer loop
      vertex 6 16 2.4
      vertex 6 -16 2.4
      vertex 14 -11 2.4
    endloop
  endfacet
  facet normal -0 0 1
    outer loop
      vertex -6 16 2.4
      vertex 6 -16 2.4
      vertex 6 16 2.4
    endloop
  endfacet
  facet normal 0 0 1
    outer loop
      vertex -6 16 2.4
      vertex -6 -16 2.4
      vertex 6 -16 2.4
    endloop
  endfacet
  facet normal 0 0 1
    outer loop
      vertex -18 0 2.4
      vertex -6 16 2.4
      vertex -16 12 2.4
    endloop
  endfacet
  facet normal 0 0 1
    outer loop
      vertex -6 16 2.4
      vertex -18 0 2.4
      vertex -6 -16 2.4
    endloop
  endfacet
  facet normal 0 0 1
    outer loop
      vertex -6 -16 2.4
      vertex -18 0 2.4
      vertex -16 -12 2.4
    endloop
  endfacet
  facet normal -1 0 0
    outer loop
      vertex 16 -8.25 0
      vertex 16 8.25 2
      vertex 16 8.25 0
    endloop
  endfacet
  facet normal -1 -0 0
    outer loop
      vertex 16 8.25 2
      vertex 16 -8.25 0
      vertex 16 -8.25 2
    endloop
  endfacet
  facet normal 0 0 -1
    outer loop
      vertex 9.2 -14 2
      vertex 16 -8.25 2
      vertex 14 -11 2
    endloop
  endfacet
  facet normal -0 0 -1
    outer loop
      vertex 16 -8.25 2
      vertex 9.2 -14 2
      vertex 16 8.25 2
    endloop
  endfacet
  facet normal 0 0 -1
    outer loop
      vertex 9.2 14 2
      vertex 16 8.25 2
      vertex 9.2 -14 2
    endloop
  endfacet
  facet normal 0 0 -1
    outer loop
      vertex 16 8.25 2
      vertex 9.2 14 2
      vertex 14 11 2
    endloop
  endfacet
  facet normal 0 0 -1
    outer loop
      vertex -11 -14 2
      vertex 9.2 14 2
      vertex 9.2 -14 2
    endloop
  endfacet
  facet normal 0 0 -1
    outer loop
      vertex -11 -14 2
      vertex -11 14 2
      vertex 9.2 14 2
    endloop
  endfacet
  facet normal 0 0 -1
    outer loop
      vertex -12 -13.6 2
      vertex -11 14 2
      vertex -11 -14 2
    endloop
  endfacet
  facet normal 0 0 -1
    outer loop
      vertex -11 14 2
      vertex -12 -13.6 2
      vertex -12 13.6 2
    endloop
  endfacet
  facet normal 1 -0 0
    outer loop
      vertex -12 -13.6 2
      vertex -12 13.6 0
      vertex -12 13.6 2
    endloop
  endfacet
  facet normal 1 0 0
    outer loop
      vertex -12 13.6 0
      vertex -12 -13.6 2
      vertex -12 -13.6 0
    endloop
  endfacet
  facet normal 0 -1 0
    outer loop
      vertex -11 14 0
      vertex 9.2 14 2
      vertex -11 14 2
    endloop
  endfacet
  facet normal 0 -1 -0
    outer loop
      vertex 9.2 14 2
      vertex -11 14 0
      vertex 9.2 14 0
    endloop
  endfacet
  facet normal 0 1 -0
    outer loop
      vertex 9.2 -14 0
      vertex -11 -14 2
      vertex 9.2 -14 2
    endloop
  endfacet
  facet normal 0 1 0
    outer loop
      vertex -11 -14 2
      vertex 9.2 -14 0
      vertex -11 -14 0
    endloop
  endfacet
endsolid OpenSCAD_Model
