solid OpenSCAD_Model
  facet normal 1 -0 0
    outer loop
      vertex 26.01 33.5 2
      vertex 26.01 36.01 0
      vertex 26.01 36.01 2
    endloop
  endfacet
  facet normal 1 0 0
    outer loop
      vertex 26.01 36.01 0
      vertex 26.01 33.5 2
      vertex 26.01 33.5 0
    endloop
  endfacet
  facet normal 1 -0 0
    outer loop
      vertex 26.01 0 2
      vertex 26.01 5.5 0
      vertex 26.01 5.5 2
    endloop
  endfacet
  facet normal 1 0 0
    outer loop
      vertex 26.01 5.5 0
      vertex 26.01 0 2
      vertex 26.01 0 0
    endloop
  endfacet
  facet normal 0 -1 0
    outer loop
      vertex 0 0 0
      vertex 26.01 0 2
      vertex 0 0 2
    endloop
  endfacet
  facet normal 0 -1 -0
    outer loop
      vertex 26.01 0 2
      vertex 0 0 0
      vertex 26.01 0 0
    endloop
  endfacet
  facet normal 0 0 -1
    outer loop
      vertex 26.01 0 0
      vertex 0.5 5.5 0
      vertex 26.01 5.5 0
    endloop
  endfacet
  facet normal 0 0 -1
    outer loop
      vertex 0 36.01 0
      vertex 0.5 5.5 0
      vertex 0 0 0
    endloop
  endfacet
  facet normal 0 0 -1
    outer loop
      vertex 0 0 0
      vertex 0.5 5.5 0
      vertex 26.01 0 0
    endloop
  endfacet
  facet normal 0 0 -1
    outer loop
      vertex 0.5 33.5 0
      vertex 26.01 36.01 0
      vertex 26.01 33.5 0
    endloop
  endfacet
  facet normal 0 0 -1
    outer loop
      vertex 0.5 33.5 0
      vertex 0 36.01 0
      vertex 26.01 36.01 0
    endloop
  endfacet
  facet normal 0 0 -1
    outer loop
      vertex 0.5 5.5 0
      vertex 0 36.01 0
      vertex 0.5 33.5 0
    endloop
  endfacet
  facet normal 0 1 -0
    outer loop
      vertex 26.01 36.01 0
      vertex 0 36.01 2
      vertex 26.01 36.01 2
    endloop
  endfacet
  facet normal 0 1 0
    outer loop
      vertex 0 36.01 2
      vertex 26.01 36.01 0
      vertex 0 36.01 0
    endloop
  endfacet
  facet normal 0 0 1
    outer loop
      vertex 26.01 36.01 2
      vertex 0.5 33.5 2
      vertex 26.01 33.5 2
    endloop
  endfacet
  facet normal 0 0 1
    outer loop
      vertex 0.5 33.5 2
      vertex 0 36.01 2
      vertex 0.5 5.5 2
    endloop
  endfacet
  facet normal -0 0 1
    outer loop
      vertex 0 36.01 2
      vertex 0.5 33.5 2
      vertex 26.01 36.01 2
    endloop
  endfacet
  facet normal -0 0 1
    outer loop
      vertex 0.5 5.5 2
      vertex 26.01 0 2
      vertex 26.01 5.5 2
    endloop
  endfacet
  facet normal 0 0 1
    outer loop
      vertex 0.5 5.5 2
      vertex 0 0 2
      vertex 26.01 0 2
    endloop
  endfacet
  facet normal 0 0 1
    outer loop
      vertex 0 0 2
      vertex 0.5 5.5 2
      vertex 0 36.01 2
    endloop
  endfacet
  facet normal -1 0 0
    outer loop
      vertex 0 0 0
      vertex 0 36.01 2
      vertex 0 36.01 0
    endloop
  endfacet
  facet normal -1 -0 0
    outer loop
      vertex 0 36.01 2
      vertex 0 0 0
      vertex 0 0 2
    endloop
  endfacet
  facet normal 1 -0 0
    outer loop
      vertex 0.5 5.5 2
      vertex 0.5 33.5 0
      vertex 0.5 33.5 2
    endloop
  endfacet
  facet normal 1 0 0
    outer loop
      vertex 0.5 33.5 0
      vertex 0.5 5.5 2
      vertex 0.5 5.5 0
    endloop
  endfacet
  facet normal 0 -1 0
    outer loop
      vertex 0.5 33.5 0
      vertex 26.01 33.5 2
      vertex 0.5 33.5 2
    endloop
  endfacet
  facet normal 0 -1 -0
    outer loop
      vertex 26.01 33.5 2
      vertex 0.5 33.5 0
      vertex 26.01 33.5 0
    endloop
  endfacet
  facet normal 0 1 -0
    outer loop
      vertex 26.01 5.5 0
      vertex 0.5 5.5 2
      vertex 26.01 5.5 2
    endloop
  endfacet
  facet normal 0 1 0
    outer loop
      vertex 0.5 5.5 2
      vertex 26.01 5.5 0
      vertex 0.5 5.5 0
    endloop
  endfacet
endsolid OpenSCAD_Model
