solid OpenSCAD_Model
  facet normal 1 0 0
    outer loop
      vertex 88 26 20
      vertex 88 20.5 12
      vertex 88 26 0
    endloop
  endfacet
  facet normal 1 0 0
    outer loop
      vertex 88 26 20
      vertex 88 5.5 12
      vertex 88 20.5 12
    endloop
  endfacet
  facet normal 1 0 0
    outer loop
      vertex 88 0 0
      vertex 88 5.5 12
      vertex 88 0 20
    endloop
  endfacet
  facet normal 1 -0 0
    outer loop
      vertex 88 0 20
      vertex 88 5.5 12
      vertex 88 26 20
    endloop
  endfacet
  facet normal 1 -0 0
    outer loop
      vertex 88 20.5 2
      vertex 88 26 0
      vertex 88 20.5 12
    endloop
  endfacet
  facet normal 1 -0 0
    outer loop
      vertex 88 5.5 2
      vertex 88 26 0
      vertex 88 20.5 2
    endloop
  endfacet
  facet normal 1 0 0
    outer loop
      vertex 88 5.5 2
      vertex 88 0 0
      vertex 88 26 0
    endloop
  endfacet
  facet normal 1 0 0
    outer loop
      vertex 88 5.5 12
      vertex 88 0 0
      vertex 88 5.5 2
    endloop
  endfacet
  facet normal 0 0 1
    outer loop
      vertex 88 26 20
      vertex 87.75 25.75 20
      vertex 88 0 20
    endloop
  endfacet
  facet normal 0 0 1
    outer loop
      vertex 88 26 20
      vertex 0.25 25.75 20
      vertex 87.75 25.75 20
    endloop
  endfacet
  facet normal 0 0 1
    outer loop
      vertex 0.25 25.75 20
      vertex 0 26 20
      vertex 0.25 0.25 20
    endloop
  endfacet
  facet normal -0 0 1
    outer loop
      vertex 0 26 20
      vertex 0.25 25.75 20
      vertex 88 26 20
    endloop
  endfacet
  facet normal -0 0 1
    outer loop
      vertex 87.75 0.25 20
      vertex 88 0 20
      vertex 87.75 25.75 20
    endloop
  endfacet
  facet normal -0 0 1
    outer loop
      vertex 0.25 0.25 20
      vertex 88 0 20
      vertex 87.75 0.25 20
    endloop
  endfacet
  facet normal 0 0 1
    outer loop
      vertex 0.25 0.25 20
      vertex 0 0 20
      vertex 88 0 20
    endloop
  endfacet
  facet normal 0 0 1
    outer loop
      vertex 0 0 20
      vertex 0.25 0.25 20
      vertex 0 26 20
    endloop
  endfacet
  facet normal 0 0 -1
    outer loop
      vertex 0 0 0
      vertex 88 26 0
      vertex 88 0 0
    endloop
  endfacet
  facet normal -0 0 -1
    outer loop
      vertex 88 26 0
      vertex 0 0 0
      vertex 0 26 0
    endloop
  endfacet
  facet normal -1 0 0
    outer loop
      vertex 0 0 0
      vertex 0 26 20
      vertex 0 26 0
    endloop
  endfacet
  facet normal -1 -0 0
    outer loop
      vertex 0 26 20
      vertex 0 0 0
      vertex 0 0 20
    endloop
  endfacet
  facet normal 0 1 -0
    outer loop
      vertex 88 26 0
      vertex 0 26 20
      vertex 88 26 20
    endloop
  endfacet
  facet normal 0 1 0
    outer loop
      vertex 0 26 20
      vertex 88 26 0
      vertex 0 26 0
    endloop
  endfacet
  facet normal 0 -1 0
    outer loop
      vertex 0 0 0
      vertex 88 0 20
      vertex 0 0 20
    endloop
  endfacet
  facet normal 0 -1 -0
    outer loop
      vertex 88 0 20
      vertex 0 0 0
      vertex 88 0 0
    endloop
  endfacet
  facet normal -1 0 0
    outer loop
      vertex 85.8 23.8 2
      vertex 85.8 18.5 13.9
      vertex 85.8 23.8 18.39
    endloop
  endfacet
  facet normal -1 0 0
    outer loop
      vertex 85.8 23.8 2
      vertex 85.8 7.5 13.9
      vertex 85.8 18.5 13.9
    endloop
  endfacet
  facet normal -1 0 0
    outer loop
      vertex 85.8 2.2 2
      vertex 85.8 7.5 13.9
      vertex 85.8 23.8 2
    endloop
  endfacet
  facet normal -1 0 0
    outer loop
      vertex 85.8 2.2 18.39
      vertex 85.8 7.5 13.9
      vertex 85.8 2.2 2
    endloop
  endfacet
  facet normal -1 0 0
    outer loop
      vertex 85.8 7.5 13.9
      vertex 85.8 2.2 18.39
      vertex 85.8 7.5 18.39
    endloop
  endfacet
  facet normal -1 -0 0
    outer loop
      vertex 85.8 23.8 18.39
      vertex 85.8 18.5 13.9
      vertex 85.8 18.5 18.39
    endloop
  endfacet
  facet normal 0 0 1
    outer loop
      vertex 85.8 23.8 2
      vertex 61.2 21.5 2
      vertex 85.8 2.2 2
    endloop
  endfacet
  facet normal 0 0 1
    outer loop
      vertex 85.8 23.8 2
      vertex 39.2 21.5 2
      vertex 61.2 21.5 2
    endloop
  endfacet
  facet normal 0 0 1
    outer loop
      vertex 39.2 21.5 2
      vertex 36.2 20 2
      vertex 39.2 4.5 2
    endloop
  endfacet
  facet normal 0 0 1
    outer loop
      vertex 2.2 23.8 2
      vertex 36.2 20 2
      vertex 39.2 21.5 2
    endloop
  endfacet
  facet normal -0 0 1
    outer loop
      vertex 2.2 23.8 2
      vertex 39.2 21.5 2
      vertex 85.8 23.8 2
    endloop
  endfacet
  facet normal 0 0 1
    outer loop
      vertex 4.2 20 2
      vertex 2.2 23.8 2
      vertex 4.2 6 2
    endloop
  endfacet
  facet normal 0 0 1
    outer loop
      vertex 36.2 20 2
      vertex 2.2 23.8 2
      vertex 4.2 20 2
    endloop
  endfacet
  facet normal -0 0 1
    outer loop
      vertex 61.2 4.5 2
      vertex 85.8 2.2 2
      vertex 61.2 21.5 2
    endloop
  endfacet
  facet normal -0 0 1
    outer loop
      vertex 39.2 4.5 2
      vertex 85.8 2.2 2
      vertex 61.2 4.5 2
    endloop
  endfacet
  facet normal -0 0 1
    outer loop
      vertex 36.2 6 2
      vertex 39.2 4.5 2
      vertex 36.2 20 2
    endloop
  endfacet
  facet normal 0 0 1
    outer loop
      vertex 2.2 2.2 2
      vertex 36.2 6 2
      vertex 4.2 6 2
    endloop
  endfacet
  facet normal 0 0 1
    outer loop
      vertex 36.2 6 2
      vertex 2.2 2.2 2
      vertex 39.2 4.5 2
    endloop
  endfacet
  facet normal 0 0 1
    outer loop
      vertex 39.2 4.5 2
      vertex 2.2 2.2 2
      vertex 85.8 2.2 2
    endloop
  endfacet
  facet normal 0 0 1
    outer loop
      vertex 2.2 2.2 2
      vertex 4.2 6 2
      vertex 2.2 23.8 2
    endloop
  endfacet
  facet normal 1 -0 0
    outer loop
      vertex 2.2 2.2 18.39
      vertex 2.2 23.8 2
      vertex 2.2 23.8 18.39
    endloop
  endfacet
  facet normal 1 0 0
    outer loop
      vertex 2.2 23.8 2
      vertex 2.2 2.2 18.39
      vertex 2.2 2.2 2
    endloop
  endfacet
  facet normal 0 -1 0
    outer loop
      vertex 2.2 23.8 18.39
      vertex 44 23.8 16.5
      vertex 85.8 23.8 18.39
    endloop
  endfacet
  facet normal 0 -1 0
    outer loop
      vertex 2.2 23.8 18.39
      vertex 42.8713 23.8 16.4012
      vertex 44 23.8 16.5
    endloop
  endfacet
  facet normal 0 -1 0
    outer loop
      vertex 2.2 23.8 18.39
      vertex 41.7769 23.8 16.108
      vertex 42.8713 23.8 16.4012
    endloop
  endfacet
  facet normal 0 -1 0
    outer loop
      vertex 2.2 23.8 18.39
      vertex 40.75 23.8 15.6292
      vertex 41.7769 23.8 16.108
    endloop
  endfacet
  facet normal 0 -1 0
    outer loop
      vertex 2.2 23.8 18.39
      vertex 39.8219 23.8 14.9793
      vertex 40.75 23.8 15.6292
    endloop
  endfacet
  facet normal 0 -1 0
    outer loop
      vertex 2.2 23.8 18.39
      vertex 39.0207 23.8 14.1781
      vertex 39.8219 23.8 14.9793
    endloop
  endfacet
  facet normal 0 -1 0
    outer loop
      vertex 2.2 23.8 18.39
      vertex 38.3708 23.8 13.25
      vertex 39.0207 23.8 14.1781
    endloop
  endfacet
  facet normal 0 -1 0
    outer loop
      vertex 2.2 23.8 18.39
      vertex 37.892 23.8 12.2231
      vertex 38.3708 23.8 13.25
    endloop
  endfacet
  facet normal 0 -1 0
    outer loop
      vertex 2.2 23.8 18.39
      vertex 37.5987 23.8 11.1287
      vertex 37.892 23.8 12.2231
    endloop
  endfacet
  facet normal 0 -1 0
    outer loop
      vertex 2.2 23.8 18.39
      vertex 37.5 23.8 10
      vertex 37.5987 23.8 11.1287
    endloop
  endfacet
  facet normal 0 -1 0
    outer loop
      vertex 2.2 23.8 2
      vertex 37.5 23.8 10
      vertex 2.2 23.8 18.39
    endloop
  endfacet
  facet normal 0 -1 -0
    outer loop
      vertex 37.5 23.8 10
      vertex 2.2 23.8 2
      vertex 37.5987 23.8 8.87129
    endloop
  endfacet
  facet normal 0 -1 -0
    outer loop
      vertex 37.5987 23.8 8.87129
      vertex 2.2 23.8 2
      vertex 37.892 23.8 7.77687
    endloop
  endfacet
  facet normal 0 -1 -0
    outer loop
      vertex 37.892 23.8 7.77687
      vertex 2.2 23.8 2
      vertex 38.3708 23.8 6.75
    endloop
  endfacet
  facet normal 0 -1 -0
    outer loop
      vertex 38.3708 23.8 6.75
      vertex 2.2 23.8 2
      vertex 39.0207 23.8 5.82188
    endloop
  endfacet
  facet normal 0 -1 -0
    outer loop
      vertex 39.0207 23.8 5.82188
      vertex 2.2 23.8 2
      vertex 39.8219 23.8 5.02071
    endloop
  endfacet
  facet normal 0 -1 -0
    outer loop
      vertex 39.8219 23.8 5.02071
      vertex 2.2 23.8 2
      vertex 40.75 23.8 4.37083
    endloop
  endfacet
  facet normal 0 -1 -0
    outer loop
      vertex 42.8713 23.8 3.59875
      vertex 2.2 23.8 2
      vertex 44 23.8 3.5
    endloop
  endfacet
  facet normal 0 -1 -0
    outer loop
      vertex 41.7769 23.8 3.892
      vertex 2.2 23.8 2
      vertex 42.8713 23.8 3.59875
    endloop
  endfacet
  facet normal 0 -1 -0
    outer loop
      vertex 40.75 23.8 4.37083
      vertex 2.2 23.8 2
      vertex 41.7769 23.8 3.892
    endloop
  endfacet
  facet normal 0 -1 0
    outer loop
      vertex 45.1287 23.8 16.4012
      vertex 85.8 23.8 18.39
      vertex 44 23.8 16.5
    endloop
  endfacet
  facet normal 0 -1 0
    outer loop
      vertex 46.2231 23.8 16.108
      vertex 85.8 23.8 18.39
      vertex 45.1287 23.8 16.4012
    endloop
  endfacet
  facet normal 0 -1 0
    outer loop
      vertex 47.25 23.8 15.6292
      vertex 85.8 23.8 18.39
      vertex 46.2231 23.8 16.108
    endloop
  endfacet
  facet normal 0 -1 0
    outer loop
      vertex 48.1781 23.8 14.9793
      vertex 85.8 23.8 18.39
      vertex 47.25 23.8 15.6292
    endloop
  endfacet
  facet normal 0 -1 0
    outer loop
      vertex 48.9793 23.8 14.1781
      vertex 85.8 23.8 18.39
      vertex 48.1781 23.8 14.9793
    endloop
  endfacet
  facet normal 0 -1 0
    outer loop
      vertex 49.6292 23.8 13.25
      vertex 85.8 23.8 18.39
      vertex 48.9793 23.8 14.1781
    endloop
  endfacet
  facet normal 0 -1 0
    outer loop
      vertex 50.108 23.8 12.2231
      vertex 85.8 23.8 18.39
      vertex 49.6292 23.8 13.25
    endloop
  endfacet
  facet normal 0 -1 0
    outer loop
      vertex 50.4012 23.8 11.1287
      vertex 85.8 23.8 18.39
      vertex 50.108 23.8 12.2231
    endloop
  endfacet
  facet normal 0 -1 0
    outer loop
      vertex 50.5 23.8 10
      vertex 85.8 23.8 18.39
      vertex 50.4012 23.8 11.1287
    endloop
  endfacet
  facet normal 0 -1 0
    outer loop
      vertex 85.8 23.8 2
      vertex 50.5 23.8 10
      vertex 50.4012 23.8 8.87129
    endloop
  endfacet
  facet normal 0 -1 0
    outer loop
      vertex 85.8 23.8 2
      vertex 50.4012 23.8 8.87129
      vertex 50.108 23.8 7.77687
    endloop
  endfacet
  facet normal 0 -1 0
    outer loop
      vertex 85.8 23.8 2
      vertex 50.108 23.8 7.77687
      vertex 49.6292 23.8 6.75
    endloop
  endfacet
  facet normal 0 -1 0
    outer loop
      vertex 85.8 23.8 2
      vertex 49.6292 23.8 6.75
      vertex 48.9793 23.8 5.82188
    endloop
  endfacet
  facet normal 0 -1 0
    outer loop
      vertex 85.8 23.8 2
      vertex 48.9793 23.8 5.82188
      vertex 48.1781 23.8 5.02071
    endloop
  endfacet
  facet normal 0 -1 0
    outer loop
      vertex 85.8 23.8 2
      vertex 48.1781 23.8 5.02071
      vertex 47.25 23.8 4.37083
    endloop
  endfacet
  facet normal 0 -1 0
    outer loop
      vertex 85.8 23.8 2
      vertex 47.25 23.8 4.37083
      vertex 46.2231 23.8 3.892
    endloop
  endfacet
  facet normal 0 -1 0
    outer loop
      vertex 50.5 23.8 10
      vertex 85.8 23.8 2
      vertex 85.8 23.8 18.39
    endloop
  endfacet
  facet normal 0 -1 0
    outer loop
      vertex 45.1287 23.8 3.59875
      vertex 85.8 23.8 2
      vertex 46.2231 23.8 3.892
    endloop
  endfacet
  facet normal 0 -1 0
    outer loop
      vertex 44 23.8 3.5
      vertex 85.8 23.8 2
      vertex 45.1287 23.8 3.59875
    endloop
  endfacet
  facet normal 0 -1 0
    outer loop
      vertex 85.8 23.8 2
      vertex 44 23.8 3.5
      vertex 2.2 23.8 2
    endloop
  endfacet
  facet normal 0 1 -0
    outer loop
      vertex 85.8 2.2 2
      vertex 2.2 2.2 18.39
      vertex 85.8 2.2 18.39
    endloop
  endfacet
  facet normal 0 1 0
    outer loop
      vertex 2.2 2.2 18.39
      vertex 85.8 2.2 2
      vertex 2.2 2.2 2
    endloop
  endfacet
  facet normal -1 0 0
    outer loop
      vertex 87.75 0.25 18.39
      vertex 87.75 25.75 20
      vertex 87.75 25.75 18.39
    endloop
  endfacet
  facet normal -1 -0 0
    outer loop
      vertex 87.75 25.75 20
      vertex 87.75 0.25 18.39
      vertex 87.75 0.25 20
    endloop
  endfacet
  facet normal 0 0 1
    outer loop
      vertex 87.75 25.75 18.39
      vertex 86 18.5 18.39
      vertex 87.75 0.25 18.39
    endloop
  endfacet
  facet normal 0 0 1
    outer loop
      vertex 87.75 25.75 18.39
      vertex 85.8 23.8 18.39
      vertex 86 18.5 18.39
    endloop
  endfacet
  facet normal 0 0 1
    outer loop
      vertex 87.75 25.75 18.39
      vertex 2.2 23.8 18.39
      vertex 85.8 23.8 18.39
    endloop
  endfacet
  facet normal 0 0 1
    outer loop
      vertex 2.2 23.8 18.39
      vertex 0.25 25.75 18.39
      vertex 2.2 2.2 18.39
    endloop
  endfacet
  facet normal -0 0 1
    outer loop
      vertex 0.25 25.75 18.39
      vertex 2.2 23.8 18.39
      vertex 87.75 25.75 18.39
    endloop
  endfacet
  facet normal -0 0 1
    outer loop
      vertex 86 7.5 18.39
      vertex 87.75 0.25 18.39
      vertex 86 18.5 18.39
    endloop
  endfacet
  facet normal 0 0 1
    outer loop
      vertex 85.8 2.2 18.39
      vertex 86 7.5 18.39
      vertex 85.8 7.5 18.39
    endloop
  endfacet
  facet normal 0 0 1
    outer loop
      vertex 86 7.5 18.39
      vertex 85.8 2.2 18.39
      vertex 87.75 0.25 18.39
    endloop
  endfacet
  facet normal -0 0 1
    outer loop
      vertex 2.2 2.2 18.39
      vertex 87.75 0.25 18.39
      vertex 85.8 2.2 18.39
    endloop
  endfacet
  facet normal 0 0 1
    outer loop
      vertex 2.2 2.2 18.39
      vertex 0.25 0.25 18.39
      vertex 87.75 0.25 18.39
    endloop
  endfacet
  facet normal 0 0 1
    outer loop
      vertex 0.25 0.25 18.39
      vertex 2.2 2.2 18.39
      vertex 0.25 25.75 18.39
    endloop
  endfacet
  facet normal 0 0 1
    outer loop
      vertex 86 18.5 18.39
      vertex 85.8 23.8 18.39
      vertex 85.8 18.5 18.39
    endloop
  endfacet
  facet normal 1 -0 0
    outer loop
      vertex 0.25 0.25 20
      vertex 0.25 25.75 18.39
      vertex 0.25 25.75 20
    endloop
  endfacet
  facet normal 1 0 0
    outer loop
      vertex 0.25 25.75 18.39
      vertex 0.25 0.25 20
      vertex 0.25 0.25 18.39
    endloop
  endfacet
  facet normal 0 -1 0
    outer loop
      vertex 0.25 25.75 18.39
      vertex 87.75 25.75 20
      vertex 0.25 25.75 20
    endloop
  endfacet
  facet normal 0 -1 -0
    outer loop
      vertex 87.75 25.75 20
      vertex 0.25 25.75 18.39
      vertex 87.75 25.75 18.39
    endloop
  endfacet
  facet normal 0 1 -0
    outer loop
      vertex 87.75 0.25 18.39
      vertex 0.25 0.25 20
      vertex 87.75 0.25 20
    endloop
  endfacet
  facet normal 0 1 0
    outer loop
      vertex 0.25 0.25 20
      vertex 87.75 0.25 18.39
      vertex 0.25 0.25 18.39
    endloop
  endfacet
  facet normal 0 0 -1
    outer loop
      vertex 87.99 5.5 12
      vertex 88 20.5 12
      vertex 88 5.5 12
    endloop
  endfacet
  facet normal -0 0 -1
    outer loop
      vertex 88 20.5 12
      vertex 87.99 5.5 12
      vertex 87.99 20.5 12
    endloop
  endfacet
  facet normal -0 0 1
    outer loop
      vertex 87.99 20.5 2
      vertex 88 5.5 2
      vertex 88 20.5 2
    endloop
  endfacet
  facet normal 0 0 1
    outer loop
      vertex 88 5.5 2
      vertex 87.99 20.5 2
      vertex 87.99 5.5 2
    endloop
  endfacet
  facet normal 1 -0 0
    outer loop
      vertex 87.99 5.5 12
      vertex 87.99 20.5 2
      vertex 87.99 20.5 12
    endloop
  endfacet
  facet normal 1 0 0
    outer loop
      vertex 87.99 20.5 2
      vertex 87.99 5.5 12
      vertex 87.99 5.5 2
    endloop
  endfacet
  facet normal 0 -1 0
    outer loop
      vertex 87.99 20.5 2
      vertex 88 20.5 12
      vertex 87.99 20.5 12
    endloop
  endfacet
  facet normal 0 -1 -0
    outer loop
      vertex 88 20.5 12
      vertex 87.99 20.5 2
      vertex 88 20.5 2
    endloop
  endfacet
  facet normal 0 1 -0
    outer loop
      vertex 88 5.5 2
      vertex 87.99 5.5 12
      vertex 88 5.5 12
    endloop
  endfacet
  facet normal 0 1 0
    outer loop
      vertex 87.99 5.5 12
      vertex 88 5.5 2
      vertex 87.99 5.5 2
    endloop
  endfacet
  facet normal -0.258824 0 0.965924
    outer loop
      vertex 45.1287 25.99 3.59875
      vertex 46.2231 23.8 3.892
      vertex 46.2231 25.99 3.892
    endloop
  endfacet
  facet normal -0.258824 0 0.965924
    outer loop
      vertex 46.2231 23.8 3.892
      vertex 45.1287 25.99 3.59875
      vertex 45.1287 23.8 3.59875
    endloop
  endfacet
  facet normal -0.996191 0 -0.0872009
    outer loop
      vertex 50.5 23.8 10
      vertex 50.4012 25.99 11.1287
      vertex 50.5 25.99 10
    endloop
  endfacet
  facet normal -0.996191 -0 -0.0872009
    outer loop
      vertex 50.4012 25.99 11.1287
      vertex 50.5 23.8 10
      vertex 50.4012 23.8 11.1287
    endloop
  endfacet
  facet normal 0 -1 0
    outer loop
      vertex 42.8713 25.99 16.4012
      vertex 45.1287 25.99 16.4012
      vertex 44 25.99 16.5
    endloop
  endfacet
  facet normal 0 -1 0
    outer loop
      vertex 41.7769 25.99 16.108
      vertex 45.1287 25.99 16.4012
      vertex 42.8713 25.99 16.4012
    endloop
  endfacet
  facet normal 0 -1 0
    outer loop
      vertex 41.7769 25.99 16.108
      vertex 46.2231 25.99 16.108
      vertex 45.1287 25.99 16.4012
    endloop
  endfacet
  facet normal 0 -1 0
    outer loop
      vertex 40.75 25.99 15.6292
      vertex 46.2231 25.99 16.108
      vertex 41.7769 25.99 16.108
    endloop
  endfacet
  facet normal 0 -1 0
    outer loop
      vertex 40.75 25.99 15.6292
      vertex 47.25 25.99 15.6292
      vertex 46.2231 25.99 16.108
    endloop
  endfacet
  facet normal 0 -1 0
    outer loop
      vertex 39.8219 25.99 14.9793
      vertex 47.25 25.99 15.6292
      vertex 40.75 25.99 15.6292
    endloop
  endfacet
  facet normal 0 -1 0
    outer loop
      vertex 39.8219 25.99 14.9793
      vertex 48.1781 25.99 14.9793
      vertex 47.25 25.99 15.6292
    endloop
  endfacet
  facet normal 0 -1 0
    outer loop
      vertex 39.0207 25.99 14.1781
      vertex 48.1781 25.99 14.9793
      vertex 39.8219 25.99 14.9793
    endloop
  endfacet
  facet normal 0 -1 0
    outer loop
      vertex 39.0207 25.99 14.1781
      vertex 48.9793 25.99 14.1781
      vertex 48.1781 25.99 14.9793
    endloop
  endfacet
  facet normal 0 -1 0
    outer loop
      vertex 38.3708 25.99 13.25
      vertex 48.9793 25.99 14.1781
      vertex 39.0207 25.99 14.1781
    endloop
  endfacet
  facet normal 0 -1 0
    outer loop
      vertex 38.3708 25.99 13.25
      vertex 49.6292 25.99 13.25
      vertex 48.9793 25.99 14.1781
    endloop
  endfacet
  facet normal 0 -1 0
    outer loop
      vertex 37.892 25.99 12.2231
      vertex 49.6292 25.99 13.25
      vertex 38.3708 25.99 13.25
    endloop
  endfacet
  facet normal 0 -1 0
    outer loop
      vertex 37.892 25.99 12.2231
      vertex 50.108 25.99 12.2231
      vertex 49.6292 25.99 13.25
    endloop
  endfacet
  facet normal 0 -1 0
    outer loop
      vertex 37.5987 25.99 11.1287
      vertex 50.108 25.99 12.2231
      vertex 37.892 25.99 12.2231
    endloop
  endfacet
  facet normal 0 -1 0
    outer loop
      vertex 37.5987 25.99 11.1287
      vertex 50.4012 25.99 11.1287
      vertex 50.108 25.99 12.2231
    endloop
  endfacet
  facet normal 0 -1 0
    outer loop
      vertex 37.5 25.99 10
      vertex 50.4012 25.99 11.1287
      vertex 37.5987 25.99 11.1287
    endloop
  endfacet
  facet normal 0 -1 0
    outer loop
      vertex 37.5 25.99 10
      vertex 50.5 25.99 10
      vertex 50.4012 25.99 11.1287
    endloop
  endfacet
  facet normal 0 -1 0
    outer loop
      vertex 37.5987 25.99 8.87129
      vertex 50.5 25.99 10
      vertex 37.5 25.99 10
    endloop
  endfacet
  facet normal 0 -1 0
    outer loop
      vertex 37.5987 25.99 8.87129
      vertex 50.4012 25.99 8.87129
      vertex 50.5 25.99 10
    endloop
  endfacet
  facet normal 0 -1 0
    outer loop
      vertex 37.892 25.99 7.77687
      vertex 50.4012 25.99 8.87129
      vertex 37.5987 25.99 8.87129
    endloop
  endfacet
  facet normal 0 -1 0
    outer loop
      vertex 37.892 25.99 7.77687
      vertex 50.108 25.99 7.77687
      vertex 50.4012 25.99 8.87129
    endloop
  endfacet
  facet normal 0 -1 0
    outer loop
      vertex 38.3708 25.99 6.75
      vertex 50.108 25.99 7.77687
      vertex 37.892 25.99 7.77687
    endloop
  endfacet
  facet normal 0 -1 0
    outer loop
      vertex 38.3708 25.99 6.75
      vertex 49.6292 25.99 6.75
      vertex 50.108 25.99 7.77687
    endloop
  endfacet
  facet normal 0 -1 0
    outer loop
      vertex 39.0207 25.99 5.82188
      vertex 49.6292 25.99 6.75
      vertex 38.3708 25.99 6.75
    endloop
  endfacet
  facet normal 0 -1 0
    outer loop
      vertex 39.0207 25.99 5.82188
      vertex 48.9793 25.99 5.82188
      vertex 49.6292 25.99 6.75
    endloop
  endfacet
  facet normal 0 -1 0
    outer loop
      vertex 39.8219 25.99 5.02071
      vertex 48.9793 25.99 5.82188
      vertex 39.0207 25.99 5.82188
    endloop
  endfacet
  facet normal 0 -1 0
    outer loop
      vertex 39.8219 25.99 5.02071
      vertex 48.1781 25.99 5.02071
      vertex 48.9793 25.99 5.82188
    endloop
  endfacet
  facet normal 0 -1 0
    outer loop
      vertex 40.75 25.99 4.37083
      vertex 48.1781 25.99 5.02071
      vertex 39.8219 25.99 5.02071
    endloop
  endfacet
  facet normal 0 -1 0
    outer loop
      vertex 40.75 25.99 4.37083
      vertex 47.25 25.99 4.37083
      vertex 48.1781 25.99 5.02071
    endloop
  endfacet
  facet normal 0 -1 0
    outer loop
      vertex 41.7769 25.99 3.892
      vertex 47.25 25.99 4.37083
      vertex 40.75 25.99 4.37083
    endloop
  endfacet
  facet normal 0 -1 0
    outer loop
      vertex 41.7769 25.99 3.892
      vertex 46.2231 25.99 3.892
      vertex 47.25 25.99 4.37083
    endloop
  endfacet
  facet normal 0 -1 0
    outer loop
      vertex 42.8713 25.99 3.59875
      vertex 46.2231 25.99 3.892
      vertex 41.7769 25.99 3.892
    endloop
  endfacet
  facet normal 0 -1 0
    outer loop
      vertex 42.8713 25.99 3.59875
      vertex 45.1287 25.99 3.59875
      vertex 46.2231 25.99 3.892
    endloop
  endfacet
  facet normal -0 -1 0
    outer loop
      vertex 45.1287 25.99 3.59875
      vertex 42.8713 25.99 3.59875
      vertex 44 25.99 3.5
    endloop
  endfacet
  facet normal -0.258783 0 -0.965935
    outer loop
      vertex 45.1287 23.8 16.4012
      vertex 46.2231 25.99 16.108
      vertex 46.2231 23.8 16.108
    endloop
  endfacet
  facet normal -0.258783 0 -0.965935
    outer loop
      vertex 46.2231 25.99 16.108
      vertex 45.1287 23.8 16.4012
      vertex 45.1287 25.99 16.4012
    endloop
  endfacet
  facet normal -0.0872009 0 -0.996191
    outer loop
      vertex 44 23.8 16.5
      vertex 45.1287 25.99 16.4012
      vertex 45.1287 23.8 16.4012
    endloop
  endfacet
  facet normal -0.0872009 0 -0.996191
    outer loop
      vertex 45.1287 25.99 16.4012
      vertex 44 23.8 16.5
      vertex 44 25.99 16.5
    endloop
  endfacet
  facet normal -0.422581 0 -0.906325
    outer loop
      vertex 46.2231 23.8 16.108
      vertex 47.25 25.99 15.6292
      vertex 47.25 23.8 15.6292
    endloop
  endfacet
  facet normal -0.422581 0 -0.906325
    outer loop
      vertex 47.25 25.99 15.6292
      vertex 46.2231 23.8 16.108
      vertex 46.2231 25.99 16.108
    endloop
  endfacet
  facet normal -0.906325 0 -0.422581
    outer loop
      vertex 50.108 23.8 12.2231
      vertex 49.6292 25.99 13.25
      vertex 50.108 25.99 12.2231
    endloop
  endfacet
  facet normal -0.906325 -0 -0.422581
    outer loop
      vertex 49.6292 25.99 13.25
      vertex 50.108 23.8 12.2231
      vertex 49.6292 23.8 13.25
    endloop
  endfacet
  facet normal -0.819137 0 -0.573599
    outer loop
      vertex 49.6292 23.8 13.25
      vertex 48.9793 25.99 14.1781
      vertex 49.6292 25.99 13.25
    endloop
  endfacet
  facet normal -0.819137 -0 -0.573599
    outer loop
      vertex 48.9793 25.99 14.1781
      vertex 49.6292 23.8 13.25
      vertex 48.9793 23.8 14.1781
    endloop
  endfacet
  facet normal 0.422581 0 -0.906325
    outer loop
      vertex 40.75 23.8 15.6292
      vertex 41.7769 25.99 16.108
      vertex 41.7769 23.8 16.108
    endloop
  endfacet
  facet normal 0.422581 0 -0.906325
    outer loop
      vertex 41.7769 25.99 16.108
      vertex 40.75 23.8 15.6292
      vertex 40.75 25.99 15.6292
    endloop
  endfacet
  facet normal 0.965913 0 -0.258865
    outer loop
      vertex 37.892 23.8 12.2231
      vertex 37.5987 25.99 11.1287
      vertex 37.892 25.99 12.2231
    endloop
  endfacet
  facet normal 0.965913 0 -0.258865
    outer loop
      vertex 37.5987 25.99 11.1287
      vertex 37.892 23.8 12.2231
      vertex 37.5987 23.8 11.1287
    endloop
  endfacet
  facet normal 0.258783 0 -0.965935
    outer loop
      vertex 41.7769 23.8 16.108
      vertex 42.8713 25.99 16.4012
      vertex 42.8713 23.8 16.4012
    endloop
  endfacet
  facet normal 0.258783 0 -0.965935
    outer loop
      vertex 42.8713 25.99 16.4012
      vertex 41.7769 23.8 16.108
      vertex 41.7769 25.99 16.108
    endloop
  endfacet
  facet normal -0.819142 0 0.57359
    outer loop
      vertex 48.9793 23.8 5.82188
      vertex 49.6292 25.99 6.75
      vertex 48.9793 25.99 5.82188
    endloop
  endfacet
  facet normal -0.819142 0 0.57359
    outer loop
      vertex 49.6292 25.99 6.75
      vertex 48.9793 23.8 5.82188
      vertex 49.6292 23.8 6.75
    endloop
  endfacet
  facet normal -0.422603 0 0.906315
    outer loop
      vertex 46.2231 25.99 3.892
      vertex 47.25 23.8 4.37083
      vertex 47.25 25.99 4.37083
    endloop
  endfacet
  facet normal -0.422603 0 0.906315
    outer loop
      vertex 47.25 23.8 4.37083
      vertex 46.2231 25.99 3.892
      vertex 46.2231 23.8 3.892
    endloop
  endfacet
  facet normal 0.996198 0 -0.0871133
    outer loop
      vertex 37.5987 23.8 11.1287
      vertex 37.5 25.99 10
      vertex 37.5987 25.99 11.1287
    endloop
  endfacet
  facet normal 0.996198 0 -0.0871133
    outer loop
      vertex 37.5 25.99 10
      vertex 37.5987 23.8 11.1287
      vertex 37.5 23.8 10
    endloop
  endfacet
  facet normal 0.707094 0 0.70712
    outer loop
      vertex 39.0207 25.99 5.82188
      vertex 39.8219 23.8 5.02071
      vertex 39.8219 25.99 5.02071
    endloop
  endfacet
  facet normal 0.707094 0 0.70712
    outer loop
      vertex 39.8219 23.8 5.02071
      vertex 39.0207 25.99 5.82188
      vertex 39.0207 23.8 5.82188
    endloop
  endfacet
  facet normal -0.996191 0 0.0872001
    outer loop
      vertex 50.4012 23.8 8.87129
      vertex 50.5 25.99 10
      vertex 50.4012 25.99 8.87129
    endloop
  endfacet
  facet normal -0.996191 0 0.0872001
    outer loop
      vertex 50.5 25.99 10
      vertex 50.4012 23.8 8.87129
      vertex 50.5 23.8 10
    endloop
  endfacet
  facet normal -0.707107 0 -0.707107
    outer loop
      vertex 48.9793 23.8 14.1781
      vertex 48.1781 25.99 14.9793
      vertex 48.9793 25.99 14.1781
    endloop
  endfacet
  facet normal -0.707107 -0 -0.707107
    outer loop
      vertex 48.1781 25.99 14.9793
      vertex 48.9793 23.8 14.1781
      vertex 48.1781 23.8 14.9793
    endloop
  endfacet
  facet normal -0.965935 0 -0.258783
    outer loop
      vertex 50.4012 23.8 11.1287
      vertex 50.108 25.99 12.2231
      vertex 50.4012 25.99 11.1287
    endloop
  endfacet
  facet normal -0.965935 -0 -0.258783
    outer loop
      vertex 50.108 25.99 12.2231
      vertex 50.4012 23.8 11.1287
      vertex 50.108 23.8 12.2231
    endloop
  endfacet
  facet normal -0.965937 0 0.258779
    outer loop
      vertex 50.108 23.8 7.77687
      vertex 50.4012 25.99 8.87129
      vertex 50.108 25.99 7.77687
    endloop
  endfacet
  facet normal -0.965937 0 0.258779
    outer loop
      vertex 50.4012 25.99 8.87129
      vertex 50.108 23.8 7.77687
      vertex 50.4012 23.8 8.87129
    endloop
  endfacet
  facet normal 0.819142 -0 0.57359
    outer loop
      vertex 38.3708 23.8 6.75
      vertex 39.0207 25.99 5.82188
      vertex 38.3708 25.99 6.75
    endloop
  endfacet
  facet normal 0.819142 0 0.57359
    outer loop
      vertex 39.0207 25.99 5.82188
      vertex 38.3708 23.8 6.75
      vertex 39.0207 23.8 5.82188
    endloop
  endfacet
  facet normal -0.90632 0 0.422591
    outer loop
      vertex 49.6292 23.8 6.75
      vertex 50.108 25.99 7.77687
      vertex 49.6292 25.99 6.75
    endloop
  endfacet
  facet normal -0.90632 0 0.422591
    outer loop
      vertex 50.108 25.99 7.77687
      vertex 49.6292 23.8 6.75
      vertex 50.108 23.8 7.77687
    endloop
  endfacet
  facet normal -0.707094 0 0.70712
    outer loop
      vertex 48.1781 23.8 5.02071
      vertex 48.9793 25.99 5.82188
      vertex 48.1781 25.99 5.02071
    endloop
  endfacet
  facet normal -0.707094 0 0.70712
    outer loop
      vertex 48.9793 25.99 5.82188
      vertex 48.1781 23.8 5.02071
      vertex 48.9793 23.8 5.82188
    endloop
  endfacet
  facet normal 0.573599 0 -0.819137
    outer loop
      vertex 39.8219 23.8 14.9793
      vertex 40.75 25.99 15.6292
      vertex 40.75 23.8 15.6292
    endloop
  endfacet
  facet normal 0.573599 0 -0.819137
    outer loop
      vertex 40.75 25.99 15.6292
      vertex 39.8219 23.8 14.9793
      vertex 39.8219 25.99 14.9793
    endloop
  endfacet
  facet normal 0.906325 0 -0.422581
    outer loop
      vertex 38.3708 23.8 13.25
      vertex 37.892 25.99 12.2231
      vertex 38.3708 25.99 13.25
    endloop
  endfacet
  facet normal 0.906325 0 -0.422581
    outer loop
      vertex 37.892 25.99 12.2231
      vertex 38.3708 23.8 13.25
      vertex 37.892 23.8 12.2231
    endloop
  endfacet
  facet normal -0.573599 0 -0.819137
    outer loop
      vertex 47.25 23.8 15.6292
      vertex 48.1781 25.99 14.9793
      vertex 48.1781 23.8 14.9793
    endloop
  endfacet
  facet normal -0.573599 0 -0.819137
    outer loop
      vertex 48.1781 25.99 14.9793
      vertex 47.25 23.8 15.6292
      vertex 47.25 25.99 15.6292
    endloop
  endfacet
  facet normal 0.422603 0 0.906315
    outer loop
      vertex 40.75 25.99 4.37083
      vertex 41.7769 23.8 3.892
      vertex 41.7769 25.99 3.892
    endloop
  endfacet
  facet normal 0.422603 0 0.906315
    outer loop
      vertex 41.7769 23.8 3.892
      vertex 40.75 25.99 4.37083
      vertex 40.75 23.8 4.37083
    endloop
  endfacet
  facet normal 0.0872009 0 -0.996191
    outer loop
      vertex 42.8713 23.8 16.4012
      vertex 44 25.99 16.5
      vertex 44 23.8 16.5
    endloop
  endfacet
  facet normal 0.0872009 0 -0.996191
    outer loop
      vertex 44 25.99 16.5
      vertex 42.8713 23.8 16.4012
      vertex 42.8713 25.99 16.4012
    endloop
  endfacet
  facet normal 0.996198 -0 0.0871125
    outer loop
      vertex 37.5 23.8 10
      vertex 37.5987 25.99 8.87129
      vertex 37.5 25.99 10
    endloop
  endfacet
  facet normal 0.996198 0 0.0871125
    outer loop
      vertex 37.5987 25.99 8.87129
      vertex 37.5 23.8 10
      vertex 37.5987 23.8 8.87129
    endloop
  endfacet
  facet normal 0.965915 -0 0.258861
    outer loop
      vertex 37.5987 23.8 8.87129
      vertex 37.892 25.99 7.77687
      vertex 37.5987 25.99 8.87129
    endloop
  endfacet
  facet normal 0.965915 0 0.258861
    outer loop
      vertex 37.892 25.99 7.77687
      vertex 37.5987 23.8 8.87129
      vertex 37.892 23.8 7.77687
    endloop
  endfacet
  facet normal -0.0871571 0 0.996195
    outer loop
      vertex 44 25.99 3.5
      vertex 45.1287 23.8 3.59875
      vertex 45.1287 25.99 3.59875
    endloop
  endfacet
  facet normal -0.0871571 0 0.996195
    outer loop
      vertex 45.1287 23.8 3.59875
      vertex 44 25.99 3.5
      vertex 44 23.8 3.5
    endloop
  endfacet
  facet normal 0.90632 -0 0.422591
    outer loop
      vertex 37.892 23.8 7.77687
      vertex 38.3708 25.99 6.75
      vertex 37.892 25.99 7.77687
    endloop
  endfacet
  facet normal 0.90632 0 0.422591
    outer loop
      vertex 38.3708 25.99 6.75
      vertex 37.892 23.8 7.77687
      vertex 38.3708 23.8 6.75
    endloop
  endfacet
  facet normal 0.707107 0 -0.707107
    outer loop
      vertex 39.0207 23.8 14.1781
      vertex 39.8219 25.99 14.9793
      vertex 39.8219 23.8 14.9793
    endloop
  endfacet
  facet normal 0.707107 0 -0.707107
    outer loop
      vertex 39.8219 25.99 14.9793
      vertex 39.0207 23.8 14.1781
      vertex 39.0207 25.99 14.1781
    endloop
  endfacet
  facet normal 0.819137 0 -0.573599
    outer loop
      vertex 39.0207 23.8 14.1781
      vertex 38.3708 25.99 13.25
      vertex 39.0207 25.99 14.1781
    endloop
  endfacet
  facet normal 0.819137 0 -0.573599
    outer loop
      vertex 38.3708 25.99 13.25
      vertex 39.0207 23.8 14.1781
      vertex 38.3708 23.8 13.25
    endloop
  endfacet
  facet normal 0.573587 0 0.819145
    outer loop
      vertex 39.8219 25.99 5.02071
      vertex 40.75 23.8 4.37083
      vertex 40.75 25.99 4.37083
    endloop
  endfacet
  facet normal 0.573587 0 0.819145
    outer loop
      vertex 40.75 23.8 4.37083
      vertex 39.8219 25.99 5.02071
      vertex 39.8219 23.8 5.02071
    endloop
  endfacet
  facet normal -0.573587 0 0.819145
    outer loop
      vertex 47.25 25.99 4.37083
      vertex 48.1781 23.8 5.02071
      vertex 48.1781 25.99 5.02071
    endloop
  endfacet
  facet normal -0.573587 0 0.819145
    outer loop
      vertex 48.1781 23.8 5.02071
      vertex 47.25 25.99 4.37083
      vertex 47.25 23.8 4.37083
    endloop
  endfacet
  facet normal 0.0871571 0 0.996195
    outer loop
      vertex 42.8713 25.99 3.59875
      vertex 44 23.8 3.5
      vertex 44 25.99 3.5
    endloop
  endfacet
  facet normal 0.0871571 0 0.996195
    outer loop
      vertex 44 23.8 3.5
      vertex 42.8713 25.99 3.59875
      vertex 42.8713 23.8 3.59875
    endloop
  endfacet
  facet normal 0.258824 0 0.965924
    outer loop
      vertex 41.7769 25.99 3.892
      vertex 42.8713 23.8 3.59875
      vertex 42.8713 25.99 3.59875
    endloop
  endfacet
  facet normal 0.258824 0 0.965924
    outer loop
      vertex 42.8713 23.8 3.59875
      vertex 41.7769 25.99 3.892
      vertex 41.7769 23.8 3.892
    endloop
  endfacet
  facet normal -1 0 0
    outer loop
      vertex 36.2 6 1
      vertex 36.2 20 2
      vertex 36.2 20 1
    endloop
  endfacet
  facet normal -1 -0 0
    outer loop
      vertex 36.2 20 2
      vertex 36.2 6 1
      vertex 36.2 6 2
    endloop
  endfacet
  facet normal -0 0 1
    outer loop
      vertex 4.2 20 1
      vertex 36.2 6 1
      vertex 36.2 20 1
    endloop
  endfacet
  facet normal 0 0 1
    outer loop
      vertex 36.2 6 1
      vertex 4.2 20 1
      vertex 4.2 6 1
    endloop
  endfacet
  facet normal 1 -0 0
    outer loop
      vertex 4.2 6 2
      vertex 4.2 20 1
      vertex 4.2 20 2
    endloop
  endfacet
  facet normal 1 0 0
    outer loop
      vertex 4.2 20 1
      vertex 4.2 6 2
      vertex 4.2 6 1
    endloop
  endfacet
  facet normal 0 -1 0
    outer loop
      vertex 4.2 20 1
      vertex 36.2 20 2
      vertex 4.2 20 2
    endloop
  endfacet
  facet normal 0 -1 -0
    outer loop
      vertex 36.2 20 2
      vertex 4.2 20 1
      vertex 36.2 20 1
    endloop
  endfacet
  facet normal 0 1 -0
    outer loop
      vertex 36.2 6 1
      vertex 4.2 6 2
      vertex 36.2 6 2
    endloop
  endfacet
  facet normal 0 1 0
    outer loop
      vertex 4.2 6 2
      vertex 36.2 6 1
      vertex 4.2 6 1
    endloop
  endfacet
  facet normal -1 0 0
    outer loop
      vertex 61.2 4.5 1
      vertex 61.2 21.5 2
      vertex 61.2 21.5 1
    endloop
  endfacet
  facet normal -1 -0 0
    outer loop
      vertex 61.2 21.5 2
      vertex 61.2 4.5 1
      vertex 61.2 4.5 2
    endloop
  endfacet
  facet normal -0 0 1
    outer loop
      vertex 39.2 21.5 1
      vertex 61.2 4.5 1
      vertex 61.2 21.5 1
    endloop
  endfacet
  facet normal 0 0 1
    outer loop
      vertex 61.2 4.5 1
      vertex 39.2 21.5 1
      vertex 39.2 4.5 1
    endloop
  endfacet
  facet normal 1 -0 0
    outer loop
      vertex 39.2 4.5 2
      vertex 39.2 21.5 1
      vertex 39.2 21.5 2
    endloop
  endfacet
  facet normal 1 0 0
    outer loop
      vertex 39.2 21.5 1
      vertex 39.2 4.5 2
      vertex 39.2 4.5 1
    endloop
  endfacet
  facet normal 0 -1 0
    outer loop
      vertex 39.2 21.5 1
      vertex 61.2 21.5 2
      vertex 39.2 21.5 2
    endloop
  endfacet
  facet normal 0 -1 -0
    outer loop
      vertex 61.2 21.5 2
      vertex 39.2 21.5 1
      vertex 61.2 21.5 1
    endloop
  endfacet
  facet normal 0 1 -0
    outer loop
      vertex 61.2 4.5 1
      vertex 39.2 4.5 2
      vertex 61.2 4.5 2
    endloop
  endfacet
  facet normal 0 1 0
    outer loop
      vertex 39.2 4.5 2
      vertex 61.2 4.5 1
      vertex 39.2 4.5 1
    endloop
  endfacet
  facet normal -1 0 0
    outer loop
      vertex 86 7.5 13.9
      vertex 86 18.5 18.39
      vertex 86 18.5 13.9
    endloop
  endfacet
  facet normal -1 -0 0
    outer loop
      vertex 86 18.5 18.39
      vertex 86 7.5 13.9
      vertex 86 7.5 18.39
    endloop
  endfacet
  facet normal -0 0 1
    outer loop
      vertex 85.8 18.5 13.9
      vertex 86 7.5 13.9
      vertex 86 18.5 13.9
    endloop
  endfacet
  facet normal 0 0 1
    outer loop
      vertex 86 7.5 13.9
      vertex 85.8 18.5 13.9
      vertex 85.8 7.5 13.9
    endloop
  endfacet
  facet normal 0 -1 0
    outer loop
      vertex 85.8 18.5 13.9
      vertex 86 18.5 18.39
      vertex 85.8 18.5 18.39
    endloop
  endfacet
  facet normal 0 -1 -0
    outer loop
      vertex 86 18.5 18.39
      vertex 85.8 18.5 13.9
      vertex 86 18.5 13.9
    endloop
  endfacet
  facet normal 0 1 -0
    outer loop
      vertex 86 7.5 13.9
      vertex 85.8 7.5 18.39
      vertex 86 7.5 18.39
    endloop
  endfacet
  facet normal 0 1 0
    outer loop
      vertex 85.8 7.5 18.39
      vertex 86 7.5 13.9
      vertex 85.8 7.5 13.9
    endloop
  endfacet
endsolid OpenSCAD_Model
